<svg id="Layer_3" data-name="Layer 3" xmlns="http://www.w3.org/2000/svg" xmlns:xlink="http://www.w3.org/1999/xlink" viewBox="0 0 91.39 63.36"><defs><style>.cls-1,.cls-2{fill:#576ee0;}.cls-1{opacity:0.49;}.cls-3{fill:#999;}.cls-4{fill:#000615;}.cls-5{fill:#122549;}.cls-6{fill:#414042;}.cls-7{fill:#939598;}.cls-8{fill:#58595b;}.cls-9{fill:#666;}.cls-10{fill:#808285;}.cls-11{fill:#64686d;}.cls-12{fill:#b2222d;}.cls-13{fill:#6d0c1d;}.cls-14{fill:#8b114e;}.cls-15{fill:#000432;}.cls-16{fill:url(#linear-gradient);}.cls-17{fill:#ffb176;}.cls-18{fill:#0b3a6d;}.cls-19{fill:#002049;}.cls-20{fill:#603913;}.cls-21{fill:#f7941e;}.cls-22{fill:#d17919;}.cls-23{fill:#ddd3c4;}.cls-24{fill:url(#linear-gradient-2);}.cls-25{fill:#2e365b;}.cls-26{fill:url(#linear-gradient-3);}.cls-27{fill:url(#linear-gradient-4);}.cls-28{fill:url(#linear-gradient-5);}.cls-29{fill:url(#linear-gradient-6);}.cls-30{fill:gray;}.cls-31{fill:#fff3ca;}.cls-32{fill:#1f80c9;}.cls-33{fill:#487e99;}.cls-34{fill:url(#linear-gradient-7);}.cls-35{fill:#873d0b;}.cls-36{fill:#5b91b2;}.cls-37{fill:#8af0ff;}.cls-38{fill:#6195bd;}.cls-39{fill:#e6e6e6;}.cls-40{fill:#116a96;}.cls-41{fill:#bcbec0;}.cls-42{fill:#594400;}.cls-43{fill:#381700;}.cls-44{fill:#756c26;}.cls-45{fill:#7b630c;}.cls-46{fill:#9b8333;}.cls-47{fill:#e6e7e8;}.cls-48{fill:#a7a9ac;}</style><linearGradient id="linear-gradient" x1="3451.27" y1="-558.44" x2="3451.14" y2="-560.52" gradientTransform="matrix(0.85, 0.26, -0.31, 1.02, -3004.6, -240.76)" gradientUnits="userSpaceOnUse"><stop offset="0" stop-color="#ea9957"/><stop offset="0.97" stop-color="#a97c50"/></linearGradient><linearGradient id="linear-gradient-2" x1="-1234.01" y1="948.73" x2="-1234.14" y2="946.47" gradientTransform="matrix(0.86, 0.2, -0.24, 1.04, 1393.17, -679.01)" xlink:href="#linear-gradient"/><linearGradient id="linear-gradient-3" x1="99.66" y1="73.7" x2="103.37" y2="73.7" gradientUnits="userSpaceOnUse"><stop offset="0" stop-color="#e53358"/><stop offset="1" stop-color="#83004c"/></linearGradient><linearGradient id="linear-gradient-4" x1="-4591.01" y1="74.7" x2="-4587.3" y2="74.7" gradientTransform="matrix(-1, 0, 0, 1, -4480, 0)" xlink:href="#linear-gradient-3"/><linearGradient id="linear-gradient-5" x1="39.55" y1="32.78" x2="39.55" y2="32.78" xlink:href="#linear-gradient-3"/><linearGradient id="linear-gradient-6" x1="99.87" y1="75.43" x2="104.59" y2="75.43" xlink:href="#linear-gradient-3"/><linearGradient id="linear-gradient-7" x1="-9053.62" y1="-162.1" x2="-9053.3" y2="-162.7" gradientTransform="matrix(-1, -0.02, -0.02, 1, -8926.45, 21.88)" xlink:href="#linear-gradient"/></defs><path class="cls-1" d="M152.64,79.22c-1,4.42-3.56,7.9-6.53,11.23-4.68,5.23-10.66,5.45-17.4,5.69a208.93,208.93,0,0,0-28.78,3C95.09,100,90,101,85.15,100.81a20.2,20.2,0,0,1-7.22-.57c-6.33-1.73-11.51-7.57-10.58-14.39.46-3.4,2.11-6.49,3.42-9.62a27.22,27.22,0,0,0,1.72-5.48,27,27,0,0,0,.34-6.47,0,0,0,0,1,0,0C72.65,54,76.73,44.29,86,39.8a30.4,30.4,0,0,1,8.9-2.24c5.06-.23,9.82,2.69,13.16,6.5,2.15,2.46,4,5.42,6.91,6.87a14.85,14.85,0,0,0,6.52,1.12c7.22,0,15-1.43,21.27,2.13a19.28,19.28,0,0,1,6.8,6.92A24.62,24.62,0,0,1,152.64,79.22Z" transform="translate(-67.24 -37.55)"/><path class="cls-1" d="M155.2,80c-1.87,3.7-2.54,7.23-5.6,10.36a5.19,5.19,0,0,0-1,1.24,1.5,1.5,0,0,0,0,1.52,1.72,1.72,0,0,0,1.6.54,6.1,6.1,0,0,0,3.07-1.41,14.57,14.57,0,0,0,5.26-8.36C159.05,81.59,157.22,76,155.2,80Z" transform="translate(-67.24 -37.55)"/><path class="cls-2" d="M143,90.42a19.41,19.41,0,0,1-6.64,1.43,37.44,37.44,0,0,1-7.82-.84,52.75,52.75,0,0,0-7.6-1,22.82,22.82,0,0,0-8.51,1.62c-5.47,1.92-11.34,2.51-17.09,3.09a27.9,27.9,0,0,1-13.19-1.86q-.33,0-.66-.12c-2-.43-3.83-1.58-5.76-2.35s-4.25-1.14-6,0A4.29,4.29,0,0,0,68.18,92a14.85,14.85,0,0,0,9.75,8.24,20.2,20.2,0,0,0,7.22.57c4.87.16,9.94-.83,14.78-1.68a208.93,208.93,0,0,1,28.78-3c6.74-.24,12.72-.46,17.4-5.69.51-.57,1-1.14,1.47-1.72-.75.15-1.77.52-2.72.82C144.24,89.87,143.62,90.16,143,90.42Z" transform="translate(-67.24 -37.55)"/><path class="cls-3" d="M109.39,70.62a2.36,2.36,0,0,0-1.51-.66,10.71,10.71,0,0,0-3.39,0c-.89.15-1.88.11-2.38,1a3.48,3.48,0,0,0-.33,1.53,51.64,51.64,0,0,0,.26,8.06,1.33,1.33,0,0,0,.1.48,1.46,1.46,0,0,0,.67.58,7,7,0,0,0,5.58.3,1.36,1.36,0,0,0,.68-.46,1.53,1.53,0,0,0,.19-.67c.3-2.8.48-5.62.53-8.43A2.61,2.61,0,0,0,109.39,70.62Z" transform="translate(-67.24 -37.55)"/><path class="cls-4" d="M110.51,93.83a.58.58,0,1,0,.58-.58A.58.58,0,0,0,110.51,93.83Z" transform="translate(-67.24 -37.55)"/><path class="cls-5" d="M110.7,93.83a.41.41,0,1,0,.4-.4A.4.4,0,0,0,110.7,93.83Z" transform="translate(-67.24 -37.55)"/><path class="cls-6" d="M105.83,90.74s-.13.63.06.66,4.89,2.43,4.89,2.43.35-.07.13-.29S105.83,90.74,105.83,90.74Z" transform="translate(-67.24 -37.55)"/><path class="cls-7" d="M105.82,90.82,111,93.74a.65.65,0,0,0-.19-.44c-.21-.2-4.91-2.79-4.91-2.79Z" transform="translate(-67.24 -37.55)"/><path class="cls-8" d="M105.92,91.39a.25.25,0,0,1-.23.27h-.09a.25.25,0,0,1-.23-.27V85a.26.26,0,0,1,.23-.28h.09a.26.26,0,0,1,.23.28Z" transform="translate(-67.24 -37.55)"/><path class="cls-6" d="M105.78,84.72a.28.28,0,0,0-.14.25v6.42a.16.16,0,1,0,.28,0V85A.28.28,0,0,0,105.78,84.72Z" transform="translate(-67.24 -37.55)"/><path class="cls-4" d="M100.85,93.94a.58.58,0,0,1-1.16,0,.58.58,0,1,1,1.16,0Z" transform="translate(-67.24 -37.55)"/><path class="cls-5" d="M100.66,93.94a.41.41,0,0,1-.81,0,.41.41,0,1,1,.81,0Z" transform="translate(-67.24 -37.55)"/><path class="cls-6" d="M105.53,90.84s.13.63-.06.66-4.89,2.44-4.89,2.44-.35-.08-.13-.3S105.53,90.84,105.53,90.84Z" transform="translate(-67.24 -37.55)"/><path class="cls-7" d="M105.54,90.92l-5.17,2.92a.62.62,0,0,1,.19-.43c.21-.21,4.91-2.8,4.91-2.8Z" transform="translate(-67.24 -37.55)"/><path class="cls-4" d="M106,93.65a.59.59,0,0,1,.21.79.58.58,0,0,1-1-.58A.59.59,0,0,1,106,93.65Z" transform="translate(-67.24 -37.55)"/><path class="cls-5" d="M105.9,93.81a.41.41,0,1,1-.41.7.41.41,0,0,1,.41-.7Z" transform="translate(-67.24 -37.55)"/><path class="cls-6" d="M105.57,91.1c0,1.33-.07,2.61,0,2.75.08.3.32,0,.32,0s.07-1.35.15-2.71A.8.8,0,0,0,105.57,91.1Z" transform="translate(-67.24 -37.55)"/><path class="cls-7" d="M105.42,91.19s0,0,0,0c0,1.21,0,2.32,0,2.44a.62.62,0,0,0,.29.39l0-2.93A.35.35,0,0,0,105.42,91.19Z" transform="translate(-67.24 -37.55)"/><path class="cls-9" d="M110.22,82.08c-.61-1.34-2.1-.26-2.1-.26l-3.5.64a5.4,5.4,0,0,0-.14,2.22,13.33,13.33,0,0,0,4.24.17C110.39,84.4,110.83,83.43,110.22,82.08Z" transform="translate(-67.24 -37.55)"/><path class="cls-9" d="M101.21,82.08c.6-1.34,2.1-.26,2.1-.26l3.49.64a5.58,5.58,0,0,1,.15,2.22,13.34,13.34,0,0,1-4.24.17C101,84.4,100.6,83.43,101.21,82.08Z" transform="translate(-67.24 -37.55)"/><path class="cls-4" d="M94,92.47a.54.54,0,0,0,1.06.21A.54.54,0,1,0,94,92.47Z" transform="translate(-67.24 -37.55)"/><path class="cls-5" d="M94.14,92.51a.37.37,0,1,0,.74.12.37.37,0,0,0-.43-.43A.38.38,0,0,0,94.14,92.51Z" transform="translate(-67.24 -37.55)"/><path class="cls-6" d="M89.62,89.7s-.12.58,0,.61,4.55,2.26,4.55,2.26.32-.07.12-.27S89.62,89.7,89.62,89.7Z" transform="translate(-67.24 -37.55)"/><path class="cls-7" d="M89.6,89.78l4.8,2.71a.55.55,0,0,0-.17-.41c-.19-.19-4.56-2.59-4.56-2.59Z" transform="translate(-67.24 -37.55)"/><rect class="cls-8" x="21.95" y="47.53" width="0.51" height="5.48" rx="0.21"/><path class="cls-6" d="M89.57,85.1a.22.22,0,0,0-.13.19v5a.24.24,0,0,0,.13.2.22.22,0,0,0,.13-.2v-5A.21.21,0,0,0,89.57,85.1Z" transform="translate(-67.24 -37.55)"/><path class="cls-4" d="M85,92.56a.55.55,0,0,1-.64.64.54.54,0,0,1,.21-1.06A.56.56,0,0,1,85,92.56Z" transform="translate(-67.24 -37.55)"/><path class="cls-5" d="M84.82,92.61a.38.38,0,0,1-.44.43.36.36,0,0,1-.31-.31.37.37,0,0,1,.43-.43A.38.38,0,0,1,84.82,92.61Z" transform="translate(-67.24 -37.55)"/><path class="cls-6" d="M89.34,89.8s.12.58,0,.61-4.55,2.26-4.55,2.26-.32-.07-.12-.28S89.34,89.8,89.34,89.8Z" transform="translate(-67.24 -37.55)"/><path class="cls-7" d="M89.35,89.87l-4.8,2.71a.57.57,0,0,1,.18-.4c.19-.19,4.56-2.6,4.56-2.6Z" transform="translate(-67.24 -37.55)"/><path class="cls-4" d="M89.68,92.36a.55.55,0,0,1,.23.87.55.55,0,0,1-.58.15.54.54,0,0,1-.23-.87A.54.54,0,0,1,89.68,92.36Z" transform="translate(-67.24 -37.55)"/><path class="cls-5" d="M89.63,92.53a.38.38,0,0,1,.16.59.39.39,0,0,1-.43.11.38.38,0,0,1-.16-.59A.39.39,0,0,1,89.63,92.53Z" transform="translate(-67.24 -37.55)"/><path class="cls-6" d="M89.37,90c0,1.23-.06,2.42,0,2.55s.3,0,.3,0,.07-1.25.15-2.51A.64.64,0,0,0,89.37,90Z" transform="translate(-67.24 -37.55)"/><path class="cls-7" d="M89.23,90.12h0c0,1.12,0,2.15,0,2.27a.55.55,0,0,0,.26.35l0-2.71A.32.32,0,0,0,89.23,90.12Z" transform="translate(-67.24 -37.55)"/><path class="cls-10" d="M85.3,84.48s4.23.49,5.84.49c4.12,0,4.62-.78,4-2s-4.61-.78-4.61-.78-4.72.89-4.77.82S84.77,83.76,85.3,84.48Z" transform="translate(-67.24 -37.55)"/><path class="cls-10" d="M87.2,72.89a27.49,27.49,0,0,0-3.46.15c-.35.16-.7.51-.7.81s1.3,7.32,1.4,7.39,1.18,1.81,1.57,1.87,6.89-.82,6.89-.82S91.7,77,91.35,76.17a23.66,23.66,0,0,1-.73-2.94A6.28,6.28,0,0,0,87.2,72.89Z" transform="translate(-67.24 -37.55)"/><path class="cls-11" d="M83.74,73A.8.8,0,0,1,84,73a1.54,1.54,0,0,1,.46.86c.06.49,1.26,6.5,1.44,7.61a12.58,12.58,0,0,1-1.44-.22c-.38-.06-.73-4.11-.84-4.18A25.61,25.61,0,0,1,83,73.85C83,73.55,83.39,73.2,83.74,73Z" transform="translate(-67.24 -37.55)"/><path class="cls-11" d="M95.38,83.91s-.53.47-2.71.46-5.65-.08-6.06-.46-1-3.9-1-3.9l-1.49.08s.44,4.08,1.23,4.39S94.84,85.8,95.38,83.91Z" transform="translate(-67.24 -37.55)"/><path class="cls-8" d="M88.71,85.58H90a.36.36,0,0,0,.36-.35h0a.36.36,0,0,0-.36-.35H88.71a.35.35,0,0,0-.35.35h0A.35.35,0,0,0,88.71,85.58Z" transform="translate(-67.24 -37.55)"/><path class="cls-4" d="M124,91.64a.54.54,0,0,1-.63.64.54.54,0,1,1,.21-1.06A.53.53,0,0,1,124,91.64Z" transform="translate(-67.24 -37.55)"/><path class="cls-5" d="M123.78,91.69a.37.37,0,0,1-.43.43.36.36,0,0,1-.31-.31.37.37,0,0,1,.43-.43A.36.36,0,0,1,123.78,91.69Z" transform="translate(-67.24 -37.55)"/><path class="cls-6" d="M128.31,88.88s.12.58-.06.61-4.54,2.26-4.54,2.26-.33-.07-.12-.28S128.31,88.88,128.31,88.88Z" transform="translate(-67.24 -37.55)"/><path class="cls-7" d="M128.32,89l-4.8,2.71a.53.53,0,0,1,.17-.4c.19-.19,4.56-2.6,4.56-2.6Z" transform="translate(-67.24 -37.55)"/><rect class="cls-8" x="60.98" y="46.7" width="0.51" height="5.48" rx="0.21"/><path class="cls-6" d="M128.35,84.27a.21.21,0,0,1,.13.2v5a.21.21,0,0,1-.13.19.22.22,0,0,1-.13-.19v-5A.22.22,0,0,1,128.35,84.27Z" transform="translate(-67.24 -37.55)"/><path class="cls-4" d="M132.94,91.74A.54.54,0,0,0,134,92a.54.54,0,1,0-1.06-.21Z" transform="translate(-67.24 -37.55)"/><path class="cls-5" d="M133.11,91.78a.38.38,0,0,0,.43.44.38.38,0,0,0,.31-.32.37.37,0,0,0-.43-.43A.38.38,0,0,0,133.11,91.78Z" transform="translate(-67.24 -37.55)"/><path class="cls-6" d="M128.58,89s-.12.58.06.61,4.54,2.26,4.54,2.26.33-.07.12-.27S128.58,89,128.58,89Z" transform="translate(-67.24 -37.55)"/><path class="cls-7" d="M128.57,89l4.8,2.72a.55.55,0,0,0-.17-.41c-.19-.19-4.56-2.59-4.56-2.59Z" transform="translate(-67.24 -37.55)"/><path class="cls-4" d="M128.25,91.53a.54.54,0,0,0-.23.87.53.53,0,0,0,.58.15.54.54,0,0,0-.35-1Z" transform="translate(-67.24 -37.55)"/><path class="cls-5" d="M128.29,91.7a.37.37,0,0,0-.15.59.36.36,0,0,0,.42.12.38.38,0,0,0,.16-.59A.38.38,0,0,0,128.29,91.7Z" transform="translate(-67.24 -37.55)"/><path class="cls-6" d="M128.55,89.21c0,1.23.06,2.42,0,2.55s-.3,0-.3,0l-.14-2.52A.75.75,0,0,1,128.55,89.21Z" transform="translate(-67.24 -37.55)"/><path class="cls-7" d="M128.69,89.3a0,0,0,0,0,0,0c0,1.12,0,2.15,0,2.26a.55.55,0,0,1-.26.36l0-2.72A.32.32,0,0,1,128.69,89.3Z" transform="translate(-67.24 -37.55)"/><path class="cls-12" d="M132.62,83.65s-4.22.49-5.83.5c-4.13,0-4.62-.78-4.06-2s4.61-.79,4.61-.79,4.72.9,4.78.83S133.15,82.94,132.62,83.65Z" transform="translate(-67.24 -37.55)"/><path class="cls-12" d="M130.72,72.06a27.49,27.49,0,0,1,3.46.15c.35.16.7.52.7.81s-1.29,7.33-1.4,7.4-1.18,1.8-1.57,1.87-6.89-.83-6.89-.83,1.21-5.26,1.55-6.12a23.66,23.66,0,0,0,.73-2.94A6.4,6.4,0,0,1,130.72,72.06Z" transform="translate(-67.24 -37.55)"/><path class="cls-13" d="M134.18,72.21a.73.73,0,0,0-.24,0,1.68,1.68,0,0,0-.46.86c0,.49-1.26,6.5-1.44,7.62a12.58,12.58,0,0,0,1.44-.22c.39-.07.74-4.11.84-4.18a24.07,24.07,0,0,0,.56-3.22C134.88,72.73,134.53,72.37,134.18,72.21Z" transform="translate(-67.24 -37.55)"/><path class="cls-13" d="M122.54,83.08s.53.48,2.71.47,5.66-.08,6.06-.47,1.05-3.9,1.05-3.9l1.5.08s-.44,4.08-1.24,4.39S123.08,85,122.54,83.08Z" transform="translate(-67.24 -37.55)"/><path class="cls-8" d="M129.21,84.76h-1.33a.35.35,0,0,1-.35-.35h0a.35.35,0,0,1,.35-.36h1.33a.36.36,0,0,1,.35.36h0A.35.35,0,0,1,129.21,84.76Z" transform="translate(-67.24 -37.55)"/><path class="cls-14" d="M86,73.84c.11,1,.21,2,.32,3a14.88,14.88,0,0,1,.18,3s0,.06,0,.06a2.41,2.41,0,0,1,.66.12,1.56,1.56,0,0,0,.57,0c.44-.06.88-.12,1.32-.21a4.57,4.57,0,0,0,2.19-1s0,0,0,0a14,14,0,0,1-.25-1.6,4.26,4.26,0,0,1,.17-1.42c.11-.47.22-.93.34-1.39.23-.93.48-1.86.78-2.77,0,0,0,0,0,0h0s0,0,0,0a5.9,5.9,0,0,0-1.45-.54,6.67,6.67,0,0,0-2.67-.12,5.23,5.23,0,0,0-1.34.37,1.58,1.58,0,0,0-.8.85,0,0,0,0,0,0,0h0s0,0,0,0A6.84,6.84,0,0,0,86,73.84Z" transform="translate(-67.24 -37.55)"/><path class="cls-15" d="M98.1,89.87h.05c.09,0,.5.14,1.11.35s1.06.88.87,1.21-1.13.29-1.83.21a5.87,5.87,0,0,1-1.45-.5h0L96.24,91a2.19,2.19,0,0,1,0-1.19C96.71,89.56,97.71,89.9,98.1,89.87Z" transform="translate(-67.24 -37.55)"/><path class="cls-15" d="M92,85.56l0,0c0,.09.25.46.51,1s.1,1.37-.27,1.46-1-.62-1.42-1.18a6.18,6.18,0,0,1-.64-1.4v0l-.3-.53c0-.11.75-.85.86-.81C91.3,84.33,91.74,85.29,92,85.56Z" transform="translate(-67.24 -37.55)"/><path class="cls-16" d="M89.9,71a.83.83,0,0,1,0,.15,1.21,1.21,0,0,1-.3.2,1.39,1.39,0,0,1-.49.07h0a.55.55,0,0,1-.27-.19c0-.25,0-.51,0-.74a4.62,4.62,0,0,0,0-.83c.54-.16,1.1-.29,1.62-.49l0,.17a5.59,5.59,0,0,0-.27,1C90,70.62,90,70.83,89.9,71Z" transform="translate(-67.24 -37.55)"/><path class="cls-17" d="M88,68.71c0-.35-.24-.77-.26-1.12a4.46,4.46,0,0,1,.37-1,3.27,3.27,0,0,1,.43-.73l.2-.17a2.2,2.2,0,0,1,.41-.1c.48.06.19.2.63,0,.68.31.73.36.94.62s.19-.17.43.18a.93.93,0,0,0,.21.23c0,.13.05.49.09.62s0,.2,0,.32,0,.48,0,.72,0,.61,0,.93c0,.14-.16.32-.19.46l0,0a2.25,2.25,0,0,1-1.32.94l-.23,0a1,1,0,0,1-1-.35,3.63,3.63,0,0,1-.64-1h0A2,2,0,0,0,88,69a.88.88,0,0,1,0-.28Z" transform="translate(-67.24 -37.55)"/><path class="cls-18" d="M86.58,81.33A1.74,1.74,0,0,0,87,82a1.65,1.65,0,0,0,.84.4,11.35,11.35,0,0,0,2.33.12c.42,0,.82,0,1.23,0s.76.09,1.13.1a1.83,1.83,0,0,0,.6.19,1,1,0,0,1,.46.18,2.4,2.4,0,0,1,.29.23h0v0h0a0,0,0,0,0,0,0c.09.21.22.42.32.64l.15.36a.2.2,0,0,1,0,.08l.18.81c.12.55.25,1.1.39,1.64s.29,1.09.45,1.63a9.79,9.79,0,0,1,.44,1.67h0v0s0,0,0,0a1.82,1.82,0,0,0,1-.11,3.73,3.73,0,0,0,1-.45,0,0,0,0,0,0,0l-.11-.24s0,0,0,0v.05c-.21-.54-.36-1.09-.52-1.63-.3-1-.58-2-.85-3L96.1,83.4c-.13-.48-.23-1-.38-1.43,0,0,0,0,0,0h0a3.11,3.11,0,0,0-.86-.91A7.37,7.37,0,0,0,92.43,80a9.08,9.08,0,0,0-1.38-.26,6.54,6.54,0,0,0-1.4,0l-2.71.12c-.1,0-.3,0-.37,0a.41.41,0,0,0,0,.19,2.36,2.36,0,0,0,0,.28A2.43,2.43,0,0,0,86.58,81.33Z" transform="translate(-67.24 -37.55)"/><path class="cls-19" d="M89.65,79.74h0c0,.09.2.08.29.09s.46,0,.69.07c.49.08,1,.18,1.46.3s.86.19,1.28.32a4.67,4.67,0,0,1,1.17.56l-.64.46a4.91,4.91,0,0,0-.63.47c-.19.18-.35.38-.55.56a14,14,0,0,1-1.26.92c-.23.15-.46.28-.69.42a.9.9,0,0,0-.37.38s0,0,0,0a4.65,4.65,0,0,0,.49.59,1.57,1.57,0,0,0,.52.36,1.62,1.62,0,0,0,.65.11h.13l0,0s0,0,0,0h0s0,0,0,0h0s0,0,0,0l.1-.12.12-.14a2.91,2.91,0,0,0,.45-.48,2.77,2.77,0,0,1,.56-.52c.4-.28.84-.52,1.27-.77h0c.39-.22.78-.44,1.19-.64a6.89,6.89,0,0,0,1-.53,1.66,1.66,0,0,0,.56-.88,1,1,0,0,0-.13-1,1.32,1.32,0,0,0-.54-.4,6.33,6.33,0,0,0-.75-.19l-.73-.17c-.51-.12-1-.23-1.54-.33s-1-.19-1.52-.25a6,6,0,0,0-.73-.08h-.17a.33.33,0,0,0-.22,0,.16.16,0,0,0-.1.08h0l-.26.15-.38.23a2.34,2.34,0,0,1-.83.35s0,0,0,0S89.62,79.74,89.65,79.74Z" transform="translate(-67.24 -37.55)"/><path class="cls-17" d="M92.2,77.4l-.07-.06a2.31,2.31,0,0,1-.24-.29l0-.06a.46.46,0,0,1,.11-.16,1.16,1.16,0,0,1,.29-.15l.26-.13a2.31,2.31,0,0,1,.56-.19l.11,0a.19.19,0,0,0,.31-.11c.11-.27,1.57-3.18,1.67-3.35s.41-.17.78-.22A4.85,4.85,0,0,0,97,72.22c.48-.59.43-.27.43-.27l-.31.45c.11-.09.36-.22.31,0s-.61.46-.65.56a7.53,7.53,0,0,1-1.12.54,27.05,27.05,0,0,1-1,2.84c-.77,2-1.74,1.39-2,1.3A1.62,1.62,0,0,1,92.2,77.4Z" transform="translate(-67.24 -37.55)"/><path class="cls-20" d="M88.87,66.57a2,2,0,0,1,.1,1,1.29,1.29,0,0,1-.39.46s-.11,0-.1-.17,0-.43-.26-.45-.32.16-.37.41a.67.67,0,0,0,.22.6.82.82,0,0,1,.2.36s0,.36-.13.39-.34-.32-.34-.41-.43-.18-.65-.78a1.71,1.71,0,0,1,.21-1.4c.12-.2,0-.7.3-.87s.38-.66,1.48-.91,2.33.7,2.65.48.38-.16.5-.11a.83.83,0,0,1-.09.93,3.22,3.22,0,0,1-.58.38,1,1,0,0,1,.27.38c0,.2,0,.78-.26.9l-.23.12s-.13-.81-.12-.92a1.67,1.67,0,0,0,0-.35s-.19-.2-.31-.13a3.49,3.49,0,0,1-1.68.18C88.91,66.49,88.87,66.57,88.87,66.57Z" transform="translate(-67.24 -37.55)"/><path class="cls-17" d="M90.87,79h0a1.48,1.48,0,0,0-.3.21.79.79,0,0,1-.27.1,1,1,0,0,1-.38,0s-.05,0-.07,0a.24.24,0,0,1,.09-.18,1.43,1.43,0,0,1,.21-.12.19.19,0,0,0,.1-.19.07.07,0,0,0,0,0l-.05,0a.4.4,0,0,1-.18.1l-.16,0a.56.56,0,0,0-.29.21.13.13,0,0,0,0,.07,19.55,19.55,0,0,0-2.95-1.6l-.23-.1c0,.38,0,.76,0,1.14a.16.16,0,0,1,0,.1c1,.4,2,.79,3,1.15a2.21,2.21,0,0,0,1.22.24c.07,0,.14,0,.17-.1a.5.5,0,0,0-.4,0,.5.5,0,0,1-.4-.09.58.58,0,0,0,.39,0,1.92,1.92,0,0,0,.36-.14s.09-.06.09-.1,0-.06-.07-.07a.35.35,0,0,0-.11,0,.74.74,0,0,1-.45.11,1.5,1.5,0,0,0,.42-.15.49.49,0,0,0,.27-.31,1.77,1.77,0,0,1-.76.32c.14-.11.34-.12.49-.22a.64.64,0,0,0,.15-.13l.19-.23S90.9,79,90.87,79Z" transform="translate(-67.24 -37.55)"/><path class="cls-21" d="M85.11,73.6a7.27,7.27,0,0,0-.73,2.21,3.32,3.32,0,0,0,.44,2.25,3.46,3.46,0,0,0,1.63,1.26,9.79,9.79,0,0,0,2,.5l.59-1.15-1-.49c-.5-.23-1-.47-1.48-.74a2,2,0,0,1-.5-.36,1,1,0,0,1-.19-.9,1,1,0,0,1,.24-.69c.17-.17.14-.55.17-.77s0-.54,0-.78c.06-.47.2-.89.26-1.37,0-.24.07-.48.11-.72s.17-.45-.09-.39-.66.74-.81,1A10.19,10.19,0,0,0,85.11,73.6Z" transform="translate(-67.24 -37.55)"/><path class="cls-21" d="M92.61,72.58c.12.87.23,1.74.34,2.6a2.07,2.07,0,0,0,.29,1,.13.13,0,0,0,.07.06s.1,0,.13-.06a1.82,1.82,0,0,0,.27-.54,16.63,16.63,0,0,1,1-2,1.93,1.93,0,0,1,.93.45l-.32.78c-.1.25-.2.5-.29.76A7.82,7.82,0,0,1,94.42,77a1.68,1.68,0,0,1-1.23.86,1.6,1.6,0,0,1-1.37-.76,4,4,0,0,1-.53-1.55.71.71,0,0,1,0-.25,1.53,1.53,0,0,1,.07-.29c.16-.87.5-1.66.65-2.52,0-.21.07-.42.1-.63s0-.44.24-.23A1.73,1.73,0,0,1,92.61,72.58Z" transform="translate(-67.24 -37.55)"/><path class="cls-22" d="M103,82.23a1.22,1.22,0,0,0,.6.07,6.33,6.33,0,0,1,.87,0c.33,0,.65.07,1,.12.94.14,2.16.25,2.83-.58a1.86,1.86,0,0,0,.31-1.47,11.85,11.85,0,0,0-.36-1.54h0s.07,0,0-.06l-.08,0,0-.07a0,0,0,0,0,0,0v0a7.39,7.39,0,0,0-2,.14,12.52,12.52,0,0,1-2.37,0c-.23,0-.55-.09-.73.11a1,1,0,0,0-.16.65c0,.35-.05.7-.07,1s-.07.67-.06,1A.55.55,0,0,0,103,82.23Z" transform="translate(-67.24 -37.55)"/><path class="cls-23" d="M101.73,71c.18.8.36,1.6.55,2.4l.3,1.23c0,.2.1.41.16.61a2.23,2.23,0,0,0,.16.56s0,0,0,0a7.78,7.78,0,0,0,0,2.1c0,.36.06.71.09,1.07a.61.61,0,0,0,.13.31s0,0,0,0a3.12,3.12,0,0,0,1.18.2l1.42,0a2.81,2.81,0,0,0,.65-.06c.23-.06.45-.15.68-.23l.63-.23a1.33,1.33,0,0,0,.45-.25h0s.06,0,0,0c-.14-.63-.34-1.26-.43-1.91a5.19,5.19,0,0,1,.17-1.71c.12-.55.23-1.11.31-1.67s.13-1.15.16-1.72a4.18,4.18,0,0,0,0-.79.49.49,0,0,0-.1-.27h0a0,0,0,1,0,0,0,2.43,2.43,0,0,0-.78-.28c-.33-.07-.66-.13-1-.18s-.65-.07-1-.09a7.53,7.53,0,0,0-1,0h0a7.78,7.78,0,0,0-1.36.26,7.35,7.35,0,0,0-1.51.54v0s-.06,0,0,0v0h0S101.71,71,101.73,71Z" transform="translate(-67.24 -37.55)"/><path class="cls-21" d="M105.71,92s0,.05,0,0v0l0,0a1,1,0,0,1,.6-.44,6.12,6.12,0,0,1,1-.18s0,0,0,0a.54.54,0,0,0,0-.22c.21-.94.4-1.88.57-2.83.3-1.76.52-3.55.66-5.34,0-.44.07-.89.08-1.33a3.35,3.35,0,0,0-.14-1.22c-.21-.57-.68-1-1.19-.86,0,0,0-.07,0-.06a2.23,2.23,0,0,0-.82,1.58,19.8,19.8,0,0,0-.19,2.31c0,.82,0,1.63,0,2.45s0,1.67-.08,2.5-.16,1.64-.26,2.45h0a.33.33,0,0,0,0,.24.68.68,0,0,1,0,.2.42.42,0,0,1-.09.19.65.65,0,0,0,0,.56Z" transform="translate(-67.24 -37.55)"/><path class="cls-21" d="M103,83.11c.07.93.16,1.86.26,2.79s.21,1.86.33,2.79.22,1.86.4,2.77h0a0,0,0,0,0,0,0c.36.07.62.37,1,.48.1,0,.27.07.33,0a.38.38,0,0,0,0-.15,3,3,0,0,0,0-.42h0l.09-2.85c.06-1.83.11-3.66.14-5.5a5.43,5.43,0,0,0-.3-2.37,1.93,1.93,0,0,0-.89-1,.6.6,0,0,0-.19-.06l-.13,0h0a.72.72,0,0,0-.29.06.4.4,0,0,1,.36-.08s0-.06,0-.07c-.31-.1-.55.21-.71.48a3.13,3.13,0,0,0-.33,1A9.22,9.22,0,0,0,103,83.11Z" transform="translate(-67.24 -37.55)"/><path class="cls-15" d="M105.6,92.75c0,.33.24.42.48.52a3.49,3.49,0,0,0,.84.23l.35,0a1,1,0,0,0,.39,0,.52.52,0,0,0,.25-.5,1.33,1.33,0,0,0-.09-.44,1.15,1.15,0,0,1-.07-.28c0-.07,0-.15,0-.23a.8.8,0,0,0-.37-.58,1,1,0,0,0-.63-.27c-.26,0-.4.2-.63.3a.7.7,0,0,0-.35.33s0,0,0,0A1.94,1.94,0,0,0,105.6,92.75Z" transform="translate(-67.24 -37.55)"/><path class="cls-15" d="M103.21,92.83a.49.49,0,0,0,.41.29,2.17,2.17,0,0,0,.67,0c.29,0,.85-.12.92-.54a.83.83,0,0,0-.2-.57,2.55,2.55,0,0,0-.47-.6c-.37-.29-.79,0-1.09.27v0a1.25,1.25,0,0,0-.2.44A.89.89,0,0,0,103.21,92.83Z" transform="translate(-67.24 -37.55)"/><path class="cls-24" d="M105.65,70.5a.94.94,0,0,0,0,.16,1.72,1.72,0,0,1-.31.24,1.4,1.4,0,0,1-.53.11h0a.57.57,0,0,1-.31-.18c0-.27-.06-.55-.08-.8a5.51,5.51,0,0,0-.1-.9c.57-.21,1.16-.4,1.72-.66,0,.07,0,.13,0,.19a6.59,6.59,0,0,0-.22,1.16C105.72,70.05,105.69,70.27,105.65,70.5Z" transform="translate(-67.24 -37.55)"/><path class="cls-17" d="M103.46,68.11c-.08-.36-.15-.72-.2-1.07a4.57,4.57,0,0,1,.16-1.16,2.79,2.79,0,0,1,.39-.77l.19-.2a2.35,2.35,0,0,1,.41-.13c.5,0,.21.19.65,0,.72.27.77.31,1,.56s.3-.15.58.19c0,.06.15.32.21.35s.09.19.14.32-.12.36-.08.48,0,.49,0,.74a7.56,7.56,0,0,1,0,1c0,.15-.13.34-.15.49l0,0a2.29,2.29,0,0,1-1.29,1.06l-.23,0a1.06,1.06,0,0,1-1-.28,3.53,3.53,0,0,1-.73-1h0a2.17,2.17,0,0,1-.07-.24,1,1,0,0,1,0-.29Z" transform="translate(-67.24 -37.55)"/><path class="cls-25" d="M102.41,66.4a2.29,2.29,0,0,1,0-.25,10.48,10.48,0,0,1,.14-1.35,1.37,1.37,0,0,1,.26-.37,1.21,1.21,0,0,1,.65-.29,4.16,4.16,0,0,0,.48-.22,3.22,3.22,0,0,1,.44-.14,3,3,0,0,1,.9-.05c.49.06,1.11.25,1.25.79h0a1.29,1.29,0,0,1,.63,1.29,1.17,1.17,0,0,0-.05.2c0,.11.08.21.11.31a1,1,0,0,1,.06.46,4.17,4.17,0,0,1-.09.51.82.82,0,0,1-.16.37v0s-.06.08-.08,0a3.06,3.06,0,0,1-.12-.85,4.1,4.1,0,0,0,0-.5.85.85,0,0,0-.24-.47c-.21-.22-.45-.46-.78-.36a3.06,3.06,0,0,1-.63.25.48.48,0,0,1-.26,0c-.1,0-.22-.15-.33-.15s-.21.22-.28.32a1.23,1.23,0,0,1-.26.25,1.08,1.08,0,0,1-.29.13l-.14,0a.67.67,0,0,0-.2,0c-.17.06-.13.34-.13.48a5.25,5.25,0,0,0,0,.56c0,.17.13.46,0,.63s-.3,0-.39-.09a2.13,2.13,0,0,1-.55-1.26C102.44,66.58,102.42,66.49,102.41,66.4Z" transform="translate(-67.24 -37.55)"/><path class="cls-26" d="M103.3,70.4a4,4,0,0,0-1,.23,1.51,1.51,0,0,0-.54.36h0l0,0a.71.71,0,0,0-.1.14A12,12,0,0,0,99.93,76l-.06.33a.29.29,0,0,1,.34.17,1.17,1.17,0,0,0,.58.52c.25,0,.42-.21.66-.29h0a9.4,9.4,0,0,1,.34-1.39,10.46,10.46,0,0,1,.63-1.25V74a2.18,2.18,0,0,0,.44-.71A4.91,4.91,0,0,0,103.3,72,4.66,4.66,0,0,0,103.3,70.4Z" transform="translate(-67.24 -37.55)"/><path class="cls-17" d="M110.75,78.89a4.54,4.54,0,0,1,0,1.22.82.82,0,0,1-.07.31.72.72,0,0,1-.19.24,4.1,4.1,0,0,1-.53.49.22.22,0,0,1-.13.06.21.21,0,0,1-.11,0c-.3-.16-.62-.37-.67-.71a1.11,1.11,0,0,1,.48-.89.48.48,0,0,1-.06-.31c0-.11.06-.21.07-.31a.2.2,0,0,1,0-.11l0,0a1.79,1.79,0,0,1,.44-.16A.75.75,0,0,1,110.75,78.89Z" transform="translate(-67.24 -37.55)"/><path class="cls-17" d="M103.93,74.36a4.5,4.5,0,0,1,.83-.91.9.9,0,0,1,.26-.17,1.1,1.1,0,0,1,.31,0q.36,0,.72,0a.34.34,0,0,1,.14,0,.22.22,0,0,1,0,.11,1.1,1.1,0,0,1,0,1,1.16,1.16,0,0,1-1,.3.46.46,0,0,1-.17.26c-.08.07-.19.1-.27.17a.24.24,0,0,1-.09.06h-.06a1.48,1.48,0,0,1-.42-.2A.75.75,0,0,1,103.93,74.36Z" transform="translate(-67.24 -37.55)"/><path class="cls-27" d="M108.33,70.63a1.46,1.46,0,0,1,.55.36h0l0,0,.1.14A12.19,12.19,0,0,1,110.74,76a8.8,8.8,0,0,1,.21,3,3,3,0,0,0-1.52,0,8.53,8.53,0,0,0-.24-2.25,8.15,8.15,0,0,0-.33-1.4,9.24,9.24,0,0,0-.64-1.25V74a2.33,2.33,0,0,1-.43-.71,4.91,4.91,0,0,1-.43-1.31,4.42,4.42,0,0,1,0-1.58A4,4,0,0,1,108.33,70.63Z" transform="translate(-67.24 -37.55)"/><polygon class="cls-28" points="39.55 32.79 39.55 32.78 39.55 32.77 39.55 32.79"/><path class="cls-29" d="M104.5,75.43s.06,0,.07-.05,0-.08,0-.13l-.2-1.47c0,.29-1.49.84-1.71.93a13.19,13.19,0,0,0-1.91.78c-.43.24-1.18.65-.8,1.22s1.22.25,1.77,0Q103.14,76.12,104.5,75.43Z" transform="translate(-67.24 -37.55)"/><path class="cls-15" d="M124.82,90.79h0c-.11,0-.57.23-1.24.57s-1.12,1.18-.85,1.53,1.37.18,2.17,0a6.39,6.39,0,0,0,1.62-.81h0l.67-.25a2.66,2.66,0,0,0-.18-1.39C126.4,90.22,125.29,90.76,124.82,90.79Z" transform="translate(-67.24 -37.55)"/><path class="cls-15" d="M121.31,91l0,0a13.49,13.49,0,0,0-1.25.54c-.78.38-1.13,1.1-.86,1.44s1.36.15,2.17,0a6.87,6.87,0,0,0,1.62-.76h0l.67-.25a2.31,2.31,0,0,0-.16-1.29C122.9,90.49,121.78,91,121.31,91Z" transform="translate(-67.24 -37.55)"/><path class="cls-30" d="M121.27,90.9c0-1.31-.14-2.63-.2-4s-.16-2.52-.19-3.79c0,0,0,0,0,0-.11-.35.29-.65.52-.84a6.49,6.49,0,0,1,1.14-.8c.43-.24.88-.42,1.32-.63.21-.11.43-.23.63-.36s.2-.14.3-.21a3.08,3.08,0,0,0,.41-1.35.93.93,0,0,1,.08-.44,1.37,1.37,0,0,1,.17-.17,3.11,3.11,0,0,1,.69-.44,3.49,3.49,0,0,1,.9-.17,15.28,15.28,0,0,1,2.14,0c.39,0,1.28.09,1.49.49a2.57,2.57,0,0,1,0,1c0,.33,0,.67,0,1,0,0,0,.11,0,.18a2.52,2.52,0,0,1-.83,1.8,4.49,4.49,0,0,1-2.09,1l-.21.12-.12.06c0,1.13-.14,2.26-.19,3.39s-.09,2.29-.09,3.44c0,0,0,0,0,0v.11s0,0,0,0a5.84,5.84,0,0,1-1.23.38,2.07,2.07,0,0,1-1.13-.07h0a0,0,0,0,1,0,0,15.72,15.72,0,0,0,0-2.17,12.32,12.32,0,0,1,.18-2.1l.3-2.23a5.61,5.61,0,0,1,.44-1.89,7.88,7.88,0,0,1-1.26.72,7.71,7.71,0,0,1-1.32.48c.57,2.29,0,4.7.66,7,0,0,0,0,0,0s0,0,0,0a4.11,4.11,0,0,1-1.3.58,1.3,1.3,0,0,1-1.12-.15A0,0,0,0,1,121.27,90.9Z" transform="translate(-67.24 -37.55)"/><path class="cls-9" d="M121.27,90.9c0-1.31-.14-2.63-.2-4s-.16-2.52-.19-3.79c0,0,0,0,0,0-.11-.35.29-.65.52-.84a6.49,6.49,0,0,1,1.14-.8c.43-.24.88-.42,1.32-.63.21-.11.43-.23.63-.36s.2-.14.3-.21a3.08,3.08,0,0,0,.41-1.35.93.93,0,0,1,.08-.44,1.37,1.37,0,0,1,.17-.17,3.11,3.11,0,0,1,.69-.44,3.49,3.49,0,0,1,.9-.17h.07a2.21,2.21,0,0,1,.08.79,5.91,5.91,0,0,1-.09,1.39A3.62,3.62,0,0,1,126,82c-.21.19-.43.34-.63.53a9.49,9.49,0,0,1-1,.54,7.71,7.71,0,0,1-1.32.48c.57,2.29,0,4.7.66,7,0,0,0,0,0,0s0,0,0,0a4.11,4.11,0,0,1-1.3.58,1.3,1.3,0,0,1-1.12-.15A0,0,0,0,1,121.27,90.9Z" transform="translate(-67.24 -37.55)"/><path class="cls-31" d="M124.81,69.28a.43.43,0,0,1,.24-.24,5.71,5.71,0,0,1,6.09.39l-.15-.06a1,1,0,0,1,.36.58,2.67,2.67,0,0,1-.07,1l-1.05,5.15a5.27,5.27,0,0,0-.14,1.11,2.72,2.72,0,0,0,.23,1l-2.43,0a6.76,6.76,0,0,1-2.5-.28,18.31,18.31,0,0,0-.55-8.57A.46.46,0,0,1,124.81,69.28Z" transform="translate(-67.24 -37.55)"/><path class="cls-17" d="M119.56,71.24h0a3.94,3.94,0,0,0-.19-1.13s0,0,0,0a.06.06,0,0,1,.07,0,.4.4,0,0,1,.2.24,3.22,3.22,0,0,1,.19.74.05.05,0,0,0,0-.05s0,0,0,0a3.43,3.43,0,0,0-.14-1,.22.22,0,0,1,0-.08s0,0,.06,0l0,0a1.48,1.48,0,0,1,.37,1s0,0,0,0,0,0,0,0a2.39,2.39,0,0,0-.09-.84.45.45,0,0,1,0-.16c0-.06.08-.1.13-.07l0,0a1.63,1.63,0,0,1,.3,1l0-1.07a.06.06,0,0,1,0,0s0,0,.07,0,.21.22.24.37a2.77,2.77,0,0,1,.07.7,1.63,1.63,0,0,1,.46,1.45l-.36.13a.87.87,0,0,1-.32.06.79.79,0,0,1-.22,0s0,0,0,0h0a7.1,7.1,0,0,0-.55-.8A1.56,1.56,0,0,1,119.56,71.24Z" transform="translate(-67.24 -37.55)"/><path class="cls-32" d="M127.59,69.68a3.85,3.85,0,0,1-.07,1.47,28.68,28.68,0,0,0-.21,5.16l.92,1,.43-1.08s-.53-2.91-.53-3.63.09-1.76,0-2.16-.1-.79-.1-.79Z" transform="translate(-67.24 -37.55)"/><path class="cls-33" d="M127.07,68.14a1.93,1.93,0,0,0-.43.88c-.07.47-.06.71.07.82s1.16-.36,1.16-.36l-.72-1.35Z" transform="translate(-67.24 -37.55)"/><path class="cls-33" d="M128.7,68.29c-.11-.05-.34,0-.34.12,0,.31-.43.67-.49.74l-.05.33c-.07.07.53,0,.62,0a1.48,1.48,0,0,0,.47.19.52.52,0,0,0,.3-.12s0-.11,0-.14l-.15-.69a.94.94,0,0,0-.25-.37Z" transform="translate(-67.24 -37.55)"/><path class="cls-34" d="M128.57,66.28l-.09,2.08s-.26.55-.5.67a.51.51,0,0,1-.75-.44c0-.51-.06-.79-.06-.79l1.21-1.65Z" transform="translate(-67.24 -37.55)"/><path class="cls-17" d="M129,66.29a2.35,2.35,0,0,1-1.36,1.58,1.38,1.38,0,0,1-1.82-.93,19.75,19.75,0,0,1-.16-2.62l.32-.06a.47.47,0,0,1,.38-.37.7.7,0,0,1,.58.2,15.49,15.49,0,0,0,1.7-.42c.07,0,.59,1.23.82,1.65S129,66.29,129,66.29Z" transform="translate(-67.24 -37.55)"/><path class="cls-35" d="M125.91,62.85a1.55,1.55,0,0,0,.12.79.78.78,0,0,0-.43.76c0,.31.08.61.08.92.18,0,.29-.2.36-.36a2.6,2.6,0,0,0,.18-1,3.71,3.71,0,0,0,1.47.41,1.55,1.55,0,0,0,.48,0c.22,0,.44-.19.64-.1s.24.37.18.59a.91.91,0,0,0-.05.46c0,.09.09.17.11.26a.57.57,0,0,1-.07.36.62.62,0,0,0-.07.37c0,.12.19.21.29.13s.07-.14.12-.2.18-.09.24-.17a.49.49,0,0,0,0-.27,1.46,1.46,0,0,1,.24-.58,1.7,1.7,0,0,0,.21-1,1.13,1.13,0,0,0-.56-.85.92.92,0,0,1-.21-.13.67.67,0,0,1-.14-.19,1.75,1.75,0,0,0-.54-.47,2.77,2.77,0,0,0-.65-.31,2.56,2.56,0,0,0-.62-.06,4.61,4.61,0,0,0-.53,0,1.23,1.23,0,0,1-.27,0c-.06,0-.11,0-.17,0C126.09,62.21,125.94,62.63,125.91,62.85Z" transform="translate(-67.24 -37.55)"/><path class="cls-36" d="M120.35,72.5a.21.21,0,0,0,0,.13s.06.06.08.08l.09.07h0s0,0,0,0,0,0,0,0l1.16,1c.36.3.71.63,1.09.91a1.48,1.48,0,0,0,1,.36.85.85,0,0,0,.55-.23h0l.18-.2h0l0,0a6.76,6.76,0,0,0,.58-1c.1-.22.2-.44.29-.66a.67.67,0,0,0,.08-.33h0a29.43,29.43,0,0,0-.66-3.34,0,0,0,0,0,0,0h0a5.79,5.79,0,0,0-.76,2c-.17.71-.32,1.44-.46,2.17-.37-.36-.81-.66-1.21-1l-1-.78-.17.19a2.31,2.31,0,0,1-.3.32l-.07.06A1.37,1.37,0,0,1,120.35,72.5Zm4.9.64c.06-.13.11-.26.16-.38,0,.1-.07.2-.12.3Z" transform="translate(-67.24 -37.55)"/><path class="cls-37" d="M129.41,77.54Z" transform="translate(-67.24 -37.55)"/><path class="cls-38" d="M129.1,72.26c0,1.63.14,3.25.07,4.87a5.82,5.82,0,0,1-.2,1.44l1.64.18A44.46,44.46,0,0,0,131,73c0-.34,0-.68,0-1,0-.7.18-1.4.2-2.11a.45.45,0,0,0,0-.23s0-.18-.06-.21a4,4,0,0,0-1.17-.66,6.18,6.18,0,0,0-.73-.23c-.35-.07-.13.3-.11.54A26.45,26.45,0,0,1,129.1,72.26Z" transform="translate(-67.24 -37.55)"/><path class="cls-17" d="M129.18,72.47a4.11,4.11,0,0,1-.25-.92c0-.27-.8-.92-1-1s-.52-.34-.56-.35-.11,0,0,.21a3.84,3.84,0,0,0,.43.56s-.61-.44-.7-.48-.14.12-.07.2l.5.51-.47-.39s-.25-.07-.25,0a3.55,3.55,0,0,0,.5.63l-.49-.36s-.17-.1-.11.07a1.45,1.45,0,0,0,.35.51c.11.11.53.44.53.44a1.9,1.9,0,0,0,.55,1.07A3.67,3.67,0,0,0,129.18,72.47Z" transform="translate(-67.24 -37.55)"/><path class="cls-38" d="M126.7,69.35c0,1.5,0,3,.1,4.5a20.26,20.26,0,0,1,0,4.47,7.82,7.82,0,0,1-1.73.23,3,3,0,0,0,.1-.5,35.7,35.7,0,0,0-.16-7.76,7.63,7.63,0,0,1-.18-1.15c0-.12.81-.45.93-.5a2.14,2.14,0,0,1,1-.22C126.79,68.73,126.71,69,126.7,69.35Z" transform="translate(-67.24 -37.55)"/><path class="cls-39" d="M128.34,73.24s0,0,0,0h0l-.21-.15c.2-.17.39-.35.58-.53s.32-.42.46-.29-.07.36-.21.49S128.53,73.09,128.34,73.24Z" transform="translate(-67.24 -37.55)"/><path class="cls-36" d="M128.2,73.18l.16-.23a1.26,1.26,0,0,0,.26-.12c.12-.08.43-.32.48-.53l.34.31.75.54c.44.31.9.61,1.31,1v0c-.11-.22-.22-.45-.34-.67s-.31-.6-.45-.91a0,0,0,0,1,0,0l0,0,0-.12h0c0-.23.09-.46.12-.69s.07-.46.1-.69c.06-.47.11-.94.14-1.41v0h0a0,0,0,0,1,0,0v0a3.71,3.71,0,0,1,1.14,2.18c.31,1,.61,2,.83,3h0c0,.06,0,.11,0,.16s0,0,0,0a1.48,1.48,0,0,1-.05.51.63.63,0,0,1-.57.59.86.86,0,0,1-.23.05s0,0,0,0a2.14,2.14,0,0,1-.62-.13,1.34,1.34,0,0,1-.3-.12h-.05l-.21-.11-.1-.07a6.71,6.71,0,0,1-1.05-.79,7.07,7.07,0,0,0-.78-.67l-.17-.18h0l0,0-.53-.51v0l-.15-.12S128.19,73.19,128.2,73.18Z" transform="translate(-67.24 -37.55)"/><path class="cls-39" d="M121.2,71.57s0,0,0,0c-.16.13-.29.31-.44.46a2.94,2.94,0,0,1-.47.31.62.62,0,0,0,.12.19,5.58,5.58,0,0,0,.78-.57c.06,0,.17-.14.17-.23S121.26,71.57,121.2,71.57Z" transform="translate(-67.24 -37.55)"/><path class="cls-40" d="M127.37,69.18l.18.48a1.62,1.62,0,0,0,.55,0c.16-.07.18-.47.18-.47L128,69l-.42.06Z" transform="translate(-67.24 -37.55)"/><path class="cls-10" d="M126,78.29a.13.13,0,0,0,.13.13h3.18a.13.13,0,0,0,.14-.13h0a.14.14,0,0,0-.14-.14h-3.18a.13.13,0,0,0-.13.14Z" transform="translate(-67.24 -37.55)"/><path class="cls-10" d="M118.62,74.21l6,.05a.53.53,0,0,1,.47.31l1.39,3.54c.07.18,0,.31-.24.31l-6,0a.55.55,0,0,1-.48-.31l-1.38-3.55C118.32,74.35,118.43,74.21,118.62,74.21Z" transform="translate(-67.24 -37.55)"/><path class="cls-41" d="M118.53,74.21l6,.05a.55.55,0,0,1,.48.31l1.38,3.54c.07.18,0,.31-.23.31l-6,0a.55.55,0,0,1-.48-.31l-1.38-3.55C118.23,74.35,118.33,74.21,118.53,74.21Z" transform="translate(-67.24 -37.55)"/><path class="cls-10" d="M93.91,78.24a.12.12,0,0,1-.12.12H90.9a.13.13,0,0,1-.12-.12h0a.13.13,0,0,1,.12-.13h2.89a.12.12,0,0,1,.12.13Z" transform="translate(-67.24 -37.55)"/><path class="cls-10" d="M100.59,74.54l-5.46,0a.49.49,0,0,0-.43.28l-1.26,3.22c-.06.15,0,.28.21.28l5.46,0a.49.49,0,0,0,.43-.28l1.26-3.22C100.86,74.66,100.76,74.54,100.59,74.54Z" transform="translate(-67.24 -37.55)"/><path class="cls-41" d="M100.67,74.54l-5.46,0a.51.51,0,0,0-.43.28l-1.26,3.22c-.06.15,0,.28.22.28l5.45,0a.51.51,0,0,0,.44-.28l1.25-3.22C100.94,74.66,100.85,74.54,100.67,74.54Z" transform="translate(-67.24 -37.55)"/><rect class="cls-42" x="17.2" y="40.83" width="52.43" height="1.08"/><rect class="cls-43" x="56.89" y="40.83" width="12.73" height="1.08"/><rect class="cls-44" x="17.2" y="40.83" width="12.73" height="1.08"/><polyline class="cls-45" points="54.09 57.17 53.81 57.17 57.6 41.84 57.98 41.92 54.09 57.17"/><polygon class="cls-46" points="57.98 41.92 54.09 57.17 59.13 41.92 57.98 41.92"/><polyline class="cls-45" points="68.36 57.21 68.64 57.21 64.85 41.88 64.47 41.96 68.36 57.21"/><polygon class="cls-46" points="64.47 41.96 68.36 57.21 63.32 41.96 64.47 41.96"/><polyline class="cls-45" points="16.14 57.12 15.86 57.12 19.65 41.79 20.03 41.87 16.14 57.12"/><polygon class="cls-46" points="20.03 41.87 16.14 57.12 21.18 41.87 20.03 41.87"/><polyline class="cls-45" points="30.41 57.16 30.69 57.16 26.9 41.83 26.51 41.91 30.41 57.16"/><polygon class="cls-46" points="26.51 41.91 30.41 57.16 25.37 41.91 26.51 41.91"/><path class="cls-10" d="M115.6,70.61l-8.95.06a.72.72,0,0,0-.65.47l-1.38,5.28a.37.37,0,0,0,.41.46l9-.06a.69.69,0,0,0,.65-.47L116,71.07A.38.38,0,0,0,115.6,70.61Z" transform="translate(-67.24 -37.55)"/><path class="cls-47" d="M115.74,70.61h-.29a.36.36,0,0,1,.35.46l-1.37,5.28a.69.69,0,0,1-.65.47l-8.66.06h0l9-.06a.69.69,0,0,0,.65-.47l1.38-5.28A.38.38,0,0,0,115.74,70.61Z" transform="translate(-67.24 -37.55)"/><path class="cls-41" d="M114.43,76.35l1.37-5.28a.36.36,0,0,0-.35-.46l-8.66.06a.72.72,0,0,0-.65.47l-1.38,5.28a.37.37,0,0,0,.36.46l8.66-.06A.69.69,0,0,0,114.43,76.35Z" transform="translate(-67.24 -37.55)"/><path class="cls-47" d="M109.49,74.44h2.16a.14.14,0,0,1,.15.11h0a.14.14,0,0,1-.15.14l-2.15,0a.15.15,0,0,1-.15-.1v0C109.32,74.52,109.4,74.44,109.49,74.44Z" transform="translate(-67.24 -37.55)"/><path class="cls-8" d="M109.49,74.52h2.16a.14.14,0,0,1,.15.1h0c0,.08-.06.14-.15.14l-2.15,0a.15.15,0,0,1-.15-.09v0C109.32,74.6,109.4,74.52,109.49,74.52Z" transform="translate(-67.24 -37.55)"/><path class="cls-8" d="M113.47,78.3h-4.24a.16.16,0,0,1-.16-.16h0a.16.16,0,0,1,.16-.16h4.24a.16.16,0,0,1,.16.16h0A.16.16,0,0,1,113.47,78.3Z" transform="translate(-67.24 -37.55)"/><path class="cls-10" d="M109.55,74.58l.79,3.5a0,0,0,0,0,0,0h.23a.05.05,0,0,0,0-.07l-.87-3.49s0,0,0,0h-.15A.05.05,0,0,0,109.55,74.58Z" transform="translate(-67.24 -37.55)"/><path class="cls-48" d="M109.7,74.58l.84,3.5a.07.07,0,0,0,.06,0h0a.05.05,0,0,0,0-.07l-.87-3.49s0,0,0,0h0A0,0,0,0,0,109.7,74.58Z" transform="translate(-67.24 -37.55)"/><path class="cls-10" d="M111.37,74.58l.78,3.5a.07.07,0,0,0,.06,0h.23a.05.05,0,0,0,0-.07l-.87-3.49a.05.05,0,0,0-.05,0h-.15A0,0,0,0,0,111.37,74.58Z" transform="translate(-67.24 -37.55)"/><path class="cls-48" d="M111.51,74.58l.85,3.5a.07.07,0,0,0,0,0h0a.05.05,0,0,0,0-.07l-.87-3.49a.05.05,0,0,0-.05,0h0A.06.06,0,0,0,111.51,74.58Z" transform="translate(-67.24 -37.55)"/><path class="cls-10" d="M108.13,78.3h-4a.08.08,0,0,1-.08-.08h0a.08.08,0,0,1,.08-.08h4a.08.08,0,0,1,.08.08h0A.08.08,0,0,1,108.13,78.3Z" transform="translate(-67.24 -37.55)"/><path class="cls-1" d="M129,46.61c.14-3.64-10.26-6-11.77-2a2,2,0,0,0,0,1.38C118.41,49.66,128.8,50.68,129,46.61Z" transform="translate(-67.24 -37.55)"/></svg>