<svg class="home__img" xmlns="http://www.w3.org/2000/svg" xmlns:xlink="http://www.w3.org/1999/xlink" viewBox="0 0 181.54 151.01"><defs><style>.cls-1{isolation:isolate;}.cls-2{fill:url(#linear-gradient);}.cls-11,.cls-3{fill:#fff;}.cls-3{opacity:0.26;}.cls-4{fill:#ecbadb;}.cls-5{fill:#ffd3f7;}.cls-6{fill:#f1c1e4;}.cls-7{fill:#ffdfff;}.cls-8{fill:#9066ff;}.cls-50,.cls-9{fill:#29abe2;}.cls-10{fill:url(#linear-gradient-2);}.cls-12{fill:url(#linear-gradient-3);}.cls-13{fill:url(#linear-gradient-4);}.cls-14{fill:url(#linear-gradient-5);}.cls-15{fill:#454294;}.cls-16{fill:#efd875;}.cls-17{fill:url(#linear-gradient-6);}.cls-18{fill:url(#linear-gradient-7);}.cls-19{fill:#ff7e22;}.cls-20{fill:url(#linear-gradient-8);}.cls-21{fill:url(#linear-gradient-9);}.cls-22{fill:#6161db;}.cls-23{fill:#f1f0fe;}.cls-24{fill:#0d3570;}.cls-24,.cls-50{opacity:0.52;}.cls-25,.cls-26{fill:#6e71fc;}.cls-25{opacity:0.69;}.cls-27{fill:#fffefd;}.cls-28{fill:#252da2;}.cls-29{fill:url(#New_Gradient_Swatch_4);}.cls-30{fill:url(#New_Gradient_Swatch_3);}.cls-31{fill:url(#New_Gradient_Swatch_3-2);}.cls-32{fill:#566355;}.cls-33{fill:url(#New_Gradient_Swatch_5);}.cls-34{fill:#ffb176;}.cls-35{fill:#7c8b81;}.cls-36{fill:url(#New_Gradient_Swatch_4-2);}.cls-37{fill:#964a24;}.cls-38{fill:url(#linear-gradient-10);}.cls-39{fill:url(#linear-gradient-11);}.cls-40{fill:url(#linear-gradient-12);}.cls-41{fill:url(#linear-gradient-13);}.cls-42{fill:#4e2077;}.cls-43{fill:url(#linear-gradient-14);}.cls-44{fill:#2e3192;}.cls-45{fill:#b9e5fb;}.cls-46,.cls-47,.cls-48,.cls-49{mix-blend-mode:screen;opacity:0.71;}.cls-46{fill:url(#linear-gradient-15);}.cls-47{fill:url(#linear-gradient-16);}.cls-48{fill:url(#linear-gradient-17);}.cls-49{fill:url(#linear-gradient-18);}.cls-51{fill:url(#linear-gradient-19);}.cls-52{fill:url(#linear-gradient-20);}.cls-53{fill:url(#linear-gradient-21);}.cls-54{fill:url(#linear-gradient-22);}.cls-55{fill:url(#linear-gradient-23);}.cls-56{fill:url(#linear-gradient-24);}.cls-57{fill:#c541cb;}.cls-58{fill:#f266d4;}.cls-59{fill:#ff862c;}.cls-60{opacity:0.43;}.cls-61{fill:#fcee21;}.cls-62{fill:#f15a24;}.cls-62,.cls-63{opacity:0.37;}.cls-63{fill:#ce2c00;}.cls-64{fill:#4d4d4d;}.cls-65{fill:#999;}.cls-66{fill:url(#New_Gradient_Swatch_3-3);}.cls-67{fill:#754c24;}.cls-68{fill:url(#New_Gradient_Swatch_5-2);}.cls-69{fill:url(#linear-gradient-25);}.cls-70{fill:#ad1e7e;}.cls-71{fill:url(#linear-gradient-26);}.cls-72{fill:#603813;}.cls-73{fill:url(#linear-gradient-27);}.cls-74{fill:url(#linear-gradient-28);}.cls-75{fill:url(#New_Gradient_Swatch_4-3);}.cls-76{fill:url(#linear-gradient-29);}.cls-77{fill:url(#linear-gradient-30);}.cls-78{fill:url(#linear-gradient-31);}.cls-79{fill:url(#New_Gradient_Swatch_5-3);}.cls-80{fill:#848484;}.cls-81{fill:url(#New_Gradient_Swatch_4-4);}.cls-82{fill:#b7b7b7;}</style><linearGradient id="linear-gradient" x1="107.21" y1="144.35" x2="110.98" y2="88.5" gradientUnits="userSpaceOnUse"><stop offset="0" stop-color="#ccedff"/><stop offset="1" stop-color="#89c7ff"/></linearGradient><linearGradient id="linear-gradient-2" x1="72.7" y1="147.91" x2="79" y2="112.33" xlink:href="#linear-gradient"/><linearGradient id="linear-gradient-3" x1="-13611.02" y1="104.19" x2="-13578.77" y2="104.19" gradientTransform="matrix(-1, 0, 0, 1, -13546.91, 0)" gradientUnits="userSpaceOnUse"><stop offset="0.02" stop-color="#08f4d4"/><stop offset="0.32" stop-color="#09f2d4"/><stop offset="0.48" stop-color="#0bead4"/><stop offset="0.61" stop-color="#0fdcd4"/><stop offset="0.72" stop-color="#16c9d4"/><stop offset="0.82" stop-color="#1db0d4"/><stop offset="0.91" stop-color="#2791d4"/><stop offset="1" stop-color="#326ed4"/></linearGradient><linearGradient id="linear-gradient-4" x1="-13585.45" y1="107.89" x2="-13567.99" y2="107.89" xlink:href="#linear-gradient-3"/><linearGradient id="linear-gradient-5" x1="-13584.2" y1="83.37" x2="-13584.04" y2="97.22" xlink:href="#linear-gradient-3"/><linearGradient id="linear-gradient-6" x1="75.87" y1="31.69" x2="75.87" y2="47.51" gradientUnits="userSpaceOnUse"><stop offset="0.02" stop-color="#fcee21"/><stop offset="0.31" stop-color="#fcec21"/><stop offset="0.47" stop-color="#fbe421"/><stop offset="0.59" stop-color="#fad621"/><stop offset="0.7" stop-color="#f9c322"/><stop offset="0.8" stop-color="#f7aa22"/><stop offset="0.89" stop-color="#f58b23"/><stop offset="0.97" stop-color="#f26724"/><stop offset="1" stop-color="#f15a24"/></linearGradient><linearGradient id="linear-gradient-7" x1="139.17" y1="52.79" x2="171.6" y2="52.79" gradientTransform="matrix(1, 0, 0, 1, 0, 0)" xlink:href="#linear-gradient-3"/><linearGradient id="linear-gradient-8" x1="93.79" y1="101.09" x2="93.79" y2="97.77" gradientUnits="userSpaceOnUse"><stop offset="0.01" stop-color="#507de7"/><stop offset="1"/></linearGradient><linearGradient id="linear-gradient-9" x1="93.79" y1="108.96" x2="93.79" y2="106.83" gradientUnits="userSpaceOnUse"><stop offset="0.03" stop-color="#3466c0"/><stop offset="1"/></linearGradient><linearGradient id="New_Gradient_Swatch_4" x1="27.9" y1="448.97" x2="25.49" y2="451.01" gradientTransform="translate(-39.55 -383.05) rotate(-10.09)" gradientUnits="userSpaceOnUse"><stop offset="0" stop-color="#ffb176"/><stop offset="1" stop-color="#a67c52"/></linearGradient><linearGradient id="New_Gradient_Swatch_3" x1="-26.62" y1="761.89" x2="-30.64" y2="760.02" gradientTransform="translate(-140.23 -660.1) rotate(-17.22)" gradientUnits="userSpaceOnUse"><stop offset="0" stop-color="#29abe2"/><stop offset="1" stop-color="#1b1464"/></linearGradient><linearGradient id="New_Gradient_Swatch_3-2" x1="60.72" y1="75.76" x2="57.37" y2="75.76" gradientTransform="matrix(1, 0, 0, 1, 0, 0)" xlink:href="#New_Gradient_Swatch_3"/><linearGradient id="New_Gradient_Swatch_5" x1="55.89" y1="155.59" x2="57.48" y2="155.59" gradientTransform="translate(-3.6 -99.82) rotate(-2.6)" gradientUnits="userSpaceOnUse"><stop offset="0" stop-color="#ea9957"/><stop offset="0.97" stop-color="#a97c50"/></linearGradient><linearGradient id="New_Gradient_Swatch_4-2" x1="60.62" y1="164.3" x2="58.1" y2="166.43" gradientTransform="translate(-3.6 -99.82) rotate(-2.6)" xlink:href="#New_Gradient_Swatch_4"/><linearGradient id="linear-gradient-10" x1="97.61" y1="37.63" x2="107.22" y2="37.63" gradientUnits="userSpaceOnUse"><stop offset="0.02" stop-color="#ffbf4d"/><stop offset="1" stop-color="#ce363f"/></linearGradient><linearGradient id="linear-gradient-11" x1="128.18" y1="47.19" x2="123.41" y2="33.61" xlink:href="#linear-gradient-10"/><linearGradient id="linear-gradient-12" x1="114.42" y1="10.05" x2="114.24" y2="46.82" gradientUnits="userSpaceOnUse"><stop offset="0.02" stop-color="#662d91"/><stop offset="1" stop-color="#29abe2"/></linearGradient><linearGradient id="linear-gradient-13" x1="113.8" y1="16.32" x2="115.04" y2="30.27" gradientUnits="userSpaceOnUse"><stop offset="0.02" stop-color="#7ed3f7"/><stop offset="1" stop-color="#0071bc"/></linearGradient><linearGradient id="linear-gradient-14" x1="108.08" y1="8.64" x2="120.59" y2="8.64" xlink:href="#linear-gradient-10"/><linearGradient id="linear-gradient-15" x1="113.11" y1="46.36" x2="110.59" y2="16.37" gradientUnits="userSpaceOnUse"><stop offset="0.02" stop-color="#b9e5fb"/><stop offset="1"/></linearGradient><linearGradient id="linear-gradient-16" x1="108.9" y1="14.91" x2="111.84" y2="8.52" xlink:href="#linear-gradient-15"/><linearGradient id="linear-gradient-17" x1="96.21" y1="48.5" x2="101.58" y2="36.83" xlink:href="#linear-gradient-15"/><linearGradient id="linear-gradient-18" x1="-3860.51" y1="48.5" x2="-3855.14" y2="36.83" gradientTransform="matrix(-1, 0, 0, 1, -3728.05, 0)" xlink:href="#linear-gradient-15"/><linearGradient id="linear-gradient-19" x1="-5911.53" y1="101.49" x2="-5921.61" y2="124.73" gradientTransform="matrix(-1, 0, 0, 1, -5863.69, 0)" gradientUnits="userSpaceOnUse"><stop offset="0.02" stop-color="#dbbbf0"/><stop offset="0.31" stop-color="#dbb9f0"/><stop offset="0.47" stop-color="#dab1f0"/><stop offset="0.59" stop-color="#d9a3f0"/><stop offset="0.7" stop-color="#d890f1"/><stop offset="0.8" stop-color="#d677f1"/><stop offset="0.89" stop-color="#d458f2"/><stop offset="0.97" stop-color="#d134f3"/><stop offset="1" stop-color="#d027f3"/></linearGradient><linearGradient id="linear-gradient-20" x1="-5948.89" y1="108.78" x2="-5954.7" y2="118.2" xlink:href="#linear-gradient-19"/><linearGradient id="linear-gradient-21" x1="-5943.7" y1="102.76" x2="-5940.09" y2="102.76" xlink:href="#linear-gradient-19"/><linearGradient id="linear-gradient-22" x1="-5923.55" y1="96.27" x2="-5933.63" y2="119.52" xlink:href="#linear-gradient-19"/><linearGradient id="linear-gradient-23" x1="-5938.11" y1="103.72" x2="-5944.77" y2="117.14" xlink:href="#linear-gradient-19"/><linearGradient id="linear-gradient-24" x1="-5962.09" y1="116.11" x2="-5959.46" y2="116.11" xlink:href="#linear-gradient-19"/><linearGradient id="New_Gradient_Swatch_3-3" x1="90.3" y1="103.3" x2="91.67" y2="108.21" gradientTransform="matrix(1, 0, 0, 1, -6.22, -1.45)" xlink:href="#New_Gradient_Swatch_3"/><linearGradient id="New_Gradient_Swatch_5-2" x1="-9116.25" y1="1778.6" x2="-9116.4" y2="1776.17" gradientTransform="matrix(-0.99, 0.11, 0.11, 0.99, -9164.45, -620.42)" xlink:href="#New_Gradient_Swatch_5"/><linearGradient id="linear-gradient-25" x1="96.98" y1="119.87" x2="95.22" y2="103.99" gradientUnits="userSpaceOnUse"><stop offset="0" stop-color="#bd00b5"/><stop offset="0.99" stop-color="#69f0ff"/></linearGradient><linearGradient id="linear-gradient-26" x1="97.97" y1="105.26" x2="104.96" y2="105.26" xlink:href="#linear-gradient-25"/><linearGradient id="linear-gradient-27" x1="6822.56" y1="-1143.84" x2="6833.48" y2="-1142.63" gradientTransform="translate(-6761.49 69.74) rotate(9.8)" gradientUnits="userSpaceOnUse"><stop offset="0" stop-color="gray"/><stop offset="1" stop-color="#333"/></linearGradient><linearGradient id="linear-gradient-28" x1="5910.23" y1="105.92" x2="5921.15" y2="107.14" gradientTransform="translate(-5750.37)" xlink:href="#linear-gradient-27"/><linearGradient id="New_Gradient_Swatch_4-3" x1="5910" y1="93.83" x2="5910.46" y2="94.89" gradientTransform="translate(-5750.37)" xlink:href="#New_Gradient_Swatch_4"/><linearGradient id="linear-gradient-29" x1="164.21" y1="92.53" x2="172.62" y2="92.53" gradientUnits="userSpaceOnUse"><stop offset="0" stop-color="#ff0092"/><stop offset="0.99" stop-color="#79007c"/></linearGradient><linearGradient id="linear-gradient-30" x1="170.25" y1="90.3" x2="173.71" y2="90.3" xlink:href="#linear-gradient-29"/><linearGradient id="linear-gradient-31" x1="161.82" y1="90.21" x2="165.61" y2="90.21" xlink:href="#linear-gradient-29"/><linearGradient id="New_Gradient_Swatch_5-3" x1="5918.51" y1="85.22" x2="5918.13" y2="83.84" gradientTransform="translate(-5750.37)" xlink:href="#New_Gradient_Swatch_5"/><linearGradient id="New_Gradient_Swatch_4-4" x1="5923.76" y1="-591.16" x2="5924.58" y2="-589.26" gradientTransform="translate(-5783.72 228.53) rotate(4.43)" xlink:href="#New_Gradient_Swatch_4"/></defs><g class="cls-1"><g id="Layer_1" data-name="Layer 1"><path class="cls-2" d="M21.22,116.52A4.07,4.07,0,0,0,24.35,118a28.59,28.59,0,0,1,5.18.94c1.59.48,3.53,1.08,4.68,2.49,1.29,1.58.65,3.53.23,5.34a6.09,6.09,0,0,0,.14,4,6.16,6.16,0,0,0,2.28,2.51c2.37,1.58,5.28,2,8,2.41,7.26,1.11,14.62.8,21.92.62s14.75-.35,21.88,1.44c2.78.7,5.92,2.18,6.42,5.71.23,1.67,0,3.37.55,5a7,7,0,0,0,1.81,2.83,12.44,12.44,0,0,0,6.44,2.92,55.43,55.43,0,0,0,9.54.64c7.54.12,15.41,1.17,22.87,0a13.62,13.62,0,0,0,7.56-4.59c2-2.26,2.05-5.66,3.06-8.46,2.37-6.6,9.82-7,15.24-7.43q5.76-.45,11.54-.65c3.39-.12,7.08.25,10.35-1a7.54,7.54,0,0,0,5-6.12c.15-1.57-.48-2.92-.89-4.37-.56-2,0-3.7,1.74-4.61,2.23-1.16,4.91-.78,6.91-2.59a3.34,3.34,0,0,0,1.05-3.26H21.45A4.49,4.49,0,0,0,21.22,116.52Z" transform="translate(-20.65 -4.38)"/><path class="cls-3" d="M179.47,111.82l.21.3a9.64,9.64,0,0,1,.53,9.14c-1.86,3.88-6.18,6-10.42,6.76s-8.6.25-12.9.36c-6,.17-12.54,1.79-16.2,6.59-2.42,3.16-3.26,7.28-5.51,10.57-4.16,6.05-12.22,8.06-19.56,8.06-3.65,0-7.48-.33-10.89.75a62.73,62.73,0,0,0,8.65.49c7.54.12,15.41,1.17,22.87,0a13.62,13.62,0,0,0,7.56-4.59c2-2.26,2.05-5.66,3.06-8.46,2.37-6.6,9.82-7,15.24-7.43q5.76-.45,11.54-.65c3.39-.12,7.08.25,10.35-1a7.54,7.54,0,0,0,5-6.12c.15-1.57-.48-2.92-.89-4.37-.56-2,0-3.7,1.74-4.61,2.23-1.16,4.91-.78,6.91-2.59a3.34,3.34,0,0,0,1.05-3.26Z" transform="translate(-20.65 -4.38)"/><path class="cls-4" d="M160.88,106.76c0,.1-.11.19-.15.29a15.23,15.23,0,0,0-1.64,6.8c0,.05,0,.1,0,.15v.16h-6.3V114a7.12,7.12,0,0,1,6.82-7.37A6.69,6.69,0,0,1,160.88,106.76Z" transform="translate(-20.65 -4.38)"/><path class="cls-5" d="M193.26,109.86a4.08,4.08,0,0,0-3.34,4h-.3a4.57,4.57,0,0,1,1.72-3.49,4.07,4.07,0,0,1,1.79-.79C193.18,109.67,193.22,109.77,193.26,109.86Z" transform="translate(-20.65 -4.38)"/><path class="cls-5" d="M189.62,113.85a.76.76,0,0,0,0,.15v.16H186V114s0-.1,0-.15Z" transform="translate(-20.65 -4.38)"/><path class="cls-5" d="M181.63,103.75a10.52,10.52,0,0,0-7.23,10.1h-.31a10.86,10.86,0,0,1,7.3-10.35Z" transform="translate(-20.65 -4.38)"/><path class="cls-5" d="M194.34,114v.16h-4.73V114a.76.76,0,0,1,0-.15h4.72Z" transform="translate(-20.65 -4.38)"/><path class="cls-5" d="M197.93,114v.16h-3.59v-.31h-4.42a4.08,4.08,0,0,1,3.34-4l.32,0c0-.1-.08-.2-.13-.3l.32,0A4.35,4.35,0,0,1,197.93,114Z" transform="translate(-20.65 -4.38)"/><path class="cls-5" d="M193.58,109.83l-.32,0c0-.09-.08-.19-.13-.29l.32,0C193.5,109.63,193.54,109.73,193.58,109.83Z" transform="translate(-20.65 -4.38)"/><path class="cls-5" d="M161,107.11a15.11,15.11,0,0,0-1.65,6.74h-.3a15.23,15.23,0,0,1,1.64-6.8Z" transform="translate(-20.65 -4.38)"/><path class="cls-5" d="M174.09,113.85v.31h-7.66v-.31Z" transform="translate(-20.65 -4.38)"/><path class="cls-5" d="M161.19,106.83l-.15.28-.31-.06c0-.1.1-.19.15-.29Z" transform="translate(-20.65 -4.38)"/><path class="cls-5" d="M166.43,114v.16h-7.35V114s0-.1,0-.15h7.34Z" transform="translate(-20.65 -4.38)"/><path class="cls-5" d="M186,114v.16h-11.9v-.31H186C186,113.9,186,114,186,114Z" transform="translate(-20.65 -4.38)"/><path class="cls-6" d="M193.45,109.53l-.32,0a4.07,4.07,0,0,0-1.79.79,4.57,4.57,0,0,0-1.72,3.49H174.4a10.52,10.52,0,0,1,7.23-10.1l.34-.1-.25-.25a9.43,9.43,0,0,1,2.5-.34A10.13,10.13,0,0,1,193.45,109.53Z" transform="translate(-20.65 -4.38)"/><circle class="cls-6" cx="161.33" cy="95.24" r="1.8"/><path class="cls-5" d="M181.72,103.4l-.33.1a10.86,10.86,0,0,0-7.3,10.35h-14.7a15.11,15.11,0,0,1,1.65-6.74l.15-.28-.31-.07a13.33,13.33,0,0,1,11.65-7.29A12.88,12.88,0,0,1,181.72,103.4Z" transform="translate(-20.65 -4.38)"/><path class="cls-5" d="M182,103.65l-.34.1-.24-.25.33-.1Z" transform="translate(-20.65 -4.38)"/><path class="cls-7" d="M202.2,113a1.32,1.32,0,1,1-1.32-1.31A1.32,1.32,0,0,1,202.2,113Z" transform="translate(-20.65 -4.38)"/><path class="cls-8" d="M25.16,98.73a2.33,2.33,0,1,1,2.33,2.33A2.33,2.33,0,0,1,25.16,98.73Zm.78,0a1.55,1.55,0,1,0,1.55-1.54A1.54,1.54,0,0,0,25.94,98.73Z" transform="translate(-20.65 -4.38)"/><path class="cls-9" d="M40.21,119.44a2.47,2.47,0,0,1,2.47,2.46,2.46,2.46,0,0,1,2.46-2.46A2.47,2.47,0,0,1,42.68,117,2.48,2.48,0,0,1,40.21,119.44Z" transform="translate(-20.65 -4.38)"/><path class="cls-10" d="M83.48,140.2h-20a3.17,3.17,0,1,0,0,6.34h20a3.17,3.17,0,0,0,0-6.34Z" transform="translate(-20.65 -4.38)"/><path class="cls-8" d="M48.19,71.69A2.27,2.27,0,0,1,50.46,74a2.27,2.27,0,0,1,2.27-2.27,2.26,2.26,0,0,1-2.27-2.26A2.27,2.27,0,0,1,48.19,71.69Z" transform="translate(-20.65 -4.38)"/><path class="cls-8" d="M190.87,120.9a2.27,2.27,0,0,1,2.27,2.26,2.26,2.26,0,0,1,2.26-2.26,2.27,2.27,0,0,1-2.26-2.27A2.27,2.27,0,0,1,190.87,120.9Z" transform="translate(-20.65 -4.38)"/><path class="cls-11" d="M53,138.15l.11.08H85.09a1.22,1.22,0,0,0-.68-1.28c-.61-.26-1.33,0-2-.12a2.1,2.1,0,0,1-1.37-1.28,11.14,11.14,0,0,1-.52-1.88c-.41-1.56-1.07-3.35-2.51-4.09a5.7,5.7,0,0,0-5.24.08,19.11,19.11,0,0,0-3.31,2.81A5,5,0,0,1,65.58,134c-1.66-.26-2.86-1.83-4.5-2.18a3.33,3.33,0,0,0-2.83.73,6.24,6.24,0,0,0-1.51,2.51c-.27.71-.66,1.53-1.41,1.66s-1.38-.42-2-.19A1,1,0,0,0,53,138.15Z" transform="translate(-20.65 -4.38)"/><path class="cls-12" d="M31.86,112.25a16.13,16.13,0,0,1,32.25,0Z" transform="translate(-20.65 -4.38)"/><path class="cls-13" d="M21.08,112.25a8.73,8.73,0,0,1,17.46,0Z" transform="translate(-20.65 -4.38)"/><path class="cls-14" d="M41.26,79.9a7.36,7.36,0,0,1,0,4,10,10,0,0,0-.55,3.32,8.41,8.41,0,0,0,1,2.69,5.62,5.62,0,0,1,.75,3.83,3.79,3.79,0,0,1-1.57,2.1,6.15,6.15,0,0,1-2.49.92A4.35,4.35,0,0,1,34.79,96,5,5,0,0,1,33.94,95a12.83,12.83,0,0,1-2-4.61A3.48,3.48,0,0,1,32,88.51c.2-.51.57-.93.74-1.45.22-.68.06-1.47.43-2.08.57-.93,2-.88,2.83-1.54A3.35,3.35,0,0,0,37,81c.08-1-.09-3.83,1.51-3.82C39.77,77.16,40.92,78.89,41.26,79.9Z" transform="translate(-20.65 -4.38)"/><path class="cls-15" d="M35.22,93.44a3.91,3.91,0,0,0,2.91,1.94l-.06-.6c-.15-1.58-.25-3.16-.27-4.74h0a5.88,5.88,0,0,1-2.32-4.53s.06,0,.06,0A6.24,6.24,0,0,0,37.8,89.7c0-1.19,0-2.38.1-3.57a.14.14,0,0,1,0-.11c0-.24,0-.49.05-.73a39.61,39.61,0,0,1,.84-5.54s.05,0,0,0c-.22,1.62-.47,3.22-.59,4.86,0,.39,0,.79-.07,1.18a4.73,4.73,0,0,0,.57-.43,3.2,3.2,0,0,0,.55-.72,5.45,5.45,0,0,0,.58-2.21s0,0,0,0c-.07,1.55-.41,2.82-1.76,3.65-.06,1.17-.1,2.33-.09,3.5,0,1.6.14,3.2.28,4.8A3.72,3.72,0,0,0,40.42,90s0,0,0,0a3.71,3.71,0,0,1-2.07,4.69c.15,1.62.32,3.25.4,4.88a21,21,0,0,1-.27,5.25c0,.18-.32.17-.29,0a35.09,35.09,0,0,0-.06-9.1,3.91,3.91,0,0,1-3-2.22S35.21,93.42,35.22,93.44Z" transform="translate(-20.65 -4.38)"/><path class="cls-16" d="M146.92,40.32a3.14,3.14,0,0,0-3.14,3.14,3.15,3.15,0,0,0-3.14-3.14,3.14,3.14,0,0,0,3.14-3.14A3.13,3.13,0,0,0,146.92,40.32Z" transform="translate(-20.65 -4.38)"/><path class="cls-16" d="M94.39,49a2.19,2.19,0,0,0-2.19,2.19A2.19,2.19,0,0,0,90,49a2.19,2.19,0,0,0,2.18-2.19A2.19,2.19,0,0,0,94.39,49Z" transform="translate(-20.65 -4.38)"/><path class="cls-17" d="M88,44.25a2,2,0,0,1-2,2H78.16l-.27,0-.37,0H65.73a2,2,0,0,1,0-4h.83a3.41,3.41,0,0,1,3.35-2.81h2.71a5.93,5.93,0,0,1,11.79.88,5.84,5.84,0,0,1-.33,1.93H86A2,2,0,0,1,88,44.25Z" transform="translate(-20.65 -4.38)"/><path class="cls-18" d="M171.6,58.35a2.83,2.83,0,0,1-2.83,2.83H144.21A5.29,5.29,0,0,1,142.49,51a8.4,8.4,0,0,1,16.51.56h3.84a4.82,4.82,0,0,1,4.75,4h1.18A2.83,2.83,0,0,1,171.6,58.35Z" transform="translate(-20.65 -4.38)"/><path class="cls-19" d="M101.19,70.68H61.3a1.76,1.76,0,1,0,0,3.51h39.89a1.76,1.76,0,1,0,0-3.51Z" transform="translate(-20.65 -4.38)"/><path class="cls-19" d="M160,67.94a1.26,1.26,0,0,1-1.26,1.26h-2.48a1.26,1.26,0,1,1,0-2.51h2.48A1.26,1.26,0,0,1,160,67.94Z" transform="translate(-20.65 -4.38)"/><path class="cls-19" d="M180.52,87.5a1.26,1.26,0,0,1-1.25,1.26h-2.49a1.26,1.26,0,0,1,0-2.52h2.49A1.26,1.26,0,0,1,180.52,87.5Z" transform="translate(-20.65 -4.38)"/><rect class="cls-20" x="84.69" y="99.42" width="18.2" height="8.7"/><rect class="cls-21" x="78.05" y="108.13" width="31.47" height="2.13"/><rect class="cls-22" x="52.85" y="49.08" width="81.88" height="50.34" rx="3.48"/><rect class="cls-23" x="56.63" y="52.47" width="74.61" height="41.21"/><rect class="cls-24" x="56.63" y="93.7" width="74.61" height="2.5"/><rect class="cls-25" x="45.41" y="45.74" width="22.44" height="15.4" rx="3.72"/><rect class="cls-26" x="24.73" y="83.64" width="26.78" height="24.49" rx="3.72"/><path class="cls-27" d="M59,90.18a.07.07,0,1,0,0,.13A.07.07,0,0,0,59,90.18Z" transform="translate(-20.65 -4.38)"/><rect class="cls-28" x="135.47" y="103.61" width="53.11" height="10.62" rx="3.72" transform="translate(303.39 213.46) rotate(180)"/><path class="cls-29" d="M71.18,49.88a2.37,2.37,0,0,1-.57.61.85.85,0,0,1-.8.1.36.36,0,0,1-.2-.25.24.24,0,0,0-.07-.38c0,.21-.27.3-.39.47a.91.91,0,0,0-.13.46A.64.64,0,0,1,69,51a2,2,0,0,0-.09.2,7.9,7.9,0,0,1-1.73,1.42c-.48.23-1,.59-1.52.82-.78.37-1.63.73-1.82,1.53a1.89,1.89,0,0,0,1.9.45,3.45,3.45,0,0,0,1.07-.69c.62-.52,1.22-1.06,1.79-1.61.21-.2.4-.42.59-.64a1.16,1.16,0,0,1,.3-.36,4.67,4.67,0,0,1,.81-.31,1.42,1.42,0,0,0,.93-.69,1.67,1.67,0,0,0,.09-.55c0-.13,0-.25,0-.38S71.3,49.88,71.18,49.88Z" transform="translate(-20.65 -4.38)"/><path class="cls-30" d="M55.93,64.4c.24,2.36.47,4.73.71,7.09.07.67.14,1.34.26,2a12.2,12.2,0,0,1,.24,1.59A8.1,8.1,0,0,1,57,76.55,30.67,30.67,0,0,1,55,85a8.37,8.37,0,0,0,2.26,1.17,38.51,38.51,0,0,0,2.92-15.31c0-.77-.07-1.1-.13-1.86-.13-1.49-.25-3-.38-4.47A12.41,12.41,0,0,0,55.93,64.4Z" transform="translate(-20.65 -4.38)"/><path class="cls-31" d="M56.59,64.94a48.9,48.9,0,0,0,2.8,11.56c1,3-.6,6.24-.31,9.43.46.15.87.34,1.34.49a1.88,1.88,0,0,0,1.12.12c0-1.59.16-3.15.29-4.74a57.76,57.76,0,0,0-.19-10.92A24.14,24.14,0,0,1,61.36,66,45.65,45.65,0,0,1,56.59,64.94Z" transform="translate(-20.65 -4.38)"/><path class="cls-32" d="M61.48,53.85a2.9,2.9,0,0,0,3.39-.2,2.74,2.74,0,0,0,.75,1.69,6.57,6.57,0,0,1-3.21,1.48.15.15,0,0,1-.13,0,.2.2,0,0,1-.06-.12C62,55.73,61.73,54.8,61.48,53.85Z" transform="translate(-20.65 -4.38)"/><path class="cls-33" d="M59.31,53.74a2.82,2.82,0,0,0,1.35.16,4.69,4.69,0,0,1,.19-1.17.27.27,0,0,0,0-.09.14.14,0,0,0-.08,0,5.56,5.56,0,0,1-1-.43A13,13,0,0,0,59.31,53.74Z" transform="translate(-20.65 -4.38)"/><path class="cls-34" d="M59.07,49.7a5.24,5.24,0,0,0,.28,1.71A2.31,2.31,0,0,0,60.5,52.7,2,2,0,0,0,63,51.89a3.27,3.27,0,0,0,.29-1,6.43,6.43,0,0,0,0-3.74,1.76,1.76,0,0,0-.43-.65,3,3,0,0,0-2.85-.2c-.5.29-.57.88-.72,1.36A5.72,5.72,0,0,0,59.07,49.7Z" transform="translate(-20.65 -4.38)"/><path class="cls-35" d="M62.49,55.66a2.8,2.8,0,0,0-1.34-2c-.52-.25-1.1.08-1.59-.22a.83.83,0,0,0-.87.11c-.82.93-1,2.3-1.32,3.51a52.27,52.27,0,0,0-1.53,8.15c.36.37,1,.16,1.45.31a18.75,18.75,0,0,0,4.13.74c.33-2.71.69-5.33,1-8A8.59,8.59,0,0,0,62.49,55.66Z" transform="translate(-20.65 -4.38)"/><path class="cls-32" d="M59.6,54.29a2.4,2.4,0,0,0-.41,1,7.23,7.23,0,0,0,.73,4.23c.18.43.37.86.57,1.28a3.53,3.53,0,0,0,1.18,1.57,3.24,3.24,0,0,1,1.69-1.48,28.7,28.7,0,0,1-1.31-4.13,8,8,0,0,0-.32-1.16,3.79,3.79,0,0,0-.52-.86,1.84,1.84,0,0,0-.62-.52,1,1,0,0,0-.82,0C59.71,54.19,59.57,54.23,59.6,54.29Z" transform="translate(-20.65 -4.38)"/><path d="M54.51,86a1,1,0,0,0-.14.68c.11.49.66.7,1.14.84l1.61.48a1.35,1.35,0,0,0,.35.06,1.16,1.16,0,0,0,.37-.07l.63-.23a.6.6,0,0,0,.35-.27.44.44,0,0,0-.27-.55,1.72,1.72,0,0,0-.68-.07,1,1,0,0,1-.66-.16c-.29-.25-.24-.76-.54-1a1.05,1.05,0,0,0-.42-.18c-.41-.12-.78-.36-1.18-.48A9.23,9.23,0,0,1,54.51,86Z" transform="translate(-20.65 -4.38)"/><path d="M59.22,87a1,1,0,0,0-.14.68c.11.48.66.7,1.14.84l1.61.47a1,1,0,0,0,.35.07,1.17,1.17,0,0,0,.37-.08c.21-.07.42-.14.63-.23a.55.55,0,0,0,.35-.26.44.44,0,0,0-.27-.55,1.72,1.72,0,0,0-.68-.07,1,1,0,0,1-.66-.16c-.29-.26-.24-.77-.54-1a1.05,1.05,0,0,0-.42-.18c-.41-.12-.78-.36-1.18-.48A9.23,9.23,0,0,1,59.22,87Z" transform="translate(-20.65 -4.38)"/><path class="cls-36" d="M69.76,57.83a2.53,2.53,0,0,1-.68.55.88.88,0,0,1-.85,0,.37.37,0,0,1-.17-.29.26.26,0,0,0,0-.4c-.05.21-.32.27-.47.43a1.05,1.05,0,0,0-.2.47l0,.07a1.4,1.4,0,0,0-.12.18,8.31,8.31,0,0,1-2,1.25c-.53.17-1.16.47-1.69.64-.86.28-1.8.54-2.1,1.34a2,2,0,0,0,1.92.72,3.56,3.56,0,0,0,1.2-.56c.71-.46,1.4-.93,2.08-1.43.24-.18.47-.38.69-.58a1.33,1.33,0,0,1,.37-.34,5.13,5.13,0,0,1,.88-.21,1.5,1.5,0,0,0,1.06-.59,1.52,1.52,0,0,0,.16-.55c0-.14,0-.27.07-.4S69.87,57.84,69.76,57.83Z" transform="translate(-20.65 -4.38)"/><path class="cls-37" d="M64.18,46.35c0,.55-.33,1.31-1,1.33h0a1.68,1.68,0,0,1-.67,0,.37.37,0,0,0-.45.31,1.11,1.11,0,0,1-.47.53.75.75,0,0,1-.7,0,.72.72,0,0,0,0,.48.62.62,0,0,0-.44-.32.55.55,0,0,0-.18,0,.41.41,0,0,0-.22.36,1,1,0,0,0,.62,1c.19.07.16.23.12.42a1.12,1.12,0,0,1-.3.5,5.62,5.62,0,0,0-.41.44A2.8,2.8,0,0,0,60,52.53c-.14-.11-.51-.18-.54-.36a6.13,6.13,0,0,0-.77-2A3.35,3.35,0,0,1,58,48.27a1.9,1.9,0,0,1,1.29-1.6.44.44,0,0,0,.22-.1.82.82,0,0,0,.14-.26,1.43,1.43,0,0,1,.81-.65,3.53,3.53,0,0,1,2.44,0,1.4,1.4,0,0,1,.3.15c.33.13.46.56.9.48A.07.07,0,0,1,64.18,46.35Z" transform="translate(-20.65 -4.38)"/><path class="cls-19" d="M75.87,79.7A1.25,1.25,0,0,1,74.61,81H72.13a1.26,1.26,0,1,1,0-2.51h2.48A1.25,1.25,0,0,1,75.87,79.7Z" transform="translate(-20.65 -4.38)"/><path class="cls-38" d="M104.82,29.81S98.27,35.87,97.65,44c0,0-.56,2.88,2.61.6a17.94,17.94,0,0,1,7-3.44S104.36,32.21,104.82,29.81Z" transform="translate(-20.65 -4.38)"/><path class="cls-39" d="M123.85,29.81S130.4,35.87,131,44c0,0,.56,2.88-2.61.6a18,18,0,0,0-7-3.44S124.31,32.21,123.85,29.81Z" transform="translate(-20.65 -4.38)"/><path class="cls-40" d="M114.34,4.38S96.71,17,108.63,45.44H120C132,17,114.34,4.38,114.34,4.38" transform="translate(-20.65 -4.38)"/><path class="cls-41" d="M120.48,22.31a6.15,6.15,0,1,1-6.14-5.94A6,6,0,0,1,120.48,22.31Z" transform="translate(-20.65 -4.38)"/><path class="cls-42" d="M119.4,47.41H109.27a1,1,0,0,1-1-1h0a1,1,0,0,1,1-1H119.4a1,1,0,0,1,1,1h0A1,1,0,0,1,119.4,47.41Z" transform="translate(-20.65 -4.38)"/><path class="cls-43" d="M120.59,12a24,24,0,0,0-6.25-7.66A23.9,23.9,0,0,0,108.08,12,23.59,23.59,0,0,0,120.59,12Z" transform="translate(-20.65 -4.38)"/><path class="cls-44" d="M120.06,22.31a5.73,5.73,0,1,1-5.72-5.53A5.62,5.62,0,0,1,120.06,22.31Z" transform="translate(-20.65 -4.38)"/><path class="cls-45" d="M118.63,22.31a4.29,4.29,0,1,1-4.29-4.14A4.22,4.22,0,0,1,118.63,22.31Z" transform="translate(-20.65 -4.38)"/><path class="cls-46" d="M115.86,5.71c-.43-.42-.79-.74-1.06-1-2.71,2.27-16,15-5.23,40.69h2.11C102,22.26,111.85,9.61,115.86,5.71Z" transform="translate(-20.65 -4.38)"/><path class="cls-47" d="M114.8,4.75a20.35,20.35,0,0,0-5.9,7.5l1.93.37S111.57,10.06,114.8,4.75Z" transform="translate(-20.65 -4.38)"/><path class="cls-48" d="M105.12,33.21a11,11,0,0,1-.3-3.4S98.27,35.87,97.65,44c0,0-.2,1,.32,1.37.22-.3.18-1,.26-1.37a10.75,10.75,0,0,1,.68-1.87A29.7,29.7,0,0,1,105.12,33.21Z" transform="translate(-20.65 -4.38)"/><path class="cls-49" d="M123.56,33.21a11.28,11.28,0,0,0,.29-3.4S130.4,35.87,131,44c0,0,.2,1-.32,1.37-.22-.3-.18-1-.26-1.37a10.75,10.75,0,0,0-.68-1.87A29.85,29.85,0,0,0,123.56,33.21Z" transform="translate(-20.65 -4.38)"/><path class="cls-50" d="M107.71,135.26c-1.89-3.31-13.86-2.95-16.26-1.28a2.39,2.39,0,0,0-.91,3,3.32,3.32,0,0,0,1.88,1.24C94.5,138.9,110.64,140.39,107.71,135.26Z" transform="translate(-20.65 -4.38)"/><path class="cls-50" d="M166,116.69c-1.89-3.3-13.86-3-16.25-1.27a2.36,2.36,0,0,0-.91,3,3.17,3.17,0,0,0,1.88,1.24C152.83,120.33,169,121.83,166,116.69Z" transform="translate(-20.65 -4.38)"/><path class="cls-51" d="M55.86,109.76A7.11,7.11,0,0,0,49,117.12v.16h6.3V117A15.19,15.19,0,0,1,57,110.18l.15-.29A6.67,6.67,0,0,0,55.86,109.76Z" transform="translate(-20.65 -4.38)"/><path class="cls-52" d="M90,112.64l-.32,0-.32,0a4,4,0,0,0-1.78.79A4.56,4.56,0,0,0,85.83,117s0,.1,0,.15v.16h8.31v-.16A4.33,4.33,0,0,0,90,112.64Z" transform="translate(-20.65 -4.38)"/><path class="cls-53" d="M80,102.76a1.8,1.8,0,1,1-1.8-1.8A1.8,1.8,0,0,1,80,102.76Z" transform="translate(-20.65 -4.38)"/><path class="cls-54" d="M68.77,102.61a13.29,13.29,0,0,0-11.64,7.28l-.15.29A15.19,15.19,0,0,0,55.34,117v.31h15V117a10.86,10.86,0,0,1,7.29-10.34l.33-.1A12.86,12.86,0,0,0,68.77,102.61Z" transform="translate(-20.65 -4.38)"/><path class="cls-55" d="M80.44,106.2a9.42,9.42,0,0,0-2.5.33l-.33.1A10.86,10.86,0,0,0,70.32,117v.31h15.5v-.16c0-.05,0-.1,0-.15a4.56,4.56,0,0,1,1.73-3.48,4,4,0,0,1,1.78-.79l.32,0A10.11,10.11,0,0,0,80.44,106.2Z" transform="translate(-20.65 -4.38)"/><path class="cls-56" d="M98.4,116.11a1.32,1.32,0,1,1-1.32-1.31A1.32,1.32,0,0,1,98.4,116.11Z" transform="translate(-20.65 -4.38)"/><path class="cls-57" d="M57.7,102.67a2.82,2.82,0,0,1-1.52-2.76c.06-.26.21-.54.48-.58s.65.41,1,.41a.6.6,0,0,0,.52-.65,1.57,1.57,0,0,0-.38-.85c-.49-.68-1.07-1.49-.82-2.29a.76.76,0,0,1,.32-.44.84.84,0,0,1,.74,0,1.9,1.9,0,0,1,1,1.49,4.65,4.65,0,0,0,.1,1.06c.12.33.54.6.83.38a2.11,2.11,0,0,0,.28-.37.9.9,0,0,1,1.31,0,1.63,1.63,0,0,1,.31,1.41,9.43,9.43,0,0,1-.51,1.4,2.52,2.52,0,0,0-.2,1.45c.08.33.36.67.69.59s.37-.81.61-1.22a.92.92,0,0,1,1.42,0,1.46,1.46,0,0,1,.11,1.56A4.12,4.12,0,0,1,63,104.57a2,2,0,0,0-.74,1c-.09.41.22.93.64.87s.56-.47.91-.58a.75.75,0,0,1,.84.48,1.58,1.58,0,0,1,0,1,3.69,3.69,0,0,1-1.37,1.88,4.75,4.75,0,0,1-3.55,2.44,3.74,3.74,0,0,1-3.8-2.23,1.32,1.32,0,0,1,.08-1.32,1.18,1.18,0,0,1,1.19-.28,10.5,10.5,0,0,1,1.21.48.73.73,0,0,0,.78,0,.57.57,0,0,0-.13-.77,2.69,2.69,0,0,0-.78-.38A2.6,2.6,0,0,1,56.78,105c0-.44.18-1,.62-1s.63.22.93.39.79.14.86-.19a.55.55,0,0,0-.1-.37A3.84,3.84,0,0,0,57.7,102.67Z" transform="translate(-20.65 -4.38)"/><path class="cls-58" d="M60,106.21a1.55,1.55,0,0,0-.39-.75.69.69,0,0,0-.78-.15.94.94,0,0,0-.37.89,2,2,0,0,1-.09,1c-.15.31-.63.46-.82.18a.64.64,0,0,1,0-.6,4.23,4.23,0,0,0,.52-1.32c0-.48-.44-1-.87-.81s-.28,1.31-.84,1.59c-.4.2-.87-.26-.9-.71a3.58,3.58,0,0,1,.34-1.31,1.45,1.45,0,0,0-.1-1.27.7.7,0,0,0-1.11-.07c-.23.36,0,1-.37,1.19s-.7-.1-.82-.43a3.18,3.18,0,0,1-.09-1.27,1.51,1.51,0,0,0-.36-1.19c-.31-.29-.94-.23-1,.18,0,.16,0,.34-.08.49s-.64.13-.86-.12a5,5,0,0,1-.6-1,2.26,2.26,0,0,0-.73-.91.93.93,0,0,0-1.1,0,.6.6,0,0,0,.11,1c-.05.39-.66.37-1,.11s-.52-.66-.91-.72-.87.45-.81.93a1.76,1.76,0,0,0,.79,1.14,4.52,4.52,0,0,0,2,.84,2.52,2.52,0,0,1,.67.16.54.54,0,0,1,.31.57c-.1.42-.75.38-1,.71a.75.75,0,0,0,.31,1.08,2.18,2.18,0,0,0,1.27.1l1.44-.17a1.83,1.83,0,0,1,.74,0,.56.56,0,0,1,.4.57c-.1.67-1.46.31-1.65,1a.74.74,0,0,0,.4.74,2.46,2.46,0,0,0,1,.39,3,3,0,0,1,1,.2c.31.16.5.61.25.85s-1.06-.2-1.49.08-.24.66-.07,1a3.33,3.33,0,0,0,2,1.44,4.94,4.94,0,0,0,3.35-.16C59.65,110.75,60.48,108.17,60,106.21Z" transform="translate(-20.65 -4.38)"/><path class="cls-59" d="M152,86.57V98.26H77V86.43l0,0,0,0c-.16-.07,0-.31.13-.24a2.69,2.69,0,0,1,1.67,2.31h0c-.1-2,2.63-2.85,4.24-2.47A3.89,3.89,0,0,1,86,90.09a2.78,2.78,0,0,1,1.37-.5,3.2,3.2,0,0,1,1.84.42,5,5,0,0,1,1.22-5c1.48-1.4,4.4-1.86,6-.43a5.78,5.78,0,0,1,8-4.88,2.71,2.71,0,0,1,2.42-3.89c2.35-2.6,3.26-6,3.93-9.42a39.79,39.79,0,0,0,.73-5.76c.09-1.55,0-3.1,0-4.66-1.28-.42-1.62-2.23-1-3.32a3.54,3.54,0,0,1-1.87-2.75c-.1-.8.11-2.28,1.06-2.44a.08.08,0,0,1,.06-.11c3.09-.1,6.18-.11,9.27,0a.1.1,0,0,1,.07.17c.77.33.94,1.65.85,2.38a3.54,3.54,0,0,1-1.87,2.75c.63,1.09.29,2.9-1,3.32,0,1.56-.07,3.11,0,4.66a41.25,41.25,0,0,0,.74,5.76c.67,3.39,1.58,6.82,3.93,9.42a2.7,2.7,0,0,1,2.41,3.89,5.79,5.79,0,0,1,8,4.88c1.64-1.43,4.56-1,6,.43a5,5,0,0,1,1.21,5,3.24,3.24,0,0,1,1.84-.42,2.78,2.78,0,0,1,1.38.5A3.89,3.89,0,0,1,145.55,86c1.54-.37,4.09.42,4.24,2.2a2.87,2.87,0,0,1,2-1.66.11.11,0,0,1,.08,0Z" transform="translate(-20.65 -4.38)"/><g class="cls-60"><path class="cls-61" d="M119.17,80.7l-.07,0Z" transform="translate(-20.65 -4.38)"/><path class="cls-61" d="M151.83,86.57a2.87,2.87,0,0,0-2,1.66c-.15-1.78-2.7-2.57-4.24-2.2a3.89,3.89,0,0,0-2.91,4.06,2.78,2.78,0,0,0-1.38-.5,3.24,3.24,0,0,0-1.84.42,5,5,0,0,0-1.21-5c-1.48-1.4-4.4-1.86-6-.43a5.79,5.79,0,0,0-8-4.88,2.7,2.7,0,0,0-2.41-3.89c-2.35-2.6-3.26-6-3.93-9.42a41.25,41.25,0,0,1-.74-5.76c-.08-1.55,0-3.1,0-4.66,1.28-.42,1.62-2.23,1-3.32A3.54,3.54,0,0,0,120,49.87c.09-.73-.08-2-.85-2.38a.1.1,0,0,0-.07-.17c-.84,0-1.68,0-2.53-.06a3.6,3.6,0,0,1,1.12,2.06,4.23,4.23,0,0,1-.54,2.78,3.28,3.28,0,0,1-1.2,1.25,2.21,2.21,0,0,1-1.46.3,3.28,3.28,0,0,0,2.8-.23,3.53,3.53,0,0,1-1.34,2.21,3.49,3.49,0,0,1-2.48.73,3.72,3.72,0,0,0,2.09.68c-.26,5.25-.45,10.77,1.9,15.47a22.48,22.48,0,0,0,2.4,3.89A3.75,3.75,0,0,0,118.27,79a1.6,1.6,0,0,0,.83,1.69c-.16-.11-.1-.48-.1-.7a2.24,2.24,0,0,1,.69-1.51,1.77,1.77,0,0,1,1.38-.61,1.63,1.63,0,0,1,1.13.82,2.64,2.64,0,0,1-.57,3.33,1.49,1.49,0,0,0,1.14-.61,2.89,2.89,0,0,0,.49-1,2.12,2.12,0,0,1-.13,2,3.7,3.7,0,0,1-2.36,1.8,3.22,3.22,0,0,0,2.35-.73,5.1,5.1,0,0,0,1.44-2,3.91,3.91,0,0,1,4.2.92,6.33,6.33,0,0,1,1.64,4.09,1.6,1.6,0,0,1,1.48-.19,1.65,1.65,0,0,1,1.44-.76,2.47,2.47,0,0,1,1.54.64,3.61,3.61,0,0,1,.52,4.8c-.06.08-.2,0-.27.11s0,.08.07.07c.41.47.94.63,1.35,1.1a2.65,2.65,0,0,1,2.87-.37A4.66,4.66,0,0,1,141.51,94a4.3,4.3,0,0,1,2.55-2.32,2.19,2.19,0,0,1,2.31,3.21,2.23,2.23,0,0,0,.21-2.94A4.33,4.33,0,0,1,148.8,97a4.45,4.45,0,0,0,.14-5.2,1.69,1.69,0,0,1,1.75,1.08.77.77,0,0,1,.84-.48.74.74,0,0,1,.45.28V86.57h-.07A.11.11,0,0,0,151.83,86.57Z" transform="translate(-20.65 -4.38)"/><path class="cls-61" d="M114.12,53.52s0,.06.08.07a1.8,1.8,0,0,0,.22.06c-.08,0-.17-.07-.25-.12S114.12,53.48,114.12,53.52Z" transform="translate(-20.65 -4.38)"/></g><path class="cls-62" d="M77,91.78a1.07,1.07,0,0,1,.27-.09,10.8,10.8,0,0,0,2-.17c.3-.12.56-.33.87-.43,1-.32,1.9.51,2.57,1.27A5.1,5.1,0,0,0,80.5,96.9c1.13-2.07,2.73-4.38,5.09-4.44a4.42,4.42,0,0,0-2.52,4.22,6.7,6.7,0,0,1,9.84-3.18L90.31,91a2.09,2.09,0,0,1-.47-.56,1.7,1.7,0,0,1-.08-1c.25-1.8,2-3.49,3.79-2.94a1.44,1.44,0,0,1,.67.4,2.36,2.36,0,0,1,.38.87,8.7,8.7,0,0,0,2.87,4.27,5.9,5.9,0,0,1,.28-7.9A3.31,3.31,0,0,0,98,87a4.33,4.33,0,0,1,1.36-3.79,10.64,10.64,0,0,1,3.58-2.13,2.48,2.48,0,0,1,1.54-.28,4.45,4.45,0,0,1,1,.52,3.16,3.16,0,0,0,3,0,2.45,2.45,0,0,1-2.4-2,2.35,2.35,0,0,1,.1-1.57,4.33,4.33,0,0,1,1.11-1.15,5.43,5.43,0,0,0,1.75-4l0,0a12.79,12.79,0,0,1-2.08,3.19,2.71,2.71,0,0,0-2.42,3.89,5.78,5.78,0,0,0-8,4.88c-1.64-1.43-4.56-1-6,.43a5,5,0,0,0-1.22,5,3.2,3.2,0,0,0-1.84-.42,2.78,2.78,0,0,0-1.37.5A3.89,3.89,0,0,0,83,86c-1.61-.38-4.34.49-4.24,2.47h0a2.69,2.69,0,0,0-1.67-2.31c-.16-.07-.29.17-.13.24l0,0,0,0Z" transform="translate(-20.65 -4.38)"/><path class="cls-59" d="M107.74,61.42a1.17,1.17,0,1,1,1.16,1.16A1.16,1.16,0,0,1,107.74,61.42Zm.39,0a.78.78,0,1,0,.77-.77A.78.78,0,0,0,108.13,61.42Z" transform="translate(-20.65 -4.38)"/><path class="cls-59" d="M101.42,67.94a.48.48,0,1,1,.48.49A.48.48,0,0,1,101.42,67.94Zm.16,0a.32.32,0,1,0,.32-.32A.32.32,0,0,0,101.58,67.94Z" transform="translate(-20.65 -4.38)"/><path class="cls-61" d="M124.8,85.08a.48.48,0,0,1,.49-.48.48.48,0,0,1,0,1A.48.48,0,0,1,124.8,85.08Zm.17,0a.32.32,0,1,0,.32-.32A.32.32,0,0,0,125,85.08Z" transform="translate(-20.65 -4.38)"/><path class="cls-61" d="M110.49,90.31a.68.68,0,0,1,.68-.69.69.69,0,0,1,.69.69.68.68,0,0,1-.69.68A.67.67,0,0,1,110.49,90.31Zm.23,0a.46.46,0,1,0,.45-.46A.45.45,0,0,0,110.72,90.31Z" transform="translate(-20.65 -4.38)"/><path class="cls-61" d="M100.53,80.66a.7.7,0,0,1,1.4,0,.7.7,0,0,1-1.4,0Zm.24,0a.47.47,0,1,0,.46-.46A.47.47,0,0,0,100.77,80.66Z" transform="translate(-20.65 -4.38)"/><path class="cls-59" d="M129.7,75.23a.48.48,0,1,1,.48.49A.48.48,0,0,1,129.7,75.23Zm.16,0a.32.32,0,1,0,.32-.32A.32.32,0,0,0,129.86,75.23Z" transform="translate(-20.65 -4.38)"/><path class="cls-59" d="M85.15,83.71a1.5,1.5,0,0,1,1.5,1.5,1.5,1.5,0,0,1,1.5-1.5,1.5,1.5,0,0,1-1.5-1.5A1.5,1.5,0,0,1,85.15,83.71Z" transform="translate(-20.65 -4.38)"/><path class="cls-59" d="M141.15,81.18a1,1,0,0,1,1,1,1,1,0,0,1,1-1,1,1,0,0,1-1-1A1,1,0,0,1,141.15,81.18Z" transform="translate(-20.65 -4.38)"/><path class="cls-63" d="M111.6,95.86a3.87,3.87,0,0,0-4.06,2.22,3,3,0,0,0-5.15-.14,1.1,1.1,0,0,0-1.65-.38,3.18,3.18,0,0,0-6.34.08,2.36,2.36,0,0,0-4.21-.7,3.86,3.86,0,0,0-7.66-.59,1.76,1.76,0,0,0-2.63-.89,2.89,2.89,0,0,0-2.38-5,1.29,1.29,0,0,0-.54.22v7.54h37.49A3.87,3.87,0,0,0,111.6,95.86Z" transform="translate(-20.65 -4.38)"/><path class="cls-63" d="M151.94,93.41a3.62,3.62,0,0,0-2.79,1.16,5.28,5.28,0,0,0-1.32,2.77,2,2,0,0,0-1.64-2.23A1.71,1.71,0,0,0,144.36,97a3.3,3.3,0,0,0-3,.65,2.54,2.54,0,0,0-2.16-2,2.19,2.19,0,0,0-2.32,1.69,2.37,2.37,0,0,0-2.15-2.72A2.32,2.32,0,0,0,132.26,97a.91.91,0,0,0-1.33-.2,1.25,1.25,0,0,0-.06-1.47,1.23,1.23,0,0,0-1.43-.31,4,4,0,0,0-.15-1A1.89,1.89,0,0,0,127,96a.16.16,0,0,1-.3.08c-.45-1.31-1.59-.29-1.54.58h.06a.11.11,0,0,1,0,.22s-.05,0-.06,0v0a1.41,1.41,0,0,0-1-.06.07.07,0,0,1-.08-.07c0-.8-.3-1.9-1.21-2.13a2.1,2.1,0,0,0-2.3,2.08h-.06v0a1.61,1.61,0,0,0-2,1.48,2.15,2.15,0,0,0-1.82-.77,1.5,1.5,0,0,0-1.11.81H152V93.41Z" transform="translate(-20.65 -4.38)"/><path class="cls-64" d="M105.66,111.3l5.42-6.21a.24.24,0,0,0-.17-.4l-5.71-.24a.24.24,0,0,0-.19.08l-5,5.67a.25.25,0,0,0,.15.4l5.24.78A.27.27,0,0,0,105.66,111.3Z" transform="translate(-20.65 -4.38)"/><polygon class="cls-65" points="84.96 106.59 90.11 100.71 84.52 100.47 79.83 105.82 84.96 106.59"/><polygon class="cls-66" points="84.96 106.47 90.11 100.6 84.52 100.36 79.83 105.71 84.96 106.47"/><path class="cls-34" d="M106.41,107.93h0a5.52,5.52,0,0,0,1.59.48h0s0,.07,0,.09a.56.56,0,0,1-.44.11,4.09,4.09,0,0,1-1.08-.23.06.06,0,0,0,.08,0s0,0,0,0a5,5,0,0,0,1.34.44.15.15,0,0,1,.1,0s0,.08,0,.1,0,0,0,0a2.21,2.21,0,0,1-1.59-.18s0,0,0,0,0,0,0,0a3.73,3.73,0,0,0,1.15.43.54.54,0,0,1,.22.09c0,.06.06.17,0,.21l-.06,0a2.37,2.37,0,0,1-1.52-.28l1.41.65a.1.1,0,0,1,.05,0,.09.09,0,0,1,0,.11.66.66,0,0,1-.63.08,4.88,4.88,0,0,1-1-.37,2.3,2.3,0,0,1-2.16-.34l.06-.54a1.21,1.21,0,0,1,.12-.46,1.73,1.73,0,0,1,.21-.25s0,0,0,0,0,0,0,0a9.47,9.47,0,0,0,1.39-.19A2.35,2.35,0,0,1,106.41,107.93Z" transform="translate(-20.65 -4.38)"/><path class="cls-34" d="M101,123.49l.12,11.34a.48.48,0,0,0,.35.47c0,.23-.29.35-.52.39a2,2,0,0,1-1.45-.33q-1-5.7-1.46-11.47a2.68,2.68,0,0,1,1-.66,1.34,1.34,0,0,1,1.29.16,2.25,2.25,0,0,0,.3.24C100.76,123.69,100.93,123.59,101,123.49Z" transform="translate(-20.65 -4.38)"/><path class="cls-67" d="M99.49,135.38a1.39,1.39,0,0,0-.18,1c0,.45.15,1,.54,1.14a1,1,0,0,0,.65-.09,6.17,6.17,0,0,1,2.42,0,3,3,0,0,0,2.31-.48c-.06-.16,0-.21,0-.37s-.34-.42-.59-.5a16.4,16.4,0,0,0-1.81-.43,2,2,0,0,1-1-.37l-.2-.17c-.34-.21-.7.09-1,.26A1.83,1.83,0,0,1,99.49,135.38Z" transform="translate(-20.65 -4.38)"/><path class="cls-34" d="M96.21,123.73q-1.08,5.56-2.18,11.12a.48.48,0,0,0,.24.53c-.06.22-.35.29-.58.28a2,2,0,0,1-1.35-.62q.19-5.78.89-11.53a3,3,0,0,1,1.13-.44,1.35,1.35,0,0,1,1.23.42,3.5,3.5,0,0,0,.24.3C95.93,123.87,96.11,123.81,96.21,123.73Z" transform="translate(-20.65 -4.38)"/><path class="cls-67" d="M92.2,134.84a1.41,1.41,0,0,0-.3,1c0,.45,0,1,.39,1.2a1.06,1.06,0,0,0,.66,0,6,6,0,0,1,2.39.33,2.91,2.91,0,0,0,2.35-.19c0-.16.08-.19.07-.36s-.29-.46-.52-.57a16,16,0,0,0-1.75-.65,2.12,2.12,0,0,1-1-.5,1.71,1.71,0,0,0-.18-.2c-.3-.24-.7,0-1,.13A1.86,1.86,0,0,1,92.2,134.84Z" transform="translate(-20.65 -4.38)"/><path class="cls-68" d="M95.1,97a5.35,5.35,0,0,1-.21,1.37.82.82,0,0,0-.06.53.67.67,0,0,0,.19.26,2,2,0,0,0,1.59.47.39.39,0,0,0,.32-.17.42.42,0,0,0,0-.15l.16-1.49C96.45,97.59,95.75,97.35,95.1,97Z" transform="translate(-20.65 -4.38)"/><path class="cls-34" d="M99.62,92.39l0-.06c0,.18-.26.15-.45.15a3.43,3.43,0,0,1-1.7-.67A1.9,1.9,0,0,1,96.87,93a1.26,1.26,0,0,1-1.17.35c-.28-.08-.57-.26-.84-.14a.6.6,0,0,0-.31.52,9.55,9.55,0,0,0-.12,1.06,6,6,0,0,0,.5,2.09,2.83,2.83,0,0,0,1.49,1.44,1,1,0,0,0,.29.08,1.21,1.21,0,0,0,.84,0s0,0,0,0h0a1.7,1.7,0,0,0,.39-.25l0,0a4.61,4.61,0,0,0,.56-.5c.1-.11.19-.21.28-.33h0l0-.07a5.35,5.35,0,0,0,.41-.64c.11,0,.21,0,.21-.09s.42-1.25.43-1.27C100.31,93.9,99.74,93.7,99.62,92.39Z" transform="translate(-20.65 -4.38)"/><path class="cls-69" d="M98.66,107.28a12.66,12.66,0,0,0-.29,2.53,17.94,17.94,0,0,0,.29,2.73h0a0,0,0,0,1,0,.08c-2.44.48-5.45.42-7.42-1.3,0,0-.1,0-.09,0s0,0,0,0l0,0s0-.06,0,0l0,0a13.88,13.88,0,0,1,.89-2.2,5.94,5.94,0,0,0,.36-2.51c0-.88-.11-1.76-.16-2.63a17.53,17.53,0,0,1,0-4.69l0,0s0,0,0,0l.07-.09h0a1.65,1.65,0,0,1,1.35-.53A10.08,10.08,0,0,1,96,99c.72.19,1.44.42,2.14.68a2.78,2.78,0,0,1,1.37.76c.4.47.26,1.26.2,1.83C99.48,103.94,99,105.59,98.66,107.28Z" transform="translate(-20.65 -4.38)"/><path class="cls-70" d="M101.77,123.18a2.79,2.79,0,0,0-.07-.4.36.36,0,0,0,0-.11s0,0,0,0l0-.1a25.65,25.65,0,0,0-2.26-7.9,7.59,7.59,0,0,1-.7-2.32.06.06,0,0,0,0-.09v0s-.08,0-.08,0v0a7,7,0,0,1-4,.2,5.91,5.91,0,0,1-3.32-1.32h0s0,0,0,0l0,0s0,0,0,0l0,0c-1,3,.32,6.18.94,9.14a13.94,13.94,0,0,1,.35,2.81s-.29-.13,0,0a11,11,0,0,0,3.6,1.2,7,7,0,0,0,1.89,0c.63-.09,1.27-.21,1.9-.35a6.76,6.76,0,0,0,1.9-.69C101.87,123.24,101.83,123.15,101.77,123.18Z" transform="translate(-20.65 -4.38)"/><path class="cls-71" d="M104.81,109.64c-.06.2-.11.42-.19.62h0c.05,0,0,.1,0,.07a22.26,22.26,0,0,0-2.69-.88,4,4,0,0,1-1.93-1.2,0,0,0,0,1-.06,0,7,7,0,0,1-.85-1.77c-.2-.57-.35-1.16-.52-1.75s-.38-1.26-.5-1.9a3,3,0,0,1,.09-1.66c.07-.21.27-.82.57-.82.23-.3.71-.14.93.12a3.24,3.24,0,0,1,.45.89,9,9,0,0,1,.35,1,24.72,24.72,0,0,1,.79,4.22,0,0,0,0,1,0,0c0,.27.51.42.72.52a3.85,3.85,0,0,0,.76.29c.63.18,1.28.29,1.92.43a0,0,0,0,1,0,0A1.93,1.93,0,0,1,105,109,2.41,2.41,0,0,1,104.81,109.64Z" transform="translate(-20.65 -4.38)"/><path class="cls-72" d="M100.28,91.26a2.47,2.47,0,0,0-1.18-.75,5.8,5.8,0,0,0-1.66-.14c-.24,0-.48,0-.71-.06a2.05,2.05,0,0,0-1.73.12A3.54,3.54,0,0,0,93.84,92c-.1.22-.19.44-.3.64a3.72,3.72,0,0,1-1.06,1c-.47.29-1,.5-1.48.74a8.52,8.52,0,0,0-.84.46h0a5.49,5.49,0,0,0-3,7.32,9.45,9.45,0,0,1,.58,1.2,2.66,2.66,0,0,1,0,1.4s0,.07,0,.11a6.87,6.87,0,0,0-.49,1.38,4.32,4.32,0,0,0,2.46,4.52,5.89,5.89,0,0,0,5.28-.27,5.54,5.54,0,0,0,3.49-3.18,5.1,5.1,0,0,0,.2-3A10.12,10.12,0,0,0,97,101.41a3.28,3.28,0,0,1-.55-2.4c.16-.09.35-.14.5-.21a3,3,0,0,0,.6-.41,2,2,0,0,0,.67-1.19,2,2,0,0,0-.38-1.3,1.32,1.32,0,0,1-.11-1.45,1.16,1.16,0,0,1,.53-.45,1.91,1.91,0,0,1,.92,0,1.4,1.4,0,0,0,1.11-.4A1.7,1.7,0,0,0,100.28,91.26Zm-4,8a1.63,1.63,0,0,0,0,.31A.78.78,0,0,1,96.25,99.27Zm-9.28.94c.1,1.07.75,2,1,3a2.33,2.33,0,0,1,0,1,2.5,2.5,0,0,0-.17-1.07,11.69,11.69,0,0,1-.9-2.23A5.14,5.14,0,0,1,87,98.27a5.58,5.58,0,0,1,2.3-2.85A5.6,5.6,0,0,0,87,100.21Zm7.79-9.37,0,0a1.84,1.84,0,0,1,.73-.47l.24,0A2.56,2.56,0,0,0,94.76,90.84Zm2.71,11.51a5.17,5.17,0,0,1,1.14,3.37,4.93,4.93,0,0,1-1.33,3.15A5.38,5.38,0,0,1,95.83,110a8.4,8.4,0,0,0,1.67-1.59,4.33,4.33,0,0,0,.78-1.35,4.1,4.1,0,0,0,.18-1.56,6.25,6.25,0,0,0-1.12-3.06,7.76,7.76,0,0,1-.83-1.49c0-.12-.08-.24-.11-.36A8.22,8.22,0,0,0,97.47,102.35Z" transform="translate(-20.65 -4.38)"/><path d="M157.31,112.05a11.73,11.73,0,0,1-1.92,2.12,4.25,4.25,0,0,1-2.61,1,1.44,1.44,0,0,0,1.35,1.25,3.71,3.71,0,0,0,1.93-.5,5.84,5.84,0,0,1,1.88-.69,1.37,1.37,0,0,0,.28,0,.85.85,0,0,0,.41-.63,5.55,5.55,0,0,0,.13-2,2.28,2.28,0,0,1-1.32-.21C157.36,112.34,157.23,112,157.31,112.05Z" transform="translate(-20.65 -4.38)"/><path class="cls-73" d="M168.51,99.24a6.88,6.88,0,0,1-.95,2.25,3.74,3.74,0,0,1-1.89,1.48,5.75,5.75,0,0,1-1.65.21,31.6,31.6,0,0,1-3.23-.13,36.25,36.25,0,0,1-1.94,9.69,3.71,3.71,0,0,1-1.86-.53,61.8,61.8,0,0,0,.38-10.79c0-.45.51-.75.95-.82A15.47,15.47,0,0,0,164.68,98,8.64,8.64,0,0,0,168.51,99.24Z" transform="translate(-20.65 -4.38)"/><path d="M162.42,113.85a12.37,12.37,0,0,1-1.53,2.42,4.25,4.25,0,0,1-2.4,1.47,1.43,1.43,0,0,0,1.54,1,3.76,3.76,0,0,0,1.82-.82,5.66,5.66,0,0,1,1.73-1,1.25,1.25,0,0,0,.27-.1.86.86,0,0,0,.3-.69,5.51,5.51,0,0,0-.22-2,2.35,2.35,0,0,1-1.34,0C162.51,114.13,162.33,113.86,162.42,113.85Z" transform="translate(-20.65 -4.38)"/><path class="cls-74" d="M171.26,99.32a6.66,6.66,0,0,1-.54,2.38,3.81,3.81,0,0,1-1.62,1.79,5.42,5.42,0,0,1-1.59.48,31.51,31.51,0,0,1-3.2.43,35.9,35.9,0,0,1-.26,9.87,3.7,3.7,0,0,1-1.92-.21,62.07,62.07,0,0,0-1.47-10.69c-.11-.44.38-.82.8-1a15.56,15.56,0,0,0,5.82-3.67A8.49,8.49,0,0,0,171.26,99.32Z" transform="translate(-20.65 -4.38)"/><path class="cls-75" d="M162.21,92.1a2.71,2.71,0,0,0-1.54.49,27.43,27.43,0,0,1-4.42,2.4,6.93,6.93,0,0,0,1.73.59,12.7,12.7,0,0,1,1.67-.89c.81-.34,1.65-.6,2.46-.94a2.13,2.13,0,0,0,1-.75C162.94,92.63,162.64,92.13,162.21,92.1Z" transform="translate(-20.65 -4.38)"/><path class="cls-76" d="M164.21,87.58a2.79,2.79,0,0,1,1.54-1.64,6.64,6.64,0,0,1,2.25-.51,4.91,4.91,0,0,1,2.29.17,2.45,2.45,0,0,1,1.25.85,4.32,4.32,0,0,1,.61,1.47,14.11,14.11,0,0,1,.47,4c0,.59-.07,1.18-.13,1.77a18.48,18.48,0,0,1-1.27,5.9.67.67,0,0,1-.07.11,4.64,4.64,0,0,0-1.34-.22c-1.87-.17-3.69-.8-5.56-.93A6.49,6.49,0,0,0,165,96l.33-1.77a10.37,10.37,0,0,0,.15-1.1,8.18,8.18,0,0,0,0-1c0-.77-.06-1.55-.11-2.32A4.27,4.27,0,0,0,165,88,.66.66,0,0,0,164.21,87.58Z" transform="translate(-20.65 -4.38)"/><path class="cls-77" d="M170.76,85.91a.61.61,0,0,0-.45.4,1.49,1.49,0,0,0-.05.63c.14,2.29,1.32,4.52.94,6.79a3.34,3.34,0,0,0,2.14,1,10.69,10.69,0,0,0-.2-6.26,4.57,4.57,0,0,0-.42-.93C172.28,86.73,171.65,85.79,170.76,85.91Z" transform="translate(-20.65 -4.38)"/><path class="cls-78" d="M164.61,86.88a4.9,4.9,0,0,0-.82,1.57,13.47,13.47,0,0,1-2,3.38l1.3,1.71a3.67,3.67,0,0,0,.61-.42L165.11,92a2.52,2.52,0,0,0,.5-.48c-.06-.69-.12-1.36-.21-2-.05-.35-.09-.71-.15-1.06A2.25,2.25,0,0,0,164.61,86.88Z" transform="translate(-20.65 -4.38)"/><path class="cls-79" d="M167.3,85.79a5.18,5.18,0,0,0,0-1.18c0,.12.92-.42,1-.53s.07-.45.29-.34.47,1.64.48,2A1.41,1.41,0,0,1,167.3,85.79Z" transform="translate(-20.65 -4.38)"/><path class="cls-34" d="M164.72,83.25a3.45,3.45,0,0,0,1.39,1.86,2.11,2.11,0,0,0,2.3,0,2.65,2.65,0,0,0,.83-1.64,5.53,5.53,0,0,0-.41-3.86,3,3,0,0,0-.7-.84,2.55,2.55,0,0,0-2.85-.09C163.7,79.7,164.22,81.79,164.72,83.25Z" transform="translate(-20.65 -4.38)"/><path class="cls-37" d="M163.44,79.23a1.12,1.12,0,0,0,.39.93,2.28,2.28,0,0,0,.92.46,4.64,4.64,0,0,0,2.56,0,.62.62,0,0,0,.8.65.68.68,0,0,0,.58.83,1.44,1.44,0,0,1-.33-.82c0-.3.33-.6.6-.48a.51.51,0,0,1,.24.24,1.21,1.21,0,0,1-.35,1.55s-.09.07-.08.11.11,0,.06,0a1.29,1.29,0,0,0,.43,1.22s0,0,.05,0a.08.08,0,0,0,0,0,4.77,4.77,0,0,0,.66-1.41,1.66,1.66,0,0,0-.29-1.48,3.36,3.36,0,0,0-.57-2.49,2.24,2.24,0,0,0-.71-.63,2.76,2.76,0,0,0-1.73-.15,6.86,6.86,0,0,0-1.6.48,3.55,3.55,0,0,1-.77.28.91.91,0,0,1-.77-.17s-.07-.08-.12-.09-.22.16-.21.31C163.26,78.93,163.12,79,163.44,79.23Z" transform="translate(-20.65 -4.38)"/><path class="cls-65" d="M163.19,99.73l3.36-.68a.18.18,0,0,0,0-.36l-8.53-1a.18.18,0,0,0-.13,0l-1.48,1.07a.18.18,0,0,0,.09.33l6.65.63Z" transform="translate(-20.65 -4.38)"/><path class="cls-80" d="M158,97.66l8.53,1h0l-3.37.67h-.05l-6.65-.63h-.06l1.45-1A.18.18,0,0,1,158,97.66Z" transform="translate(-20.65 -4.38)"/><path class="cls-81" d="M171.27,93.89a2.3,2.3,0,0,0-.67.27A49.4,49.4,0,0,0,165.81,97c-.24.16-.59,0-.88-.05a.88.88,0,0,0-.36,0,.85.85,0,0,0-.3.15l-.66.47a1.11,1.11,0,0,0-.47.49.4.4,0,0,0,.24.55c.41.07.63.44,1,.59a1,1,0,0,0,.49.07.91.91,0,0,0,.55-.47,2.58,2.58,0,0,1,.42-.6c1.18-1.06,2.76-1.22,4.23-1.79a8.28,8.28,0,0,0,1.51-.7,2.66,2.66,0,0,0,1-1.25A6.49,6.49,0,0,1,171.27,93.89Z" transform="translate(-20.65 -4.38)"/><path class="cls-82" d="M154.42,93.4l6.8.5a.41.41,0,0,1,.36.28l1.8,5a.41.41,0,0,1-.43.55l-6.72-.62a.41.41,0,0,1-.35-.27L154,94A.42.42,0,0,1,154.42,93.4Z" transform="translate(-20.65 -4.38)"/></g></g></svg>