<svg xmlns="http://www.w3.org/2000/svg" xmlns:xlink="http://www.w3.org/1999/xlink" viewBox="0 0 173.78 137.72"><defs><style>.cls-1{fill:none;}.cls-2{isolation:isolate;}.cls-3{fill:#ff0;opacity:0.14;}.cls-4{fill:url(#linear-gradient);}.cls-10,.cls-5{fill:#6e71fc;}.cls-6{fill:#e9fcff;}.cls-7{fill:#5596ff;opacity:0.61;}.cls-8{fill:#c0c0f9;}.cls-9{fill:#ffb176;}.cls-10{opacity:0.23;}.cls-11{fill:#6969d1;opacity:0.34;}.cls-12{opacity:0.74;}.cls-13{fill:#f0f0ff;}.cls-14{opacity:0.54;}.cls-15{fill:url(#linear-gradient-2);}.cls-16{fill:#fff;}.cls-17{fill:#fbb03b;}.cls-18{fill:#29abe2;}.cls-19{fill:#ffec00;}.cls-20{fill:#e7ffd1;}.cls-21{fill:#9066ff;}.cls-22{fill:#ff7e22;}.cls-23{fill:#dc5b75;}.cls-24{fill:url(#linear-gradient-3);}.cls-25{fill:url(#New_Gradient_Swatch_5);}.cls-26{fill:#603813;}.cls-27{fill:#6269e8;}.cls-28{fill:#1da0ff;}.cls-29{fill:#c5fff7;}.cls-30{fill:#fff69d;}.cls-31{fill:#15ffb4;opacity:0.4;}.cls-32{fill:#b7b7b7;}.cls-33{fill:#999;}.cls-34{fill:url(#linear-gradient-4);}.cls-35{fill:#2e3192;}.cls-36{fill:url(#linear-gradient-5);}.cls-37{opacity:0.5;}.cls-38{clip-path:url(#clip-path);}.cls-39{fill:url(#New_Gradient_Swatch_5-2);}.cls-40{fill:#b3b3b3;}.cls-41{fill:gray;}.cls-42{fill:url(#linear-gradient-6);}.cls-43{fill:url(#linear-gradient-7);}.cls-44{fill:url(#linear-gradient-8);}.cls-45{fill:url(#linear-gradient-9);}.cls-46{fill:url(#linear-gradient-10);}.cls-47{fill:url(#linear-gradient-11);}.cls-48{fill:url(#linear-gradient-12);}.cls-49{fill:url(#linear-gradient-13);}.cls-50,.cls-53,.cls-54,.cls-55,.cls-56,.cls-61,.cls-68,.cls-71,.cls-72,.cls-73{mix-blend-mode:multiply;}.cls-50{fill:url(#radial-gradient);}.cls-51{fill:url(#New_Gradient_Swatch_4);}.cls-52{fill:#ff9100;}.cls-53{fill:url(#linear-gradient-14);}.cls-54{fill:url(#linear-gradient-15);}.cls-55{fill:url(#radial-gradient-2);}.cls-56{fill:url(#radial-gradient-3);}.cls-57{fill:url(#linear-gradient-16);}.cls-58{fill:#af00c8;}.cls-59{fill:url(#New_Gradient_Swatch_4-2);}.cls-60{fill:#f7931e;}.cls-61{fill:url(#radial-gradient-4);}.cls-62{fill:#9300bd;opacity:0.68;}.cls-63{fill:url(#linear-gradient-17);}.cls-64{fill:url(#linear-gradient-18);}.cls-65{fill:url(#linear-gradient-19);}.cls-66{fill:url(#linear-gradient-20);}.cls-67{fill:url(#linear-gradient-21);}.cls-68{fill:url(#radial-gradient-5);}.cls-69{fill:url(#New_Gradient_Swatch_4-3);}.cls-70{fill:url(#linear-gradient-22);}.cls-71{fill:url(#linear-gradient-23);}.cls-72{fill:url(#linear-gradient-24);}.cls-73{fill:url(#linear-gradient-25);}.cls-74{fill:url(#linear-gradient-26);}.cls-75{fill:url(#linear-gradient-27);}</style><linearGradient id="linear-gradient" x1="-7414.57" y1="110.7" x2="-7299.42" y2="110.7" gradientTransform="matrix(-1, 0, 0, 1, -7211.14, 0)" gradientUnits="userSpaceOnUse"><stop offset="0" stop-color="#ccedff"/><stop offset="1" stop-color="#89c7ff"/></linearGradient><linearGradient id="linear-gradient-2" x1="-7326.75" y1="132.3" x2="-7313.46" y2="132.3" gradientTransform="matrix(-1, 0, 0, 1, -7211.14, 0)" gradientUnits="userSpaceOnUse"><stop offset="0.02" stop-color="#08f4d4"/><stop offset="0.32" stop-color="#09f2d4"/><stop offset="0.48" stop-color="#0bead4"/><stop offset="0.61" stop-color="#0fdcd4"/><stop offset="0.72" stop-color="#16c9d4"/><stop offset="0.82" stop-color="#1db0d4"/><stop offset="0.91" stop-color="#2791d4"/><stop offset="1" stop-color="#326ed4"/></linearGradient><linearGradient id="linear-gradient-3" x1="-7350.65" y1="150.56" x2="-7349.28" y2="179.26" gradientTransform="matrix(-1, 0.01, 0.01, 1, -7218.19, 13.77)" gradientUnits="userSpaceOnUse"><stop offset="0" stop-color="#eb7c77"/><stop offset="0.97" stop-color="#830086"/></linearGradient><linearGradient id="New_Gradient_Swatch_5" x1="-7346.44" y1="68.81" x2="-7342.61" y2="68.81" gradientTransform="matrix(-1, 0, 0, 1, -7211.14, 0)" gradientUnits="userSpaceOnUse"><stop offset="0" stop-color="#ea9957"/><stop offset="0.97" stop-color="#a97c50"/></linearGradient><linearGradient id="linear-gradient-4" x1="-7369.67" y1="130.2" x2="-7368.08" y2="148.56" gradientTransform="matrix(-1, 0, 0, 1, -7211.14, 0)" gradientUnits="userSpaceOnUse"><stop offset="0" stop-color="#fd61c9"/><stop offset="0.29" stop-color="#fb5fc9"/><stop offset="0.46" stop-color="#f259ca"/><stop offset="0.6" stop-color="#e44fcb"/><stop offset="0.72" stop-color="#d040cd"/><stop offset="0.82" stop-color="#b72ccf"/><stop offset="0.92" stop-color="#9715d2"/><stop offset="1" stop-color="#7b00d4"/></linearGradient><linearGradient id="linear-gradient-5" x1="-7367.54" y1="100.42" x2="-7372.28" y2="122.15" gradientTransform="matrix(-1, 0, 0, 1, -7211.14, 0)" gradientUnits="userSpaceOnUse"><stop offset="0" stop-color="#808baa"/><stop offset="0.97" stop-color="#1863b9"/></linearGradient><clipPath id="clip-path" transform="translate(-32.85 -5.62)"><path class="cls-1" d="M170.26,96q-.07,10.68-.14,21.36c0,2,0,4,.11,5.94a38.4,38.4,0,0,0,1.68,8.82c-5,1.09-10,2.32-15.08,3.23-2.5.46-5.12.89-7.57.17a18.82,18.82,0,0,0,.36-5.4,164.59,164.59,0,0,0-5.42-32.09c2.15-1.39,4.83-1.9,7.31-2.57A29.28,29.28,0,0,1,162,94.12,31.64,31.64,0,0,1,170.26,96Z"/></clipPath><linearGradient id="New_Gradient_Swatch_5-2" x1="-6352.74" y1="1064.75" x2="-6348.91" y2="1064.75" gradientTransform="matrix(-1.18, 0.21, 0.22, 1.24, -7586.37, 115.75)" xlink:href="#New_Gradient_Swatch_5"/><linearGradient id="linear-gradient-6" x1="-7391.01" y1="141.12" x2="-7377.71" y2="141.12" gradientTransform="matrix(-1, 0, 0, 1, -7211.14, 0)" gradientUnits="userSpaceOnUse"><stop offset="0.02" stop-color="#ffbf4d"/><stop offset="1" stop-color="#ce363f"/></linearGradient><linearGradient id="linear-gradient-7" x1="-7388.28" y1="50.79" x2="-7374.98" y2="50.79" xlink:href="#linear-gradient-2"/><linearGradient id="linear-gradient-8" x1="-5124.49" y1="125.45" x2="-5135.81" y2="151.55" gradientTransform="matrix(-1, 0, 0, 1, -5079.51, 0)" gradientUnits="userSpaceOnUse"><stop offset="0.02" stop-color="#fcee21"/><stop offset="0.31" stop-color="#fcec21"/><stop offset="0.47" stop-color="#fbe421"/><stop offset="0.59" stop-color="#fad621"/><stop offset="0.7" stop-color="#f9c322"/><stop offset="0.8" stop-color="#f7aa22"/><stop offset="0.89" stop-color="#f58b23"/><stop offset="0.97" stop-color="#f26724"/><stop offset="1" stop-color="#f15a24"/></linearGradient><linearGradient id="linear-gradient-9" x1="-5166.43" y1="133.64" x2="-5172.96" y2="144.21" xlink:href="#linear-gradient-8"/><linearGradient id="linear-gradient-10" x1="-5160.6" y1="126.88" x2="-5156.56" y2="126.88" xlink:href="#linear-gradient-8"/><linearGradient id="linear-gradient-11" x1="-5137.98" y1="119.6" x2="-5149.3" y2="145.69" xlink:href="#linear-gradient-8"/><linearGradient id="linear-gradient-12" x1="-5154.33" y1="127.96" x2="-5161.81" y2="143.02" xlink:href="#linear-gradient-8"/><linearGradient id="linear-gradient-13" x1="-5181.25" y1="141.87" x2="-5178.3" y2="141.87" xlink:href="#linear-gradient-8"/><radialGradient id="radial-gradient" cx="-3432.67" cy="30231.22" r="19.14" gradientTransform="matrix(0.14, 0.59, 0.21, -0.05, -5680.84, 3547.54)" gradientUnits="userSpaceOnUse"><stop offset="0" stop-color="#4d4d4d"/><stop offset="0.17" stop-color="#737373"/><stop offset="0.45" stop-color="#afafaf"/><stop offset="0.7" stop-color="#dadada"/><stop offset="0.89" stop-color="#f5f5f5"/><stop offset="1" stop-color="#fff"/></radialGradient><linearGradient id="New_Gradient_Swatch_4" x1="-7279.41" y1="97.94" x2="-7282" y2="108.37" gradientTransform="matrix(-1, 0, 0, 1, -7211.14, 0)" gradientUnits="userSpaceOnUse"><stop offset="0" stop-color="#ffb176"/><stop offset="1" stop-color="#a67c52"/></linearGradient><linearGradient id="linear-gradient-14" x1="-7324.56" y1="104.73" x2="-7320.28" y2="88.15" gradientTransform="matrix(-1, 0, 0, 1, -7211.14, 0)" gradientUnits="userSpaceOnUse"><stop offset="0" stop-color="#603813"/><stop offset="0.06" stop-color="#6d4826"/><stop offset="0.32" stop-color="#a08872"/><stop offset="0.56" stop-color="#c9bbaf"/><stop offset="0.76" stop-color="#e6e0da"/><stop offset="0.91" stop-color="#f8f7f5"/><stop offset="1" stop-color="#fff"/></linearGradient><linearGradient id="linear-gradient-15" x1="-7315.27" y1="100" x2="-7321.59" y2="89.96" xlink:href="#linear-gradient-14"/><radialGradient id="radial-gradient-2" cx="-8530.62" cy="7595.65" r="19.14" gradientTransform="matrix(-0.75, 0.36, 0.1, 0.21, -7054.07, 1603.58)" xlink:href="#radial-gradient"/><radialGradient id="radial-gradient-3" cx="-2783.21" cy="18864.94" r="19.14" gradientTransform="matrix(0.23, 0.88, 0.36, -0.09, -6022.48, 4359.91)" xlink:href="#radial-gradient"/><linearGradient id="linear-gradient-16" x1="-7289.85" y1="100.95" x2="-7291.64" y2="104.7" gradientTransform="matrix(-1, 0, 0, 1, -7211.14, 0)" gradientUnits="userSpaceOnUse"><stop offset="0" stop-color="#d100ee"/><stop offset="1" stop-color="#ed00ff"/></linearGradient><linearGradient id="New_Gradient_Swatch_4-2" x1="-7306.61" y1="89.48" x2="-7306.32" y2="83.79" xlink:href="#New_Gradient_Swatch_4"/><radialGradient id="radial-gradient-4" cx="-3068.41" cy="-12382.58" r="19.14" gradientTransform="matrix(0, -0.93, -0.29, 0, -3485.55, -2747.88)" xlink:href="#radial-gradient"/><linearGradient id="linear-gradient-17" x1="-7306.44" y1="141.28" x2="-7305.28" y2="113.87" gradientTransform="matrix(-1, 0, 0, 1, -7211.14, 0)" gradientUnits="userSpaceOnUse"><stop offset="0" stop-color="#fa008b"/><stop offset="0.97" stop-color="#78142d"/></linearGradient><linearGradient id="linear-gradient-18" x1="-7307.54" y1="125.36" x2="-7307.71" y2="120.81" xlink:href="#linear-gradient-17"/><linearGradient id="linear-gradient-19" x1="-7307.25" y1="130.64" x2="-7307.43" y2="124.01" xlink:href="#linear-gradient-17"/><linearGradient id="linear-gradient-20" x1="-7306.88" y1="136.28" x2="-7306.7" y2="130.69" xlink:href="#linear-gradient-17"/><linearGradient id="linear-gradient-21" x1="-7306.51" y1="142.41" x2="-7306.59" y2="134.96" xlink:href="#linear-gradient-17"/><radialGradient id="radial-gradient-5" cx="-6596.59" cy="-6144.01" r="19.14" gradientTransform="matrix(-0.87, -0.31, -0.1, 0.27, -6266.79, -283.78)" xlink:href="#radial-gradient"/><linearGradient id="New_Gradient_Swatch_4-3" x1="-7197.57" y1="-269.05" x2="-7204.77" y2="-266.84" gradientTransform="matrix(-1, -0.09, -0.09, 1, -7083.41, -259.01)" xlink:href="#New_Gradient_Swatch_4"/><linearGradient id="linear-gradient-22" x1="-7321.3" y1="104.22" x2="-7327.55" y2="101.8" xlink:href="#linear-gradient-16"/><linearGradient id="linear-gradient-23" x1="-7309.12" y1="85.9" x2="-7316.15" y2="75.35" xlink:href="#linear-gradient-14"/><linearGradient id="linear-gradient-24" x1="-7292.97" y1="64.58" x2="-7294.86" y2="85.72" xlink:href="#linear-gradient-14"/><linearGradient id="linear-gradient-25" x1="-7311.99" y1="85.84" x2="-7306.03" y2="70.26" xlink:href="#linear-gradient-14"/><linearGradient id="linear-gradient-26" x1="-7434.8" y1="135.37" x2="-7402.99" y2="135.37" gradientTransform="matrix(-1, 0, 0, 1, -7294.92, 0)" xlink:href="#linear-gradient-2"/><linearGradient id="linear-gradient-27" x1="-7441.27" y1="138.91" x2="-7423.6" y2="138.91" gradientTransform="matrix(-1, 0, 0, 1, -7294.92, 0)" xlink:href="#linear-gradient-2"/></defs><g class="cls-2"><g id="Layer_1" data-name="Layer 1"><circle class="cls-3" cx="96.79" cy="79" r="63.94" transform="translate(-35.27 -2.56) rotate(-1.79)"/><path class="cls-4" d="M90.38,118.7c5.48-9.17,21.37-13.85,30.43-17.77a144.71,144.71,0,0,1,29.27-9.17,26.59,26.59,0,0,0,6-1.74c7-3.25,10.75-11.79,18.46-9.28l5.51.92c7.35,1.61,7.84,5.23,8.56,14.49.38,4.84.22,7.93,4.91,10.92a32.37,32.37,0,0,1,8.58,8.26c2.8,3.88.54,11.3-2.15,14.7a29.37,29.37,0,0,1-21.12,11c-9.73.5-20.29-1.52-29.7-4.59-5.41-1.76-12.27-5.46-18.06-5.81-5-.31-10.16-.48-15.23-.31-8,.27-14.54,8.13-23,4C87,131.45,87.43,123.64,90.38,118.7Z" transform="translate(-32.85 -5.62)"/><rect class="cls-5" x="102.74" y="49.68" width="65.26" height="42.24" rx="2.11"/><rect class="cls-6" x="105.48" y="52.13" width="59.78" height="37.35"/><path class="cls-7" d="M145.1,87.18c.44-.5,18.79-17,18.79-17L173,77.32l15.64-12.06-1.53-1.47L195,62.06l-3.27,6.74-1.51-1.5-17.68,14-8.66-7.87L141.43,90.79Z" transform="translate(-32.85 -5.62)"/><path class="cls-8" d="M37.38,68.81c3.34-8.83,9.82-16.65,18.4-20.6s19.25-3.63,27,1.72c8,5.51,12,15.18,15,24.48s5.45,19.12,11.79,26.52a19.43,19.43,0,0,0,9.6,6.5c4.58,1.17,9.37,0,14-.72s9.94-.62,13.5,2.49c3.71,3.25,4.2,8.49,3.54,13.57,1.76,2.49.89,6.55-1.61,8.54-2.87,2.29-7,2.36-10.53,1.52s-6.92-2.47-10.51-3.26c-9.24-2-18.63,1.64-27.85,3.79-10.56,2.46-21.73,2.9-32.18,0s-20.13-9.25-25.88-18.44a49.3,49.3,0,0,1-6.47-18.2C33.68,87.43,34.05,77.65,37.38,68.81Z" transform="translate(-32.85 -5.62)"/><path class="cls-9" d="M140.47,58.68a2.94,2.94,0,0,1,0,1.53,4.68,4.68,0,0,1-.61,1.2,5.26,5.26,0,0,1-.83,1.05,1.75,1.75,0,0,1-1.21.5.42.42,0,0,1-.16,0,.41.41,0,0,1-.1-.22,7,7,0,0,1,.75-4.29c.2-.4.34-.87.84-.95C139.89,57.35,140.32,58.11,140.47,58.68Z" transform="translate(-32.85 -5.62)"/><path class="cls-10" d="M96.94,29.57h34.52c4.92,0,8.94,3.41,8.94,7.58v74.12c0,4.17-4,7.58-8.94,7.58H96.94c-4.92,0-8.94-3.41-8.94-7.58V37.15C88,33,92,29.57,96.94,29.57Z" transform="translate(-32.85 -5.62)"/><path class="cls-11" d="M73,54.59H53.38c-1.13,0-2,1.37-2,3V85.31c0,1.68.91,3,2,3H73c1.12,0,2-1.37,2-3V57.64C75,56,74.08,54.59,73,54.59Z" transform="translate(-32.85 -5.62)"/><g class="cls-12"><rect class="cls-13" x="21.62" y="52.67" width="16.07" height="1.13"/><rect class="cls-13" x="21.62" y="59.91" width="16.07" height="1.13"/><rect class="cls-13" x="21.62" y="55.08" width="12.74" height="1.13"/><rect class="cls-13" x="21.62" y="57.5" width="9.88" height="1.13"/></g><g class="cls-14"><rect class="cls-13" x="21.62" y="65.52" width="16.07" height="1.13"/><rect class="cls-13" x="21.62" y="72.76" width="16.07" height="1.13"/><rect class="cls-13" x="21.62" y="67.93" width="12.74" height="1.13"/><rect class="cls-13" x="21.62" y="70.35" width="9.88" height="1.13"/></g><path class="cls-15" d="M104.51,130.11h8.92a2.19,2.19,0,0,1,0,4.38h-8.92a2.19,2.19,0,0,1,0-4.38Z" transform="translate(-32.85 -5.62)"/><path class="cls-16" d="M83.5,61.56a3.1,3.1,0,0,1,3.1,3.1,3.1,3.1,0,0,1,3.1-3.1,3.1,3.1,0,0,1-3.1-3.1A3.1,3.1,0,0,1,83.5,61.56Z" transform="translate(-32.85 -5.62)"/><path class="cls-17" d="M197.75,111.15a3.1,3.1,0,0,1,3.1,3.1,3.1,3.1,0,0,1,3.1-3.1,3.1,3.1,0,0,1-3.1-3.1A3.1,3.1,0,0,1,197.75,111.15Z" transform="translate(-32.85 -5.62)"/><path class="cls-16" d="M90.62,55.11A1.91,1.91,0,0,1,92.53,57a1.9,1.9,0,0,1,1.9-1.9,1.91,1.91,0,0,1-1.9-1.91A1.92,1.92,0,0,1,90.62,55.11Z" transform="translate(-32.85 -5.62)"/><path class="cls-16" d="M193.1,117.51a1.9,1.9,0,0,1,1.91,1.91,1.9,1.9,0,0,1,1.91-1.91A1.9,1.9,0,0,1,195,115.6,1.9,1.9,0,0,1,193.1,117.51Z" transform="translate(-32.85 -5.62)"/><path class="cls-18" d="M74.05,37.63a3.06,3.06,0,0,1,3.06,3.07,3.07,3.07,0,0,1,3.07-3.07,3.07,3.07,0,0,1-3.07-3.07A3.06,3.06,0,0,1,74.05,37.63Z" transform="translate(-32.85 -5.62)"/><path class="cls-18" d="M35.38,119.09a3.08,3.08,0,0,1,3.07,3.07,3.07,3.07,0,0,1,3.07-3.07A3.06,3.06,0,0,1,38.45,116,3.07,3.07,0,0,1,35.38,119.09Z" transform="translate(-32.85 -5.62)"/><rect class="cls-19" x="150.54" y="93.56" width="23.24" height="5.61" rx="2.11"/><path class="cls-20" d="M156.05,5.66c0,.08,0,.16,0,.24a0,0,0,1,1,0,0c0-.08,0-.16,0-.24A0,0,0,0,1,156.05,5.66Z" transform="translate(-32.85 -5.62)"/><path class="cls-21" d="M139.34,28.47a2.09,2.09,0,0,1,2.09,2.09,2.09,2.09,0,0,1,2.08-2.09,2.08,2.08,0,0,1-2.08-2.08A2.08,2.08,0,0,1,139.34,28.47Z" transform="translate(-32.85 -5.62)"/><path class="cls-22" d="M56.17,110.16a1.67,1.67,0,0,0,1.67,1.67h3.3a1.67,1.67,0,0,0,0-3.34h-3.3A1.67,1.67,0,0,0,56.17,110.16Z" transform="translate(-32.85 -5.62)"/><path class="cls-23" d="M146.23,72.89c.85,0,1.45.83,1.81,1.6a20.38,20.38,0,0,1,1.44,7.19,103,103,0,0,1-.1,15A12.42,12.42,0,0,0,144,91c-1.11-4.1-2.35-8.5-1.51-12.66C142.94,76,143.91,72.89,146.23,72.89Z" transform="translate(-32.85 -5.62)"/><path class="cls-24" d="M140,108.54c.16.24-.2.48-.48.55a36,36,0,0,1-16.82.14,162,162,0,0,1-2.22-25.64q0-3.34.1-6.69c0-1.36-.34-4.58.61-5.49s4.45-1.35,5.84-1.68a25.16,25.16,0,0,1,6-.79c4.84,0,9.42,2,13.86,4-2.57,3.2-3.43,7.51-4.18,11.54A150.29,150.29,0,0,0,140,108.54Z" transform="translate(-32.85 -5.62)"/><path class="cls-9" d="M123.25,31.82,124,36a7.72,7.72,0,0,1-1.25,1.24,2.59,2.59,0,0,1-1.7.51,2,2,0,0,1-.89-.34,53.75,53.75,0,0,0-4.19,20.25c0,.22.18.23.27.43a.3.3,0,0,1,0,.24.31.31,0,0,1-.16.14,17.28,17.28,0,0,1-5.23,1.44c-.13,0-.34-.1-.23-.18a63.48,63.48,0,0,1,5.8-23,5.89,5.89,0,0,1,1.06-1.79,6.44,6.44,0,0,1,1-.79l2.63-1.83a3.76,3.76,0,0,1,1.24-.64C122.82,31.52,123.17,31.37,123.25,31.82Z" transform="translate(-32.85 -5.62)"/><path class="cls-23" d="M120.27,81.73A139.45,139.45,0,0,1,110.11,60c.06.15.29.13.45.07l2-.72c1.24-.44,2.64-.63,3.32-1.75a28.53,28.53,0,0,0,8.8,11.28,3.8,3.8,0,0,0,1.94.94A6.18,6.18,0,0,0,123.8,71a9.33,9.33,0,0,0-1.67,1.77A9.53,9.53,0,0,0,121,76.54C120.66,78.32,120.57,80,120.27,81.73Z" transform="translate(-32.85 -5.62)"/><path class="cls-9" d="M149.15,95.86a2.06,2.06,0,0,1-.52,2.58,3.12,3.12,0,0,1-2.73.51,6.69,6.69,0,0,1-2.5-1.38c-2.76-2.23-4.68-5.31-6.54-8.34-.62-1-.75-2.2-1.77-2.77-.62-.34-1.43-.46-1.79-1.07a2.15,2.15,0,0,1-.2-.62c-.21-1-.43-1.93-.64-2.89a3.15,3.15,0,0,1-.06-1.61A2.22,2.22,0,0,1,134.58,79a13.38,13.38,0,0,1,2.64.51.81.81,0,0,1,.41.15.76.76,0,0,1,.2.4c.23.83.43,1.66.6,2.5a3,3,0,0,1-.24,2.42c-.15.19-.28.54-.05.57,2.25,2.79,5.34,4.58,8.2,6.74A11.59,11.59,0,0,1,149.15,95.86Z" transform="translate(-32.85 -5.62)"/><path class="cls-25" d="M134.45,71.36a1.94,1.94,0,0,1-.21.6.9.9,0,0,1-.89.31,1.69,1.69,0,0,1-1.37-.52,3.64,3.64,0,0,1-.5-2.11,32.36,32.36,0,0,1,.21-4.29,10.84,10.84,0,0,0,1.67.81c.41.17,1.54.17,1.82.52C135.65,67.25,134.62,70.57,134.45,71.36Z" transform="translate(-32.85 -5.62)"/><path class="cls-9" d="M139.87,53.79a14,14,0,0,1-.66,6.21,18.29,18.29,0,0,1-2.29,5.31,8.87,8.87,0,0,1-4.55,3.58,4,4,0,0,1-1.91.2c-1.48-.26-2.47-1.62-3.07-2.94A14.56,14.56,0,0,1,128,52.88c1.3-2.22,3.44-4.2,6.09-4.4C137.18,48.26,139.41,51.14,139.87,53.79Z" transform="translate(-32.85 -5.62)"/><path class="cls-26" d="M137.25,62.18a.64.64,0,0,0,.62.68,1.4,1.4,0,0,0,.93-.42,3.26,3.26,0,0,0,.72-3.68.76.76,0,0,0-.25-.33.6.6,0,0,0-.72.11,1.76,1.76,0,0,0-.4.67c-.18.47-.35.93-.83,1.07a1.31,1.31,0,0,0,.46-1.15,11,11,0,0,1-.1-1.28,3.87,3.87,0,0,1,1.06-2.05,3.25,3.25,0,0,1-2.08-.25,6.12,6.12,0,0,1-2.22-2.24,3.86,3.86,0,0,0-2.21-1.56,3.6,3.6,0,0,0-2.71.32,2.83,2.83,0,0,1-1.36.61l0-.22a5.11,5.11,0,0,1-1.44-4.05,12,12,0,0,1,1.18-4.57c-.23.26,0,.72.27.88a1.93,1.93,0,0,0,1,.08A14,14,0,0,1,139.36,48,6.63,6.63,0,0,1,141,49.85a4.45,4.45,0,0,1,.28,3.57,3.83,3.83,0,0,1,1.27,3.41,8,8,0,0,1-2.62,5.38c-1.12,1-2.58,1.74-3.12,3.14C137,64.2,137.06,63.33,137.25,62.18Z" transform="translate(-32.85 -5.62)"/><path class="cls-26" d="M126.39,52.71a3.69,3.69,0,0,0-.68,1.69,6.75,6.75,0,0,0,.44,3.82,25.69,25.69,0,0,1,2-5.18C129.05,51.49,127,51.9,126.39,52.71Z" transform="translate(-32.85 -5.62)"/><path class="cls-27" d="M121.84,103.54q.27,16.58.06,33.16a21.22,21.22,0,0,1,7.54-.1c.17,0,.39.2.26.33.91-10.84,1.65-21.56,2.56-32.4C128.4,104.92,125.26,104.85,121.84,103.54Z" transform="translate(-32.85 -5.62)"/><path class="cls-5" d="M140.26,102c1.47,12.88,2.87,25.09,4.35,38a63.08,63.08,0,0,1-9.66-2.29c-3.3-10.8-4.23-22.12-7.33-33a21.27,21.27,0,0,0,8.21-1A16.86,16.86,0,0,0,140.26,102Z" transform="translate(-32.85 -5.62)"/><rect class="cls-28" x="111.53" y="28.61" width="26.11" height="19.2" rx="2.66"/><path class="cls-29" d="M162.74,41.7,155,37.85a2.09,2.09,0,0,0-3,1.88v8.2a2.1,2.1,0,0,0,3.12,1.83l7.77-4.36A2.09,2.09,0,0,0,162.74,41.7Z" transform="translate(-32.85 -5.62)"/><path class="cls-30" d="M85.69,46.86a2.48,2.48,0,0,0,2.48,2.47h4.9a2.48,2.48,0,1,0,0-4.95h-4.9A2.48,2.48,0,0,0,85.69,46.86Z" transform="translate(-32.85 -5.62)"/><circle class="cls-31" cx="46.29" cy="120.96" r="15.57"/><path class="cls-32" d="M99.88,74l22.33,3a1.38,1.38,0,0,1,1.13,1l4.88,17a1.36,1.36,0,0,1-1.52,1.72l-22-3.42a1.35,1.35,0,0,1-1.09-.94l-5.19-16.6A1.37,1.37,0,0,1,99.88,74Z" transform="translate(-32.85 -5.62)"/><path class="cls-33" d="M127.05,96.72l14.65.89s1.08-.75.05-1.3l-13.47-.92S127.39,96.73,127.05,96.72Z" transform="translate(-32.85 -5.62)"/><path class="cls-34" d="M142.62,132.13h30.53c.58,0,1,.25,1,.55v10c0,.31-.47.55-1,.55H142.62c-.58,0-1.05-.24-1.05-.55v-10C141.57,132.38,142,132.13,142.62,132.13Z" transform="translate(-32.85 -5.62)"/><path class="cls-35" d="M171.47,107.39c1.45,1.4,3.39,3.34,5.33,4.2s4.26-1,4.64-3-.95-3.64-2.28-5a49.81,49.81,0,0,0-9-7.49,1.2,1.2,0,0,0-1-.28c-.4.15-.53.63-.59,1a25,25,0,0,0,0,7.33C168.76,106.12,170.1,106.08,171.47,107.39Z" transform="translate(-32.85 -5.62)"/><path class="cls-36" d="M170.26,96q-.07,10.68-.14,21.36c0,2,0,4,.11,5.94a38.4,38.4,0,0,0,1.68,8.82c-5,1.09-10,2.32-15.08,3.23-2.5.46-5.12.89-7.57.17a18.82,18.82,0,0,0,.36-5.4,164.59,164.59,0,0,0-5.42-32.09c2.15-1.39,4.83-1.9,7.31-2.57A29.28,29.28,0,0,1,162,94.12,31.64,31.64,0,0,1,170.26,96Z" transform="translate(-32.85 -5.62)"/><path class="cls-35" d="M144.66,97.84c-.83.1-1.4.88-1.86,1.58a30.37,30.37,0,0,0-2.15,3.65,30.29,30.29,0,0,0-1.68,5.14l-2.52,9.66a6.12,6.12,0,0,1,6.62,1.29c.2.2.37-.06.45-.34a69.82,69.82,0,0,1,2.91-6.86,18.47,18.47,0,0,0,1.84-7.18,8.25,8.25,0,0,0-2.89-6.59C145,97.88,145.09,98.1,144.66,97.84Z" transform="translate(-32.85 -5.62)"/><g class="cls-37"><g class="cls-38"><path class="cls-35" d="M146.17,100.19c4.16-.61,8.36,0,12.54-.57a42.79,42.79,0,0,0,12.72-3.36c1.45-.7,2.77,1.42,1.18,2.2-3.94,1.91-8.33,2.38-12.54,3.39-4.37,1-9,.07-13.39.71C145,102.81,144.41,100.44,146.17,100.19Z" transform="translate(-32.85 -5.62)"/><path class="cls-35" d="M147.91,104.42c7.94.22,16.1-.28,23.75-2.54,1.51-.44,2.88,1.7,1.18,2.2-8.13,2.39-16.71,3-25.15,2.74A1.21,1.21,0,1,1,147.91,104.42Z" transform="translate(-32.85 -5.62)"/><path class="cls-35" d="M146.65,109.13H160c4.28,0,8.33-.94,12.57-1.25,1.65-.13,2.28,2.24.51,2.37-4.2.32-8.24,1.23-12.47,1.27-4.73,0-9.46,0-14.19,0C144.68,111.53,144.93,109.13,146.65,109.13Z" transform="translate(-32.85 -5.62)"/><path class="cls-35" d="M146.07,113.84c4.46,0,8.91.1,13.36,0,4-.11,8.17-.15,12-1.61,1.49-.58,2.84,1.56,1.18,2.19-3.93,1.5-8.1,1.68-12.26,1.78-4.84.12-9.67,0-14.5,0C144.11,116.23,144.36,113.83,146.07,113.84Z" transform="translate(-32.85 -5.62)"/><path class="cls-35" d="M148.25,118.89a83.26,83.26,0,0,0,11.28-.17A57.19,57.19,0,0,0,171,117.15c1.51-.43,2.88,1.71,1.18,2.2A58.86,58.86,0,0,1,160,121.09a89.15,89.15,0,0,1-12,.19A1.2,1.2,0,1,1,148.25,118.89Z" transform="translate(-32.85 -5.62)"/><path class="cls-35" d="M148.83,123.71a119.28,119.28,0,0,0,24.08-1.94,1.21,1.21,0,1,1,.51,2.37,122.12,122.12,0,0,1-24.81,2C146.86,126.1,147.11,123.7,148.83,123.71Z" transform="translate(-32.85 -5.62)"/><path class="cls-35" d="M149.4,128.41a98.21,98.21,0,0,0,11.76-.56c3.7-.44,7.36-1.11,11.06-1.49,1.66-.17,2.28,2.19.51,2.37-4,.41-7.93,1.13-11.91,1.6a98.34,98.34,0,0,1-11.64.48C147.44,130.81,147.69,128.42,149.4,128.41Z" transform="translate(-32.85 -5.62)"/><path class="cls-35" d="M147.78,133.69c.57.39,2.88-.11,3.61-.14,2.27-.11,4.53-.41,6.77-.74s4.66-.74,7-1.14a42.86,42.86,0,0,0,7.55-1.55c1.5-.55,2.85,1.58,1.18,2.2a44.71,44.71,0,0,1-7.35,1.57c-2.89.54-5.79,1-8.7,1.42-2.46.36-4.93.53-7.41.69-1.31.08-3,.41-4.2-.37C144.74,134.64,146.44,132.8,147.78,133.69Z" transform="translate(-32.85 -5.62)"/><path class="cls-35" d="M143.3,96.63a85.56,85.56,0,0,1,13.51-1.85c2.25-.12,4.47-.11,6.71-.4,2.44-.31,4.88-.69,7.32-1,1.66-.18,2.28,2.18.51,2.38-4.7.53-9.28,1.23-14,1.37A74.19,74.19,0,0,0,143.81,99,1.22,1.22,0,1,1,143.3,96.63Z" transform="translate(-32.85 -5.62)"/></g></g><path class="cls-9" d="M136.75,117.5a5.85,5.85,0,0,0,1.46,3.75c3.13,4.36,7.61,7.54,10,12.35.48,1,.49,2.18,1,3.12a3,3,0,0,0,2.94,1.45,3.85,3.85,0,0,0,2.78-1.86.25.25,0,0,0,0-.11c0-.09-.09-.15-.17-.18l-1.72-.78a3.33,3.33,0,0,1-1.55-1.09,3.25,3.25,0,0,1-.29-2.05,2.25,2.25,0,0,0,.08.24l.88-.61a2.92,2.92,0,0,0,2.1,1.38c-1-.78-1.22-2.4-2.37-3-.81-.4-1.86-.14-2.6-.66a2.94,2.94,0,0,1-.89-1.29,48.1,48.1,0,0,0-6-9.87c-.61-.78-1.65-.87-2.6-1.14A2.64,2.64,0,0,0,139,117a2.36,2.36,0,0,0-.78.2C137.66,117.41,137.3,117.31,136.75,117.5Z" transform="translate(-32.85 -5.62)"/><path class="cls-39" d="M158.86,96.37a1.55,1.55,0,0,1-.15.57,1.31,1.31,0,0,1-1,.47,2.45,2.45,0,0,1-1.71-.18,2.64,2.64,0,0,1-.92-1.77,21.74,21.74,0,0,1-.44-3.86,13.68,13.68,0,0,0,2.11.37c.51.06,1.84-.17,2.23.08C159.63,92.46,158.94,95.63,158.86,96.37Z" transform="translate(-32.85 -5.62)"/><path class="cls-9" d="M162.12,75.17a13.21,13.21,0,0,1,1.77,6,17.58,17.58,0,0,1-.18,5.83,9.25,9.25,0,0,1-3.11,5.14,4.62,4.62,0,0,1-1.81.94,5,5,0,0,1-4.2-1.48A13.83,13.83,0,0,1,150,79.07c.42-2.56,1.76-5.26,4.3-6.5C157.29,71.13,160.63,72.91,162.12,75.17Z" transform="translate(-32.85 -5.62)"/><path class="cls-26" d="M163.35,72.88A5.14,5.14,0,0,1,160.23,77,14.91,14.91,0,0,1,155,78a.64.64,0,0,0-.36.11.62.62,0,0,0-.16.4,1.67,1.67,0,0,1-.36.8.8.8,0,0,1-.81.24,3.24,3.24,0,0,1-.87,3.43c0-.45.15-.89.12-1.33s-.32-.93-.76-1a1,1,0,0,0-.71.37,2.1,2.1,0,0,0-.31,2.09,2.74,2.74,0,0,0,1.56,1.5c0,.28.05.5.06.78a9,9,0,0,1,0,1,4,4,0,0,1-.65,2,2.58,2.58,0,0,1-1.57-1.56A13.44,13.44,0,0,1,148.71,82,7.49,7.49,0,0,1,150,77.1a3.3,3.3,0,0,1-.34-2.89,5.25,5.25,0,0,1,1.69-2.39,3.52,3.52,0,0,1,1-.61,3.75,3.75,0,0,1,1.6-.18,34.38,34.38,0,0,0,4.05.34,3.62,3.62,0,0,0,3.27-2,.57.57,0,0,1,.24-.34.41.41,0,0,1,.27,0,2.55,2.55,0,0,1,1.58,2A4.46,4.46,0,0,1,163.35,72.88Z" transform="translate(-32.85 -5.62)"/><path class="cls-26" d="M165.14,76.33a7,7,0,0,1-.09,3.51c-.29,1.15-.75,2.24-1.14,3.36a3.75,3.75,0,0,0-.33-2.66c-.39-.83-.94-1.57-1.38-2.37a4.56,4.56,0,0,1-.7-2.62c.08-.78.81-2.22,1.78-1.78A4.12,4.12,0,0,1,165.14,76.33Z" transform="translate(-32.85 -5.62)"/><path class="cls-40" d="M151.57,131.8a2.83,2.83,0,0,0-.38,2.56,8.41,8.41,0,0,0,1.28,2.35,2.24,2.24,0,0,0,.74.76,2.1,2.1,0,0,0,.79.16,18.21,18.21,0,0,0,9.89-2.17.94.94,0,0,0,.32-.23,1,1,0,0,0,.14-.57c.06-2.57-.9-6-4-5.27-1.43.32-2.81.7-4.26,1S152.57,130.59,151.57,131.8Z" transform="translate(-32.85 -5.62)"/><path class="cls-33" d="M161.2,97c.39,0,.3.29.34.57.11.58.89.71.94,1.35a.7.7,0,0,1-.11.46.76.76,0,0,1,.07.76.59.59,0,0,1-.13.18.72.72,0,0,1,.07.7.3.3,0,0,1-.06.11c.11.18-.13.35-.27.24l-.16,0a2.94,2.94,0,0,0,.6,1.68c.15.21.49.44.64.68s.42.65.22,1a.58.58,0,0,1-.32.3,8.77,8.77,0,0,1,.22,1.28c.21,1.4.42,2.8.62,4.21.3,2.08.82,4.36.12,6.41a.78.78,0,0,1,.48,1.31.91.91,0,0,1-.21,1.25.53.53,0,0,1,.16.71.59.59,0,0,1-.26.26,1.89,1.89,0,0,1,.1.44,20.67,20.67,0,0,1,0,2.36,19.85,19.85,0,0,1-1.23,7c-.08.24-.46.14-.38-.09a21.21,21.21,0,0,0,1.15-5.15c0-.36.05-.71.06-1.07s-.13-.91-.14-1.4.45-1.53.15-2a.48.48,0,0,1-.4-.25.17.17,0,0,1,.18-.26l.08,0-.28-.56h0c-.16-.08-.09-.34.09-.3h0l0-.75a.31.31,0,0,1-.12,0,.17.17,0,0,1,0-.31l.14,0c.06-.25.12-.51.17-.76a.17.17,0,0,1-.16-.24c.74-1.9.26-4.06,0-6-.14-1-.28-2-.43-2.92a12,12,0,0,0-.49-3,.53.53,0,0,1-.35-.54.18.18,0,0,1,.29-.14l.06.06c0-.88-.34-.9-.72-1.64a2.86,2.86,0,0,1-.31-1.49.67.67,0,0,1-.14-.11.2.2,0,0,1-.05-.18.36.36,0,0,1,.6-.21.71.71,0,0,0-.11-.39.51.51,0,0,1-.48-.47c0-.15.17-.23.29-.17l.17.11c.15-.11.2-.22.15-.31a.57.57,0,0,1-.78-.42.2.2,0,0,1,.14-.24.88.88,0,0,1,.28,0c.08-.27,0-.47-.19-.57l-.13-.09c0-.07-.14-.11-.19-.2a5.89,5.89,0,0,1-.08-.81A.15.15,0,0,1,161.2,97Z" transform="translate(-32.85 -5.62)"/><path class="cls-41" d="M164.24,90.94a8.63,8.63,0,0,0,.64-2.84,2,2,0,0,0,0-.42,1.81,1.81,0,0,0-1.41-1.59c.12-.54.25-1.08.37-1.61a3.27,3.27,0,0,0,.1-1.42,1.72,1.72,0,0,0,.39-.83,10,10,0,0,1,1.92,1.44,3.27,3.27,0,0,1,1,2.12,4.61,4.61,0,0,1-.2,1.27c-.33,1.37-.66,2.73-1,4.1a15.81,15.81,0,0,1-2.15,5,6.91,6.91,0,0,1-1.46,1.72,3.33,3.33,0,0,1-2.07.79,3.77,3.77,0,0,1-2.24-.56.6.6,0,0,1-.24-.26.61.61,0,0,1,.14-.48c.23-.33.45-.67.67-1a4,4,0,0,1,.85-1,.19.19,0,0,1,.15-.06c.06,0,.1,0,.14.09a2.45,2.45,0,0,0,1,.68,1.19,1.19,0,0,0,1.15-.24C163.34,94.52,163.47,92.66,164.24,90.94Z" transform="translate(-32.85 -5.62)"/><rect class="cls-40" x="156.63" y="96" width="4.03" height="1.03" rx="0.45" transform="translate(-32.86 187.4) rotate(-62.63)"/><rect class="cls-40" x="161.86" y="83.72" width="4.03" height="1.03" rx="0.45" transform="translate(10.42 217.91) rotate(-76.32)"/><path class="cls-9" d="M164.63,98.75h0a10.6,10.6,0,0,0-2.24-2.11,1.56,1.56,0,0,0-.42-.43,9.24,9.24,0,0,1-1-.65,2.1,2.1,0,0,1-.38-2.41c.06-.13.14-.26.21-.38,1.14-.58,2.22-1.24,3.31-1.89.77.32,1.57.57,2.35.86a12.53,12.53,0,0,0,.62,2.15,6,6,0,0,0,.54,1,3.13,3.13,0,0,0,.46,1.28A8.17,8.17,0,0,0,170,98.14q5,4.06,10,8.12a2.77,2.77,0,0,1,.4,3.53A3.12,3.12,0,0,1,177,111a5.77,5.77,0,0,1-2.12-1.43,58.12,58.12,0,0,1-7.59-8.56,6.13,6.13,0,0,0-1.36-1.51C165.49,99.24,165,99.05,164.63,98.75Z" transform="translate(-32.85 -5.62)"/><path class="cls-42" d="M168.76,138.93h8.92a2.19,2.19,0,0,1,0,4.38h-8.92a2.19,2.19,0,0,1,0-4.38Z" transform="translate(-32.85 -5.62)"/><path class="cls-43" d="M166,48.6H175A2.19,2.19,0,0,1,175,53H166a2.19,2.19,0,0,1,0-4.38Z" transform="translate(-32.85 -5.62)"/><path class="cls-44" d="M54,134.74c-4.22,0-7.66,3.71-7.66,8.27v.17h7.07V143c0-.06,0-.12,0-.18a17.1,17.1,0,0,1,1.84-7.62,3.24,3.24,0,0,1,.17-.32A6.81,6.81,0,0,0,54,134.74Z" transform="translate(-32.85 -5.62)"/><path class="cls-45" d="M92.29,138l-.36,0-.36,0a4.32,4.32,0,0,0-2,.89,5.1,5.1,0,0,0-1.94,3.9,1.09,1.09,0,0,0,0,.18v.17H97V143A4.87,4.87,0,0,0,92.29,138Z" transform="translate(-32.85 -5.62)"/><path class="cls-46" d="M81.09,126.88a2,2,0,1,1-2-2A2,2,0,0,1,81.09,126.88Z" transform="translate(-32.85 -5.62)"/><path class="cls-47" d="M68.47,126.71a14.91,14.91,0,0,0-13.06,8.18,3.24,3.24,0,0,0-.17.32,17.1,17.1,0,0,0-1.84,7.62c0,.06,0,.12,0,.18v.17H70.22v-.35a12.17,12.17,0,0,1,8.18-11.6l.38-.12A14.46,14.46,0,0,0,68.47,126.71Z" transform="translate(-32.85 -5.62)"/><path class="cls-48" d="M81.57,130.74a10.73,10.73,0,0,0-2.79.37l-.38.12a12.17,12.17,0,0,0-8.18,11.6v.35h17.4V143a1.09,1.09,0,0,1,0-.18,5.1,5.1,0,0,1,1.94-3.9,4.32,4.32,0,0,1,2-.89l.36,0A11.37,11.37,0,0,0,81.57,130.74Z" transform="translate(-32.85 -5.62)"/><path class="cls-49" d="M101.74,141.87a1.48,1.48,0,1,1-1.48-1.47A1.48,1.48,0,0,1,101.74,141.87Z" transform="translate(-32.85 -5.62)"/><path class="cls-50" d="M65.64,100.16C64.21,94,64.81,88.52,67,88s5.1,4.12,6.53,10.33.83,11.64-1.34,12.14S67.07,106.37,65.64,100.16Z" transform="translate(-32.85 -5.62)"/><path class="cls-51" d="M59.93,85.76a4.79,4.79,0,0,0,3.28,2.69c.43.14.9.71,1.26,1a13.94,13.94,0,0,1,1.33,3,17.61,17.61,0,0,0,.7,2.24c.83,2.49,2,5,2.78,7.5A22.53,22.53,0,0,0,70.72,106c.24.46.57.94,1.07,1a1.53,1.53,0,0,0,.85-.2,4.08,4.08,0,0,0,2-3.16,5.79,5.79,0,0,0-.9-3.69,72,72,0,0,0-4.44-7.47,7.16,7.16,0,0,0-.68-1.32,13.39,13.39,0,0,1-.94-2v0a2.73,2.73,0,0,0-.23-.52,2.84,2.84,0,0,1,0-1.36c.15-.54.53-1.06.4-1.6s-.78-1-.69-1.53c0,0,0,0,0-.08s-.23-.11-.32,0a1.37,1.37,0,0,0-.28.82.84.84,0,0,1-.44.71c-.58.21-1.25-.24-1.78-.55-1.18-.7-1.81-2.13-3-2.78a.26.26,0,0,0-.24,0c-.12.06-.1.23,0,.36A5.83,5.83,0,0,0,62.73,85a5.14,5.14,0,0,1-1.93-1.86c-.06-.09-.18-.19-.24-.11a.11.11,0,0,0,0,.08,1.31,1.31,0,0,0,.1.55,4.36,4.36,0,0,0,1.84,2.2c.07,0,.15.1.12.18a3.88,3.88,0,0,1-1.45-.93c-.4-.36-.76-.77-1.19-1.11a.78.78,0,0,0,.1.73c.15.28.31.56.48.83a3.7,3.7,0,0,0,.44.6,6.93,6.93,0,0,1-1-.91C59.84,85.36,59.87,85.59,59.93,85.76Z" transform="translate(-32.85 -5.62)"/><path class="cls-52" d="M79.25,102c.4,2.46,0,5,1.56,7.08A6.93,6.93,0,0,0,86.08,112a.21.21,0,0,0,0-.41,6.71,6.71,0,0,1-5.29-3.07c-1.28-2-.87-4.44-1.27-6.69-.33-1.83-1-3.71-1.41-5.59A11.5,11.5,0,0,0,79,98.44a10.74,10.74,0,0,1,1.57,4.06,16.11,16.11,0,0,0,.29,3.33A4.54,4.54,0,0,0,89,107a6.85,6.85,0,0,0,.88-3.73,11.49,11.49,0,0,0,1.17-.22,11.05,11.05,0,0,0,6.37-4.33c.06,1.9-.3,3.8-.28,5.7a7.64,7.64,0,0,0,5.07,7.33,10.88,10.88,0,0,0-.73,4,21.63,21.63,0,0,0,.41,4.25c.23,1.16.88,1.54,2,1.53,2.65,0,4.91-1.93,6.32-4a15.32,15.32,0,0,0,1.2-2.17,7,7,0,0,1-2.25,4.88,8.81,8.81,0,0,1-1.81,1.41c-.6.35-1.27.55-1.87.89a.11.11,0,0,0,.08.21c1.61-.15,3.28-1.57,4.29-2.76s2.21-3.16,1.74-4.79c0-.05-.05-.06-.09-.06a15.32,15.32,0,0,0,1.08-3.88.17.17,0,0,0,.26,0,3.71,3.71,0,0,1,.23-.32l.21-.11a6.77,6.77,0,0,0,1.89-1.55,7.26,7.26,0,0,0,1.43-1.1,4.53,4.53,0,0,0,1.05-3.92c-.28-2-1.39-3.63-2.08-5.44a7.87,7.87,0,0,1-.54-3.1,8.1,8.1,0,0,0,1.14-5.78,8,8,0,0,0-2.64-4.83c-1.78-1.5-4.28-2.17-5.66-4.12-1.52-2.13-.93-5.07-1.58-7.49a13.47,13.47,0,0,0-2.53-4.88,12,12,0,0,0-2.76-3,.21.21,0,0,0-.29-.23c-.1-.07-.23.09-.13.17h0a48.17,48.17,0,0,0-3.9,9.07,23.36,23.36,0,0,0-2.25-4.14c-1.13-1.66-3-3.83-5.12-3.47l.29-.36a.11.11,0,0,0,0-.13c.15-.13.3-.26.46-.38a.15.15,0,0,0,.05-.19l.27-.24a.16.16,0,0,0-.18-.26h0a.16.16,0,0,0-.19,0,7,7,0,0,0-1.9,2,9.93,9.93,0,0,0-2,7.83c0,1.6.45,3.2-.17,4.66,0-.07-.09-.14-.13-.07a20.24,20.24,0,0,1-2.69,3l-.09,0c-.15,0-.22.16-.14.26A25.51,25.51,0,0,0,80,86.15a11,11,0,0,0-1.5,2.8C75.78,92.79,78.58,98,79.25,102Zm36.54,6.35a7,7,0,0,0,.37-6.09A19.37,19.37,0,0,0,115,99.92a4.54,4.54,0,0,1-.27-3.54,1,1,0,0,1,.05-.16,6.47,6.47,0,0,0,.13,1.31c.39,1.92,1.54,3.55,2.13,5.4S117.53,107,115.79,108.38Zm-9.93-32a12.64,12.64,0,0,0-.08-2.38,12.47,12.47,0,0,0-.64-2.63A13.15,13.15,0,0,1,106.4,76a13,13,0,0,0,.73,4.3,6.27,6.27,0,0,0,2.27,2.55c1.14.78,2.41,1.36,3.52,2.19a7.39,7.39,0,0,1,2.52,3.34,7.9,7.9,0,0,1,.51,3.26v-.33a7.88,7.88,0,0,0-1.52-4.33A10.19,10.19,0,0,0,110.36,84c-1.85-.86-4.13-1.91-4.65-4.11A12.59,12.59,0,0,1,105.86,76.33ZM85,81.34a11.26,11.26,0,0,0,1-1.4,3.64,3.64,0,0,1-.46.77Q85.22,81,85,81.34ZM83.46,83l.22-.23-.21.24ZM77.83,94.66a9.21,9.21,0,0,1,.3-4.66,12.67,12.67,0,0,0-.4,2.66A12.13,12.13,0,0,0,77.83,94.66Z" transform="translate(-32.85 -5.62)"/><path class="cls-53" d="M108.25,87.44a11.58,11.58,0,0,1,3.66,3.71c1.44,2.68.94,6,1.92,8.89.45,1.34,1.21,2.56,1.76,3.87a5.8,5.8,0,0,1,.39,4.14c1.09-1.58.8-3.72.2-5.54s-1.45-3.63-1.34-5.55c.06-1,.41-2.07.52-3.12a7.1,7.1,0,0,0-1.79-5.46c-2.3-2.5-6.14-3.08-8.47-5.55A14.12,14.12,0,0,1,103.16,80c-.47-.84-.92-1.69-1.42-2.52a10,10,0,0,0,1,5C104,84.66,106.19,86,108.25,87.44Z" transform="translate(-32.85 -5.62)"/><path class="cls-54" d="M104.19,87.44c.89,1.88,1.34,4,2.29,5.81,1.3,2.56,3.47,4.57,5.15,6.9s2.88,5.37,1.88,8.07a4.64,4.64,0,0,0,1.1-3.78,32,32,0,0,0-.91-4c-.77-3.37-.5-7.15-2.52-10-1.29-1.81-3.32-2.9-5.05-4.29a17.38,17.38,0,0,1-4.51-5.5,9.54,9.54,0,0,0-.91,1.62c0,.67.49.94.94,1.41A13.59,13.59,0,0,1,104.19,87.44Z" transform="translate(-32.85 -5.62)"/><path class="cls-55" d="M80.7,97.86c7.91-3.81,15.17-5.12,16.22-2.94s-4.51,7-12.41,10.85-15.17,5.12-16.22,2.93S72.79,101.66,80.7,97.86Z" transform="translate(-32.85 -5.62)"/><path class="cls-56" d="M97.3,126.5c-2.45-9.3-1.37-17.66,2.43-18.66s8.86,5.73,11.31,15,1.36,17.66-2.43,18.66S99.75,135.8,97.3,126.5Z" transform="translate(-32.85 -5.62)"/><path class="cls-57" d="M84.61,91.12a8.93,8.93,0,0,0-3.3,2.26,23.57,23.57,0,0,0-2.08,2.87c-1.67,2.53-3.69,5-6.44,6.24-1.09.5-1.62,1.82-2.71,2.31a10.52,10.52,0,0,0,1.29,2.91c.51.82,1.76.21,2.64-.2a15.39,15.39,0,0,0,2.41-1.62,14.86,14.86,0,0,1,7-2.66,5.69,5.69,0,0,0,1.32-2.57,22.89,22.89,0,0,0,1-4.77A8,8,0,0,0,84.61,91.12Z" transform="translate(-32.85 -5.62)"/><path class="cls-58" d="M87,89.71l-1.69.91a5.37,5.37,0,0,0-2,1.55c-.74,1.11-.56,2.56-.45,3.89a27,27,0,0,1-.06,5.39,8.91,8.91,0,0,0,.15,4.42,3.84,3.84,0,0,0,2,2,34.06,34.06,0,0,1,2.41,13.71c4.65.11,9.4,1.2,14,.61a4.51,4.51,0,0,0,2.1-.69,39.1,39.1,0,0,1,2.92-16.8,54,54,0,0,0,2.37-5.86,9.38,9.38,0,0,0-.09-6.21,5.27,5.27,0,0,0-.41-1.07,1.81,1.81,0,0,0-.5-.53,2.33,2.33,0,0,0-.63-.26l-3.43-1c-3.62-1.07-7.54.48-11.26,1.17a5.37,5.37,0,0,1-1.78.14,5.52,5.52,0,0,1-1.29-.46C88.62,90.27,87.82,90.07,87,89.71Z" transform="translate(-32.85 -5.62)"/><path class="cls-59" d="M96.77,84.52a8.7,8.7,0,0,1-.07,2.28,73.91,73.91,0,0,0,7.44,3,21.26,21.26,0,0,1-8.69,2.63A12.64,12.64,0,0,1,86.86,90C89,89.06,90.93,88.1,93,87.2c-.17-.87-.37-1.74-.6-2.6a25.21,25.21,0,0,1,4.43-.45A.49.49,0,0,1,96.77,84.52Z" transform="translate(-32.85 -5.62)"/><path class="cls-9" d="M88.62,83.05a3.71,3.71,0,0,0,.15.82,2.69,2.69,0,0,0,.65.94,6.4,6.4,0,0,0,6.3,1.49A9.08,9.08,0,0,0,100.84,82a15.37,15.37,0,0,0,1.81-6.75c.15-2.46-.21-5.16-1.88-6.91a6.9,6.9,0,0,0-2.42-1.58c-2-.81-6.5-1.29-7.9,1-1.58,2.53-1.93,6.55-2,9.49A39.83,39.83,0,0,0,88.62,83.05Z" transform="translate(-32.85 -5.62)"/><path class="cls-52" d="M102.35,78.55c-.43-.64-.31-1.49-.52-2.24a3.93,3.93,0,0,0-2.92-2.44c-1.28-.34-2.64-.32-3.94-.58a9.37,9.37,0,0,1-5.92-4c-.9-1.36-1.41-3.2-.55-4.58a12.23,12.23,0,0,1,12.24.68,11.06,11.06,0,0,1,4.4,11.38,4.2,4.2,0,0,1-1.78,2.75.69.69,0,0,1-.75,0C102.18,79.25,102.87,78.77,102.35,78.55Z" transform="translate(-32.85 -5.62)"/><path class="cls-60" d="M79.54,61.41a.47.47,0,0,1-.07.12.09.09,0,0,1-.12,0,.38.38,0,0,1-.09-.13C79.15,61.15,79.66,61.14,79.54,61.41Z" transform="translate(-32.85 -5.62)"/><ellipse class="cls-61" cx="111.67" cy="103" rx="5.56" ry="17.78" transform="translate(-68.13 58.86) rotate(-28)"/><path class="cls-62" d="M103.47,120.47a29.24,29.24,0,0,1-6.85-1.39,3.88,3.88,0,0,0,2-1.59,2.36,2.36,0,0,0,0-2.48c-.65-1-2-1.14-3-1.54a6.37,6.37,0,0,1-3.53-3.2,1.37,1.37,0,0,1-.19-.78,1.28,1.28,0,0,1,.93-.95c1.59-.6,3.37.13,4.82,1,.67.42,1.67.83,2.15.19a4.06,4.06,0,0,1-2.6-3.5,2.49,2.49,0,0,0,3-.63,4.61,4.61,0,0,0,1-3.06c0-1.09-.21-2.17-.3-3.27-.19-2.36.37-8,3-9.49l3.31,1a2.33,2.33,0,0,1,.63.26,1.81,1.81,0,0,1,.5.53,5.27,5.27,0,0,1,.41,1.07,9.38,9.38,0,0,1,.09,6.21,54,54,0,0,1-2.37,5.86A39.15,39.15,0,0,0,103.47,120.47Z" transform="translate(-32.85 -5.62)"/><path class="cls-63" d="M82.22,137.75c1.31-6.49,4.19-12.83,5.08-19.39a33.92,33.92,0,0,0,15.93-.28c-.09-.08,0,0,.16,0s.2.14.26.25c4.34,7.35,5.4,16.12,6.22,24.62a115.43,115.43,0,0,1-15.45,0,26,26,0,0,1-3.18.14C88,143,84,143.47,80.87,143,81.21,141.32,81.88,139.44,82.22,137.75Z" transform="translate(-32.85 -5.62)"/><path class="cls-64" d="M85.08,127.56A68.55,68.55,0,0,0,87,120.24a31.14,31.14,0,0,0,6.7,1.73,38.69,38.69,0,0,0,8.6-.22c.69-.06,1.81-.42,2.83-.6a40.18,40.18,0,0,1,2.42,6.86c-.25.18-.51.35-.77.51-2.61,1.56-5.86,1.58-8.86,1.07S92,128.1,89,127.82C87.68,127.7,86.37,127.7,85.08,127.56Z" transform="translate(-32.85 -5.62)"/><path class="cls-65" d="M101.5,133.93A173.52,173.52,0,0,1,83.41,133c.79-2.7,1.69-5.4,2.46-8.11l.27-.05a7.72,7.72,0,0,1,3.2.52,27.57,27.57,0,0,0,6.19,1c3.38.17,7.61.19,10.86-.86a2.48,2.48,0,0,0,.37-.17,54.88,54.88,0,0,1,1.91,8A31.79,31.79,0,0,1,101.5,133.93Z" transform="translate(-32.85 -5.62)"/><path class="cls-66" d="M83.63,138.35a4.58,4.58,0,0,1-1.42-.53s0,0,0-.07c.4-2,1-3.95,1.54-5.92l.54.06c4.33.48,8.61,1.43,13,1.61a26.48,26.48,0,0,0,8.85-1.1c.44-.15,1.37-.69,2.2-1.06.47,2.38.82,4.79,1.1,7.21a5.42,5.42,0,0,1-1.4.26c-2.78.28-5.45,1.35-8.24,1.59a27.34,27.34,0,0,1-6.12-.37C90.29,139.58,86.92,139.13,83.63,138.35Z" transform="translate(-32.85 -5.62)"/><path class="cls-67" d="M91.24,143.07C88,143,84,143.47,80.87,143c.34-1.69,1-3.57,1.35-5.26,0-.2.09-.4.13-.61a17,17,0,0,0,5.31,1l4.23.33,5,.39a27.42,27.42,0,0,0,5.51,0,27.13,27.13,0,0,0,6.44-1.93l.33-.15q.39,3.07.67,6.14a115.43,115.43,0,0,1-15.45,0A26,26,0,0,1,91.24,143.07Z" transform="translate(-32.85 -5.62)"/><path class="cls-68" d="M106.4,108.44c9.24,3.33,15.89,8.37,14.85,11.25s-9.38,2.54-18.61-.79-15.89-8.36-14.85-11.25S97.16,105.11,106.4,108.44Z" transform="translate(-32.85 -5.62)"/><path class="cls-69" d="M114.82,113.17a4.76,4.76,0,0,0-2.45-2,14.9,14.9,0,0,0-3.1-.74q-5-.85-9.86-2.15l-2.59-3.07a2,2,0,0,0-.54-.5,1.88,1.88,0,0,0-.94-.17c-.86,0-1.71,0-2.57,0a5.4,5.4,0,0,0-2.58.54,1.13,1.13,0,0,0,.9.52,3.26,3.26,0,0,0,1.07-.15c-.52.2-.94.39-1.47.6a.39.39,0,0,0-.2.13c-.12.19.14.39.35.45a2.46,2.46,0,0,0,1.08,0c-.33.16-.69.38-1,.54a.57.57,0,0,0-.24.19c-.11.25.23.46.5.48a2.18,2.18,0,0,0,.91-.15c0,.32-.46.41-.6.71a.64.64,0,0,0,0,.34,2,2,0,0,0,.17.94.72.72,0,0,0,.79.4,1.36,1.36,0,0,0,.2-1.09A5.08,5.08,0,0,0,96,110a3.39,3.39,0,0,1,.9.07,3.53,3.53,0,0,1,1.15.64c4.3,3,9.78,3.6,14.61,5.61a3.32,3.32,0,0,0,2.53.37,1.79,1.79,0,0,0,.9-2.21C115.75,113.64,115.69,113.23,114.82,113.17Z" transform="translate(-32.85 -5.62)"/><path class="cls-70" d="M103.88,93.15a8.37,8.37,0,0,1,1.84-2.87,11.22,11.22,0,0,1,1.77.61l.12.07a.7.7,0,0,1,.28.15c.16.17.28.29.47.52a70,70,0,0,1,9.22,20.29,10.61,10.61,0,0,1,.5,3.3,2.15,2.15,0,0,1-1.21,2,2.41,2.41,0,0,1-1.22,0,18.49,18.49,0,0,1-2-.34,2.3,2.3,0,0,0,.49-1.74,6.11,6.11,0,0,0-.42-2.4,2.92,2.92,0,0,0-1.75-1.69c-2.26-4.72-6-8.34-8.09-13.12a6.16,6.16,0,0,1-.7-2.39A5.81,5.81,0,0,1,103.88,93.15Z" transform="translate(-32.85 -5.62)"/><path class="cls-71" d="M93.82,73.28c1.42.48,2.94.59,4.4.93A6,6,0,0,1,102,76.45c.83,1.23.87,2.81,1.42,4.19a7.25,7.25,0,0,0,3.76,3.71c1.3.59,2.72.88,4,1.52a8.48,8.48,0,0,1,4.31,9.45,8.19,8.19,0,0,0-2.24-9.46,40.59,40.59,0,0,0-4.72-2.7c-1.56-.94-3-2.4-3.11-4.21a15,15,0,0,1,.28-2.48c.33-2.93-1.24-5.71-2.76-8.25a9.8,9.8,0,0,0-1.83-2.45,7.35,7.35,0,0,0-2-1.17,13.63,13.63,0,0,0-10-.28c-2.85,1.13-.53,4.56.77,6.18A8.78,8.78,0,0,0,93.82,73.28Z" transform="translate(-32.85 -5.62)"/><path class="cls-72" d="M87.26,80.59C86.44,83,84.59,84.84,83,86.8s-3,4.36-2.67,6.86a1.39,1.39,0,0,1,0,.81,1.18,1.18,0,0,1-.38.39l-1.38,1A11.88,11.88,0,0,1,79,89.2a18,18,0,0,1,3.53-5.79c1.72-1.94,3.86-3.81,4.22-6.38a19.66,19.66,0,0,0-.12-3.51c-.06-1.54.17-4.91,1.53-5.91.48.68,0,1.68-.17,2.4a17.13,17.13,0,0,0-.23,3.51C87.8,75.87,88,78.32,87.26,80.59Z" transform="translate(-32.85 -5.62)"/><path class="cls-73" d="M96,68a11.39,11.39,0,0,1,5.26,5.46,33.76,33.76,0,0,1,2.37,7.33,10,10,0,0,0-6.43-6.93c-1.16-.38-2.39-.55-3.54-1a8.43,8.43,0,0,1-4.83-4.7c-.55-1.39-.39-4.58,1.63-2.9C92.18,66.67,94,67.05,96,68Z" transform="translate(-32.85 -5.62)"/><path class="cls-74" d="M108.07,143.33a15.91,15.91,0,1,1,31.81,0Z" transform="translate(-32.85 -5.62)"/><path class="cls-75" d="M128.68,143.33a8.84,8.84,0,1,1,17.67,0Z" transform="translate(-32.85 -5.62)"/></g></g></svg>